<?xml version="1.0" encoding="utf-8"?>
<!-- Generator: Adobe Illustrator 24.0.1, SVG Export Plug-In . SVG Version: 6.00 Build 0)  -->
<svg version="1.1" xmlns="http://www.w3.org/2000/svg" xmlns:xlink="http://www.w3.org/1999/xlink" x="0px" y="0px"
	 viewBox="0 0 1080 1080" style="enable-background:new 0 0 1080 1080;" xml:space="preserve">
<style type="text/css">
	.st0{display:none;}
	.st1{display:inline;fill:#8DD0FB;}
	.st2{display:inline;fill:#44A7D8;}
	.st3{display:inline;}
	.st4{fill:#6662D8;}
	.st5{fill:#5240C1;}
	.st6{fill:#FFBE29;}
	.st7{fill:#F59A1D;}
	.st8{fill:#D1D1D1;}
	.st9{fill:#E2E2E2;}
	.st10{fill:#F4B887;}
	.st11{fill:#FDD5B1;}
	.st12{fill:#4B342E;}
	.st13{fill:#FFFFFF;}
	.st14{fill:#FFC31A;}
	.st15{fill:#FF8F00;}
	.st16{opacity:0.3;fill:#231F20;}
	.st17{fill:#FADABD;}
	.st18{fill:#4F3421;}
	.st19{opacity:0.3;}
	.st20{fill:#787791;}
	.st21{fill:#97BA04;}
	.st22{fill:#FF9D00;}
	.st23{fill:#DDDDDD;}
	.st24{fill:#EE3D44;}
	.st25{fill:#DD3146;}
	.st26{opacity:0.2;fill:#231F20;}
	.st27{fill:#E2EA36;}
	.st28{fill:#A29ED2;}
	.st29{fill:#8B57C5;}
	.st30{fill:#FF4D36;}
	.st31{fill:#F49D2C;}
	.st32{fill:#FCBD30;}
	.st33{fill:#6663D5;}
	.st34{fill:#5444B0;}
	.st35{opacity:0.4;fill:#DD3146;}
</style>
<g id="Layer_1" class="st0">
	
		<ellipse transform="matrix(0.7071 -0.7071 0.7071 0.7071 -223.7738 540.2405)" class="st1" cx="540.2" cy="540.2" rx="526.9" ry="526.9"/>
	<path class="st2" d="M1058.1,636.9L619.7,198.5l-80.1,120.8l-68.9,147.2l-10,110.3l10.6,41.6l81.5,134.1l2.9,2.3
		c-77.3,52.8-154.6,105.5-231.9,158.3c60.8,50.9,121.7,101.8,182.5,152.8c11.2,0.7,22.5,1.2,33.8,1.2
		C798.2,1067.1,1012.7,881.7,1058.1,636.9z"/>
	<g class="st3">
		<g>
			<polygon class="st4" points="190.6,298.3 294,390.9 235.4,272.6 			"/>
			<polygon class="st5" points="235.4,272.6 277.9,267.1 294,390.9 			"/>
			<polygon class="st5" points="370.4,275 294,390.9 320.5,261.6 			"/>
			<polygon class="st4" points="320.5,261.6 277.9,267.1 294,390.9 			"/>
			<polygon class="st4" points="235.4,272.6 277.9,267.1 273,229 			"/>
			<polygon class="st5" points="320.5,261.6 277.9,267.1 273,229 			"/>
			<polygon class="st5" points="190.6,298.3 273,229 235.4,272.6 			"/>
			<polygon class="st4" points="370.4,275 273,229 320.5,261.6 			"/>
			<path class="st6" d="M295.5,211.4c1.8,13.5-7.8,25.8-21.3,27.6c-13.5,1.8-25.8-7.8-27.6-21.3c-1.8-13.5,7.8-25.8,21.3-27.6
				C281.4,188.4,293.8,197.9,295.5,211.4z"/>
			<path class="st7" d="M295.5,211.4c-1.8-13.5-14.1-23-27.6-21.3l6.3,48.9C287.8,237.2,297.3,224.9,295.5,211.4z"/>
		</g>
		<polygon class="st4" points="437.8,308.8 500.4,131.1 792.1,219.5 838.2,175.5 879.3,272.8 825.5,242.1 805.1,292.1 637.2,246.2 
			660.5,310.9 		"/>
		<path class="st5" d="M797.3,269.5L596.4,221c0,0-13.4,52.2-21.9,89.1l86,0.8l-23.3-64.7l167.8,45.9l20.4-50l53.8,30.7l-47.5-59.7
			L797.3,269.5z"/>
		<path class="st8" d="M662.2,329.9c-1,3.3,62.6,161.3,62.6,161.3l-98-16.2L620,329.5L662.2,329.9z"/>
		<polygon class="st5" points="617.2,452.4 740.2,478.1 767.7,912.2 545.7,912.5 545.1,482.2 		"/>
		<path class="st9" d="M427.7,330.3c1,3.3-62.2,161.5-62.2,161.5l97.9-16.4l6.5-145.6L427.7,330.3z"/>
		<polygon class="st4" points="473,452.6 350.1,478.7 323.7,912.8 545.7,912.5 545.1,482.2 		"/>
		<path class="st10" d="M544.9,311l0.3,199.4c0,0,103.3,3.2,103.2-33.6c0-36.7-17.1-159.9-17.1-159.9L544.9,311z"/>
		<path class="st11" d="M544.9,311l0.3,199.4c0,0-103.3,3.4-103.3-33.3c0-36.7,16.7-159.9,16.7-159.9L544.9,311z"/>
		<path class="st12" d="M522.1,393.6c-0.6,2.4-3.1,3.8-5.5,3.2l-34-9.1c-2.4-0.6-3.8-3.1-3.2-5.5l0,0c0.6-2.4,3.1-3.8,5.5-3.2
			l34,9.1C521.3,388.7,522.7,391.2,522.1,393.6L522.1,393.6z"/>
		<path class="st13" d="M536.2,384.7c-1.1,4.3-5.5,6.8-9.8,5.7l-60.7-16.3c-4.3-1.1-6.8-5.5-5.7-9.8l0,0c1.1-4.3,5.5-6.8,9.8-5.7
			l60.7,16.3C534.8,376,537.4,380.4,536.2,384.7L536.2,384.7z"/>
		<path class="st13" d="M553.8,384.7c1.2,4.3,5.5,6.8,9.8,5.6l60.7-16.4c4.3-1.2,6.8-5.6,5.6-9.8l0,0c-1.2-4.3-5.5-6.8-9.8-5.6
			l-60.7,16.4C555.2,376,552.7,380.4,553.8,384.7L553.8,384.7z"/>
		<path class="st9" d="M545.1,471.2l-44.2,27.6c0,0-12.7,64.4-12.6,141.1c0.1,76.7,57.2,133.9,57.2,133.9L545.1,471.2z"/>
		<path class="st13" d="M545.1,447.7l-35.6,0l-30.7,30.8c0,0,0.1,93.2,0.2,128.7c0,35.5,33.3,60.5,33.3,60.5s-0.1-101.6-0.2-131
			c0-29.4,13.1-45.1,33.1-45.2C545.1,461.1,545.1,447.7,545.1,447.7z"/>
		<path class="st12" d="M568,393.5c0.6,2.4,3.1,3.8,5.5,3.2l34-9.2c2.4-0.6,3.8-3.1,3.2-5.5l0,0c-0.6-2.4-3.1-3.8-5.5-3.2l-34,9.2
			C568.7,388.7,567.3,391.1,568,393.5L568,393.5z"/>
		<path class="st8" d="M545.1,471.2l44.3,27.5c0,0,12.8,64.4,12.9,141.1c0.1,76.7-56.8,134.1-56.8,134.1L545.1,471.2z"/>
		<path class="st9" d="M545.1,447.7l35.6,0l30.8,30.7c0,0,0.1,93.2,0.2,128.7c0,35.5-33.1,60.5-33.1,60.5s-0.1-101.6-0.2-131
			c0-29.4-13.2-45.1-33.2-45.1C545.1,461.1,545.1,447.7,545.1,447.7z"/>
		<path class="st14" d="M656.6,297.8l-223.3,0.3c-11.9,0-21.4,9.6-21.4,21.5l266.2-0.3C678,307.3,668.4,297.7,656.6,297.8z"/>
		<path class="st15" d="M411.8,319.5c0,11.9,9.6,21.4,21.5,21.4l223.3-0.3c11.9,0,21.4-9.6,21.4-21.5L411.8,319.5z"/>
		<path class="st12" d="M353.8,908.6c-7.7,0-14.3-5.7-15.3-13.6l-60.9-514.2c-1-8.4,5-16.1,13.5-17.1c8.4-1,16.1,5,17.1,13.5
			l60.9,514.2c1,8.4-5,16.1-13.5,17.1C355,908.6,354.4,908.6,353.8,908.6z"/>
		<path class="st16" d="M703.9,756c-2.9,0-5.4-2.2-5.7-5.1L677,572.2c-0.4-3.2,1.9-6,5-6.4c3.2-0.4,6,1.9,6.4,5l21.1,178.6
			c0.4,3.2-1.9,6-5,6.4C704.3,755.9,704.1,756,703.9,756z"/>
		<path class="st17" d="M365.6,583.7c0,28.1-22.7,50.9-50.8,51c-28.1,0-50.9-22.7-51-50.8c0-28.1,22.7-50.9,50.8-51
			S365.5,555.6,365.6,583.7z"/>
		<path class="st17" d="M786.9,747c0,28.1-22.7,50.9-50.8,51c-28.1,0-50.9-22.7-51-50.8c0-28.1,22.7-50.9,50.8-51
			S786.9,718.9,786.9,747z"/>
		<polygon class="st13" points="451.7,370.9 456.3,461.9 478.8,478.5 485.2,516.3 430.1,487.6 421.8,463.4 		"/>
		<polygon class="st9" points="638.2,370.7 633.8,461.7 611.4,478.3 605.1,516.2 660.1,487.3 668.4,463.1 		"/>
		<path class="st13" d="M443.4,712.1c0,8.6-6.9,15.6-15.5,15.6c-8.6,0-15.6-6.9-15.6-15.5c0-8.6,6.9-15.6,15.5-15.6
			C436.4,696.6,443.4,703.5,443.4,712.1z"/>
		<path class="st13" d="M460.8,780.3c0,18.1-14.6,32.8-32.8,32.9c-18.1,0-32.8-14.6-32.9-32.8c0-18.1,14.6-32.8,32.8-32.9
			C446,747.5,460.7,762.1,460.8,780.3z"/>
		<path class="st13" d="M287,213.4c0,6.5-5.3,11.9-11.8,11.9c-6.5,0-11.9-5.3-11.9-11.8c0-6.5,5.3-11.9,11.8-11.9
			C281.7,201.6,287,206.9,287,213.4z"/>
		<g>
			<g>
				<g>
					<path class="st13" d="M150,292.2c1.3,0,2.3,1,2.3,2.3l0,0c0,1.3-1,2.3-2.3,2.3l-16.6,0c-1.3,0-2.3-1-2.3-2.3l0,0
						c0-1.3,1-2.3,2.3-2.3L150,292.2z"/>
					<path class="st13" d="M422.6,291.9c1.3,0,2.3,1,2.3,2.3l0,0c0,1.3-1,2.3-2.3,2.3l-16.6,0c-1.3,0-2.3-1-2.3-2.3l0,0
						c0-1.3,1-2.3,2.3-2.3L422.6,291.9z"/>
				</g>
				<g>
					<path class="st13" d="M280.1,166.4c0,1.3-1,2.3-2.3,2.3l0,0c-1.3,0-2.3-1-2.3-2.3l0-16.6c0-1.3,1-2.3,2.3-2.3l0,0
						c1.3,0,2.3,1,2.3,2.3L280.1,166.4z"/>
					<path class="st13" d="M280.5,439c0,1.3-1,2.3-2.3,2.3l0,0c-1.3,0-2.3-1-2.3-2.3l0-16.6c0-1.3,1-2.3,2.3-2.3l0,0
						c1.3,0,2.3,1,2.3,2.3L280.5,439z"/>
				</g>
			</g>
			<g>
				<g>
					<path class="st13" d="M213.4,404.9c0.6-1.1,2-1.5,3.1-0.9l0,0c1.1,0.6,1.5,2,0.9,3.1l-8.1,14.5c-0.6,1.1-2,1.5-3.1,0.9l0,0
						c-1.1-0.6-1.5-2-0.9-3.1L213.4,404.9z"/>
					<path class="st13" d="M346.7,167.1c0.6-1.1,2-1.5,3.1-0.9l0,0c1.1,0.6,1.5,2,0.9,3.1l-8.1,14.5c-0.6,1.1-2,1.5-3.1,0.9l0,0
						c-1.1-0.6-1.5-2-0.9-3.1L346.7,167.1z"/>
				</g>
				<g>
					<path class="st13" d="M167.4,229.8c1.1,0.6,1.5,2,0.9,3.1l0,0c-0.6,1.1-2,1.5-3.1,0.9l-14.5-8.1c-1.1-0.6-1.5-2-0.9-3.1l0,0
						c0.6-1.1,2-1.5,3.1-0.9L167.4,229.8z"/>
					<path class="st13" d="M405.3,363.1c1.1,0.6,1.5,2,0.9,3.1l0,0c-0.6,1.1-2,1.5-3.1,0.9l-14.5-8.1c-1.1-0.6-1.5-2-0.9-3.1l0,0
						c0.6-1.1,2-1.5,3.1-0.9L405.3,363.1z"/>
				</g>
			</g>
			<g>
				<g>
					<path class="st13" d="M348.5,401.2c-0.7-1.1-2.1-1.4-3.2-0.7l0,0c-1.1,0.7-1.4,2.1-0.7,3.2l8.9,14c0.7,1.1,2.1,1.4,3.2,0.7l0,0
						c1.1-0.7,1.4-2.1,0.7-3.2L348.5,401.2z"/>
					<path class="st13" d="M202.4,171c-0.7-1.1-2.1-1.4-3.2-0.7l0,0c-1.1,0.7-1.4,2.1-0.7,3.2l8.9,14c0.7,1.1,2.1,1.4,3.2,0.7l0,0
						c1.1-0.7,1.4-2.1,0.7-3.2L202.4,171z"/>
				</g>
				<g>
					<path class="st13" d="M384.8,223.9c-1.1,0.7-1.4,2.1-0.7,3.2l0,0c0.7,1.1,2.1,1.4,3.2,0.7l14-8.9c1.1-0.7,1.4-2.1,0.7-3.2l0,0
						c-0.7-1.1-2.1-1.4-3.2-0.7L384.8,223.9z"/>
					<path class="st13" d="M154.6,369.9c-1.1,0.7-1.4,2.1-0.7,3.2l0,0c0.7,1.1,2.1,1.4,3.2,0.7l14-8.9c1.1-0.7,1.4-2.1,0.7-3.2l0,0
						c-0.7-1.1-2.1-1.4-3.2-0.7L154.6,369.9z"/>
				</g>
			</g>
		</g>
	</g>
</g>
<g id="Layer_2" class="st0">
	<g class="st3">
		
			<ellipse transform="matrix(0.7071 -0.7071 0.7071 0.7071 -223.6751 540.0001)" class="st18" cx="540" cy="540" rx="527.1" ry="527.1"/>
		<path class="st19" d="M1050.1,673.3L565.5,188.7l-32.8,50.1l-10.7,149.8l-112.7,1.8v45.1l125.1,125.1l4,51.3l-75.7,186.2
			l-29.8,60.3l-81.6-10l-41.2-9.1L538,1067.1c0.7,0,1.3,0.1,2,0.1C785.1,1067.1,991,899.9,1050.1,673.3z"/>
		<g>
			<g>
				<g>
					<path class="st13" d="M752.7,699.2c1.5,0,2.8,1.2,2.8,2.8l0,0c0,1.5-1.2,2.8-2.8,2.8h-20c-1.5,0-2.8-1.2-2.8-2.8l0,0
						c0-1.5,1.2-2.8,2.8-2.8H752.7z"/>
					<path class="st13" d="M689.9,569.2c0.7-1.3,2.4-1.8,3.8-1.1l0,0c1.3,0.8,1.8,2.4,1.1,3.8l-9.8,17.4c-0.7,1.3-2.4,1.8-3.8,1.1
						l0,0c-1.3-0.8-1.8-2.4-1.1-3.8L689.9,569.2z"/>
					<path class="st13" d="M739.8,772.7c1.3,0.8,1.8,2.4,1.1,3.8l0,0c-0.8,1.3-2.4,1.8-3.8,1.1l-17.4-9.8c-1.3-0.8-1.8-2.4-1.1-3.8
						l0,0c0.8-1.3,2.4-1.8,3.8-1.1L739.8,772.7z"/>
					<path class="st13" d="M715.5,641.5c-1.3,0.8-1.7,2.5-0.9,3.8l0,0c0.8,1.3,2.5,1.7,3.8,0.9l16.9-10.7c1.3-0.8,1.7-2.5,0.9-3.8
						l0,0c-0.8-1.3-2.5-1.7-3.8-0.9L715.5,641.5z"/>
				</g>
				<g>
					<path class="st13" d="M324.2,699.2c-1.5,0-2.8,1.2-2.8,2.8l0,0c0,1.5,1.2,2.8,2.8,2.8h20c1.5,0,2.8-1.2,2.8-2.8l0,0
						c0-1.5-1.2-2.8-2.8-2.8H324.2z"/>
					<path class="st13" d="M387.1,569.2c-0.8-1.3-2.4-1.8-3.8-1.1l0,0c-1.3,0.8-1.8,2.4-1.1,3.8l9.8,17.4c0.8,1.3,2.4,1.8,3.8,1.1
						l0,0c1.3-0.8,1.8-2.4,1.1-3.8L387.1,569.2z"/>
					<path class="st13" d="M337.1,772.7c-1.3,0.8-1.8,2.4-1.1,3.8l0,0c0.8,1.3,2.4,1.8,3.8,1.1l17.4-9.8c1.3-0.8,1.8-2.4,1.1-3.8
						l0,0c-0.8-1.3-2.4-1.8-3.8-1.1L337.1,772.7z"/>
					<path class="st13" d="M361.4,641.5c1.3,0.8,1.7,2.5,0.9,3.8l0,0c-0.8,1.3-2.5,1.7-3.8,0.9l-16.9-10.7c-1.3-0.8-1.7-2.5-0.9-3.8
						l0,0c0.8-1.3,2.5-1.7,3.8-0.9L361.4,641.5z"/>
				</g>
			</g>
			<polygon class="st20" points="554.5,588 640.1,626.7 687.1,763.5 656.9,839.4 554.5,839.4 509,677.9 			"/>
			<polygon class="st21" points="310.3,839.4 769.7,839.4 714.9,902.6 653.4,881.7 577.9,961.9 459.7,873.7 397.8,917.9 			"/>
			<g>
				<g>
					<path class="st14" d="M565.5,253.4c17.9-17.9,17.9-46.8,0-64.7l-32.3,32.3L565.5,253.4z"/>
					<path class="st22" d="M565.5,188.7c-17.9-17.9-46.8-17.9-64.7,0l32.3,32.3L565.5,188.7z"/>
					<path class="st14" d="M500.8,188.7c-17.9,17.9-17.9,46.8,0,64.7l32.3-32.3L500.8,188.7z"/>
					<path class="st22" d="M533.2,221.1l-32.3,32.3c17.9,17.9,46.8,17.9,64.7,0L533.2,221.1z"/>
				</g>
				<rect x="492.9" y="403.5" class="st13" width="80.5" height="248.7"/>
				<rect x="533.2" y="403.5" class="st23" width="40.3" height="248.7"/>
				<rect x="438.5" y="373" class="st14" width="189.2" height="30.5"/>
				<rect x="505.5" y="257.4" class="st24" width="55.2" height="115.5"/>
				<rect x="438.5" y="388.2" class="st22" width="188.4" height="15.3"/>
				<polygon class="st14" points="409.4,435.6 456.8,388.2 409.4,388.2 				"/>
				<polygon class="st15" points="362,388.2 409.4,435.6 409.4,388.2 				"/>
				<polygon class="st15" points="456.8,388.2 409.4,340.8 409.4,388.2 				"/>
				<polygon class="st14" points="409.4,388.2 409.4,340.8 362,388.2 				"/>
				
					<rect x="388.2" y="367" transform="matrix(0.7071 -0.7071 0.7071 0.7071 -154.5894 403.2005)" class="st22" width="42.3" height="42.3"/>
				
					<rect x="394.5" y="373.2" transform="matrix(0.7071 -0.7071 0.7071 0.7071 -154.5895 403.1909)" class="st25" width="29.9" height="29.9"/>
				<polygon class="st24" points="388.3,388.2 430.6,388.2 409.4,367.1 				"/>
				<g>
					<polygon class="st14" points="609.5,388.2 656.9,435.6 656.9,388.2 					"/>
					<polygon class="st15" points="656.9,340.8 609.5,388.2 656.9,388.2 					"/>
					<polygon class="st15" points="656.9,435.6 704.3,388.2 656.9,388.2 					"/>
					<polygon class="st14" points="656.9,388.2 704.3,388.2 656.9,340.8 					"/>
					
						<rect x="635.7" y="367" transform="matrix(0.7071 -0.7071 0.7071 0.7071 -82.1087 578.1769)" class="st22" width="42.3" height="42.3"/>
					
						<rect x="641.9" y="373.2" transform="matrix(0.7071 -0.7071 0.7071 0.7071 -82.1074 578.182)" class="st25" width="29.9" height="29.9"/>
					<polygon class="st24" points="635.7,388.2 678,388.2 656.9,367.1 					"/>
				</g>
				<rect x="533.2" y="257.4" class="st25" width="27.6" height="115.5"/>
				<g>
					<rect x="505.5" y="355.8" class="st26" width="55.2" height="6.2"/>
					<rect x="505.5" y="338.3" class="st26" width="55.2" height="6.2"/>
					<rect x="505.5" y="320.8" class="st26" width="55.2" height="6.2"/>
					<rect x="505.5" y="303.4" class="st26" width="55.2" height="6.2"/>
					<rect x="505.5" y="285.9" class="st26" width="55.2" height="6.2"/>
					<rect x="505.5" y="268.4" class="st26" width="55.2" height="6.2"/>
				</g>
				<circle class="st13" cx="530.6" cy="194.4" r="9.1"/>
				<circle class="st13" cx="511.2" cy="215.8" r="13.5"/>
			</g>
			<polygon class="st27" points="577.9,961.9 524.9,839.4 310.3,839.4 397.8,917.9 459.7,873.7 			"/>
			<polygon class="st28" points="494.5,588 573.4,652.2 606.8,751.7 581.4,839.4 429.5,839.4 411.1,731.2 457.8,612.1 			"/>
			<path class="st13" d="M501.9,646.1c0,7.5-6,13.5-13.5,13.5c-7.5,0-13.5-6-13.5-13.5c0-7.5,6-13.5,13.5-13.5
				C495.8,632.6,501.9,638.7,501.9,646.1z"/>
			<path class="st13" d="M501.9,702.5c0,15.4-12.5,28-28,28c-15.4,0-28-12.5-28-28c0-15.4,12.5-28,28-28
				C489.3,674.5,501.9,687,501.9,702.5z"/>
		</g>
	</g>
</g>
<g id="Layer_3">
	<g>
		<circle class="st29" cx="540" cy="540" r="527.1"/>
		<path class="st19" d="M730.3,291.3L534.5,456.9L432.8,685.6l30.1,33l-99,60.4L642,1057.2c216-42.4,384.7-216.6,418.8-435.5
			L730.3,291.3z"/>
		<g>
			<path class="st30" d="M606.8,291.3H432.8h-42.7c-22.3,0-40.4,18.1-40.4,40.4v416.6c0,22.3,18.1,40.4,40.4,40.4h42.7h174.1h123.5
				V291.3H606.8z"/>
			<g>
				<g>
					<g>
						<path class="st13" d="M206.4,534c3.3,0,6,2.7,6,6l0,0c0,3.3-2.7,6-6,6h-43.3c-3.3,0-6-2.7-6-6l0,0c0-3.3,2.7-6,6-6H206.4z"/>
						<path class="st13" d="M916.9,534c3.3,0,6,2.7,6,6l0,0c0,3.3-2.7,6-6,6h-43.3c-3.3,0-6-2.7-6-6l0,0c0-3.3,2.7-6,6-6H916.9z"/>
					</g>
					<g>
						<path class="st13" d="M546,206.4c0,3.3-2.7,6-6,6l0,0c-3.3,0-6-2.7-6-6v-43.3c0-3.3,2.7-6,6-6l0,0c3.3,0,6,2.7,6,6V206.4z"/>
						<path class="st13" d="M546,916.9c0,3.3-2.7,6-6,6l0,0c-3.3,0-6-2.7-6-6v-43.3c0-3.3,2.7-6,6-6l0,0c3.3,0,6,2.7,6,6V916.9z"/>
					</g>
				</g>
				<g>
					<g>
						<path class="st13" d="M371.3,827.8c1.6-2.9,5.3-3.9,8.2-2.3l0,0c2.9,1.6,3.9,5.3,2.3,8.2l-21.2,37.7c-1.6,2.9-5.3,3.9-8.2,2.3
							l0,0c-2.9-1.6-3.9-5.3-2.3-8.2L371.3,827.8z"/>
						<path class="st13" d="M719.4,208.6c1.6-2.9,5.3-3.9,8.2-2.3l0,0c2.9,1.6,3.9,5.3,2.3,8.2l-21.2,37.7c-1.6,2.9-5.3,3.9-8.2,2.3
							l0,0c-2.9-1.6-3.9-5.3-2.3-8.2L719.4,208.6z"/>
					</g>
					<g>
						<path class="st13" d="M252.2,371.3c2.9,1.6,3.9,5.3,2.3,8.2l0,0c-1.6,2.9-5.3,3.9-8.2,2.3l-37.7-21.2
							c-2.9-1.6-3.9-5.3-2.3-8.2l0,0c1.6-2.9,5.3-3.9,8.2-2.3L252.2,371.3z"/>
						<path class="st13" d="M871.4,719.4c2.9,1.6,3.9,5.3,2.3,8.2l0,0c-1.6,2.9-5.3,3.9-8.2,2.3l-37.7-21.2
							c-2.9-1.6-3.9-5.3-2.3-8.2l0,0c1.6-2.9,5.3-3.9,8.2-2.3L871.4,719.4z"/>
					</g>
				</g>
				<g>
					<g>
						<path class="st13" d="M723.4,818.7c-1.8-2.8-5.5-3.6-8.3-1.9l0,0c-2.8,1.8-3.6,5.5-1.9,8.3l23.1,36.6c1.8,2.8,5.5,3.6,8.3,1.9
							l0,0c2.8-1.8,3.6-5.5,1.9-8.3L723.4,818.7z"/>
						<path class="st13" d="M343.6,218.3c-1.8-2.8-5.5-3.6-8.3-1.9l0,0c-2.8,1.8-3.6,5.5-1.9,8.3l23.1,36.6c1.8,2.8,5.5,3.6,8.3,1.9
							l0,0c2.8-1.8,3.6-5.5,1.9-8.3L343.6,218.3z"/>
					</g>
					<g>
						<path class="st13" d="M818.7,356.6c-2.8,1.8-3.6,5.5-1.9,8.3l0,0c1.8,2.8,5.5,3.6,8.3,1.9l36.6-23.1c2.8-1.8,3.6-5.5,1.9-8.3
							l0,0c-1.8-2.8-5.5-3.6-8.3-1.9L818.7,356.6z"/>
						<path class="st13" d="M218.3,736.4c-2.8,1.8-3.6,5.5-1.9,8.3l0,0c1.8,2.8,5.5,3.6,8.3,1.9l36.6-23.1c2.8-1.8,3.6-5.5,1.9-8.3
							l0,0c-1.8-2.8-5.5-3.6-8.3-1.9L218.3,736.4z"/>
					</g>
				</g>
			</g>
			<rect x="432.8" y="291.3" class="st25" width="20.2" height="497.5"/>
			<rect x="710.1" y="291.3" class="st25" width="20.2" height="426.7"/>
			<path class="st31" d="M432.8,291.3h-42.7c-22.3,0-40.4,18.1-40.4,40.4v416.6c0,22.3,18.1,40.4,40.4,40.4h42.7V291.3z"/>
			<rect x="395.9" y="291.3" class="st32" width="24.6" height="497.5"/>
			<path class="st23" d="M730.3,777.5V718H395.1c-16.4,0-29.8,13.3-29.8,29.8c0,16.4,13.3,29.8,29.8,29.8H730.3z"/>
			<path class="st13" d="M366.3,754.7c3.1,13.1,14.8,22.8,28.9,22.8h335.2v-45.6H395.1C381.1,731.9,369.4,741.7,366.3,754.7z"/>
			<rect x="649.5" y="777.5" class="st31" width="80.8" height="11.2"/>
			<polygon class="st33" points="491.3,788.7 516.9,814.3 516.9,738.5 465.7,738.5 465.7,814.3 			"/>
			<polygon class="st34" points="491.3,738.5 491.3,788.7 491.3,788.7 516.9,814.3 516.9,738.5 			"/>
			<path class="st32" d="M730.3,291.3h-80.8l12.9,12.9c-2.8,2.8-4.5,6.6-4.5,10.8c0,8.4,6.8,15.2,15.2,15.2c4.2,0,8-1.7,10.8-4.5
				l12.1,12.1c-2.8,2.8-4.5,6.6-4.5,10.8c0,8.4,6.8,15.2,15.2,15.2c4.2,0,8-1.7,10.8-4.5l12.9,12.9V291.3z"/>
			<path class="st31" d="M689.9,331.7l6,6c-2.8,2.8-4.5,6.6-4.5,10.8c0,8.4,6.8,15.2,15.2,15.2c4.2,0,8-1.7,10.8-4.5l12.9,12.9
				v-80.8L689.9,331.7L689.9,331.7z"/>
			<path class="st32" d="M730.3,718v-80.8L717.5,650c-2.8-2.8-6.6-4.5-10.8-4.5c-8.4,0-15.2,6.8-15.2,15.2c0,4.2,1.7,8,4.5,10.8
				l-12.1,12.1c-2.8-2.8-6.6-4.5-10.8-4.5c-8.4,0-15.2,6.8-15.2,15.2c0,4.2,1.7,8,4.5,10.8L649.5,718H730.3z"/>
			<path class="st31" d="M689.9,677.6l-6,6c-2.8-2.8-6.6-4.5-10.8-4.5c-8.4,0-15.2,6.8-15.2,15.2c0,4.2,1.7,8,4.5,10.8L649.5,718
				h80.8L689.9,677.6L689.9,677.6z"/>
			<path class="st35" d="M576,633.3c-6.1,0-11-5-11-11V471.1c-3.3,1.3-6.9,2-10.5,2c-16.5,0-29.8-13.4-29.8-29.8
				c0-14,9.7-25.8,22.8-29c-0.8-2.7-1.2-5.6-1.2-8.5c0-16.5,13.4-29.8,29.8-29.8c16.5,0,29.8,13.4,29.8,29.8c0,2.9-0.4,5.8-1.2,8.5
				c13.1,3.2,22.8,15,22.8,29c0,16.5-13.4,29.8-29.8,29.8c-3.6,0-7.2-0.7-10.5-2v99h18.1v-2.6H624v54.3h-18.9v-2.3H587v2.8
				C587,628.4,582.1,633.3,576,633.3z M597.5,430c-7.3,0-13.2,5.9-13.2,13.2c0,7.3,5.9,13.2,13.2,13.2c7.3,0,13.2-5.9,13.2-13.2
				C610.7,435.9,604.8,430,597.5,430z M554.4,430c-7.3,0-13.2,5.9-13.2,13.2c0,7.3,5.9,13.2,13.2,13.2s13.2-5.9,13.2-13.2
				C567.7,435.9,561.7,430,554.4,430z M576,392.5c-7.3,0-13.2,5.9-13.2,13.2c0,7.3,5.9,13.2,13.2,13.2c7.3,0,13.2-5.9,13.2-13.2
				C589.2,398.4,583.3,392.5,576,392.5z"/>
			<g>
				<path class="st32" d="M581.4,622.3c0,3-2.4,5.5-5.5,5.5l0,0c-3,0-5.5-2.4-5.5-5.5V459.5c0-3,2.4-5.5,5.5-5.5l0,0
					c3,0,5.5,2.4,5.5,5.5V622.3z"/>
				<path class="st31" d="M581.4,622.3V459.5c0-3-2.4-5.5-5.5-5.5v173.7C579,627.8,581.4,625.3,581.4,622.3z"/>
				<path class="st32" d="M579,430.6c0,1.4-1.1,2.5-2.5,2.5c-1.4,0-2.5-1.1-2.5-2.5c0-1.4,1.1-2.5,2.5-2.5
					C577.9,428.1,579,429.2,579,430.6z"/>
				<g>
					<path class="st32" d="M530.2,443.2c0,13.4,10.9,24.3,24.3,24.3c13.4,0,24.3-10.9,24.3-24.3c0-13.4-10.9-24.3-24.3-24.3
						C541.1,419,530.2,429.9,530.2,443.2z M532.9,443.2c0-11.9,9.6-21.5,21.5-21.5c11.9,0,21.5,9.6,21.5,21.5
						c0,11.9-9.6,21.5-21.5,21.5C542.5,464.8,532.9,455.1,532.9,443.2z"/>
				</g>
				<g>
					<path class="st31" d="M532.9,443.2c0,11.9,9.6,21.5,21.5,21.5c11.9,0,21.5-9.6,21.5-21.5c0-11.9-9.6-21.5-21.5-21.5
						C542.5,421.7,532.9,431.3,532.9,443.2z M535.6,443.2c0-10.4,8.4-18.8,18.8-18.8c10.4,0,18.8,8.4,18.8,18.8
						c0,10.4-8.4,18.8-18.8,18.8C544.1,462,535.6,453.6,535.6,443.2z"/>
				</g>
				<g>
					<path class="st32" d="M573.3,443.2c0,13.4,10.9,24.3,24.3,24.3c13.4,0,24.3-10.9,24.3-24.3c0-13.4-10.9-24.3-24.3-24.3
						C584.1,419,573.3,429.9,573.3,443.2z M576,443.2c0-11.9,9.6-21.5,21.5-21.5c11.9,0,21.5,9.6,21.5,21.5
						c0,11.9-9.6,21.5-21.5,21.5C585.6,464.8,576,455.1,576,443.2z"/>
				</g>
				<g>
					<path class="st31" d="M576,443.2c0,11.9,9.6,21.5,21.5,21.5c11.9,0,21.5-9.6,21.5-21.5c0-11.9-9.6-21.5-21.5-21.5
						C585.6,421.7,576,431.3,576,443.2z M578.7,443.2c0-10.4,8.4-18.8,18.8-18.8c10.4,0,18.8,8.4,18.8,18.8
						c0,10.4-8.4,18.8-18.8,18.8C587.1,462,578.7,453.6,578.7,443.2z"/>
				</g>
				<g>
					<path class="st32" d="M551.7,405.7c0,13.4,10.9,24.3,24.3,24.3c13.4,0,24.3-10.9,24.3-24.3c0-13.4-10.9-24.3-24.3-24.3
						C562.6,381.5,551.7,392.4,551.7,405.7z M554.5,405.7c0-11.9,9.6-21.5,21.5-21.5c11.9,0,21.5,9.6,21.5,21.5
						c0,11.9-9.6,21.5-21.5,21.5C564.1,427.3,554.5,417.6,554.5,405.7z"/>
				</g>
				<g>
					<path class="st31" d="M554.5,405.7c0,11.9,9.6,21.5,21.5,21.5c11.9,0,21.5-9.6,21.5-21.5c0-11.9-9.6-21.5-21.5-21.5
						C564.1,384.2,554.5,393.8,554.5,405.7z M557.2,405.7c0-10.4,8.4-18.8,18.8-18.8c10.4,0,18.8,8.4,18.8,18.8
						c0,10.4-8.4,18.8-18.8,18.8C565.6,424.5,557.2,416.1,557.2,405.7z"/>
				</g>
				<g>
					<path class="st31" d="M610.7,573.1v2.6h-29.3v38.2h29.3v2.3h7.7v-2.3v-13.3v-2.6h-7.7v2.6h-7.6V589h7.6v2.3h7.7V589v-13.3v-2.6
						H610.7z M592.9,600.1c-3,0-5.5-2.4-5.5-5.5c0-3,2.4-5.5,5.5-5.5c3,0,5.5,2.4,5.5,5.5C598.3,597.7,595.9,600.1,592.9,600.1z"/>
				</g>
				<path class="st32" d="M598.3,594.7c0,3-2.5,5.5-5.5,5.5c-3,0-5.5-2.4-5.5-5.5h-6v19.2h29.3v2.3h7.7v-2.3v-13.3v-2.6h-7.7v2.6
					h-7.6v-6H598.3z"/>
			</g>
			<path class="st13" d="M514.1,342.7c0,10.5-8.5,19-19,19c-10.5,0-19-8.5-19-19c0-10.5,8.5-19,19-19
				C505.7,323.7,514.1,332.2,514.1,342.7z"/>
			<path class="st13" d="M505.3,394.9c0,5.6-4.5,10.1-10.1,10.1c-5.6,0-10.1-4.5-10.1-10.1c0-5.6,4.5-10.1,10.1-10.1
				C500.8,384.8,505.3,389.3,505.3,394.9z"/>
		</g>
	</g>
</g>
</svg>
