<?xml version="1.0" encoding="utf-8"?>
<!-- Generator: Adobe Illustrator 24.0.1, SVG Export Plug-In . SVG Version: 6.00 Build 0)  -->
<svg version="1.1" id="Layer_1" xmlns="http://www.w3.org/2000/svg" xmlns:xlink="http://www.w3.org/1999/xlink" x="0px" y="0px"
	 viewBox="0 0 1080 1080" style="enable-background:new 0 0 1080 1080;" xml:space="preserve">
<style type="text/css">
	.st0{fill:#8DD0FB;}
	.st1{fill:#44A7D8;}
	.st2{fill:#6662D8;}
	.st3{fill:#5240C1;}
	.st4{fill:#FFBE29;}
	.st5{fill:#F59A1D;}
	.st6{fill:#D1D1D1;}
	.st7{fill:#E2E2E2;}
	.st8{fill:#F4B887;}
	.st9{fill:#FDD5B1;}
	.st10{fill:#4B342E;}
	.st11{fill:#FFFFFF;}
	.st12{fill:#FFC31A;}
	.st13{fill:#FF8F00;}
	.st14{opacity:0.3;fill:#231F20;}
	.st15{fill:#FADABD;}
</style>
<ellipse transform="matrix(0.7071 -0.7071 0.7071 0.7071 -223.7738 540.2405)" class="st0" cx="540.2" cy="540.2" rx="526.9" ry="526.9"/>
<path class="st1" d="M1058.1,636.9L619.7,198.5l-80.1,120.8l-68.9,147.2l-10,110.3l10.6,41.6l81.5,134.1l2.9,2.3
	c-77.3,52.8-154.6,105.5-231.9,158.3c60.8,50.9,121.7,101.8,182.5,152.8c11.2,0.7,22.5,1.2,33.8,1.2
	C798.2,1067.1,1012.7,881.7,1058.1,636.9z"/>
<g>
	<g>
		<polygon class="st2" points="190.6,298.3 294,390.9 235.4,272.6 		"/>
		<polygon class="st3" points="235.4,272.6 277.9,267.1 294,390.9 		"/>
		<polygon class="st3" points="370.4,275 294,390.9 320.5,261.6 		"/>
		<polygon class="st2" points="320.5,261.6 277.9,267.1 294,390.9 		"/>
		<polygon class="st2" points="235.4,272.6 277.9,267.1 273,229 		"/>
		<polygon class="st3" points="320.5,261.6 277.9,267.1 273,229 		"/>
		<polygon class="st3" points="190.6,298.3 273,229 235.4,272.6 		"/>
		<polygon class="st2" points="370.4,275 273,229 320.5,261.6 		"/>
		<path class="st4" d="M295.5,211.4c1.8,13.5-7.8,25.8-21.3,27.6c-13.5,1.8-25.8-7.8-27.6-21.3c-1.8-13.5,7.8-25.8,21.3-27.6
			C281.4,188.4,293.8,197.9,295.5,211.4z"/>
		<path class="st5" d="M295.5,211.4c-1.8-13.5-14.1-23-27.6-21.3l6.3,48.9C287.8,237.2,297.3,224.9,295.5,211.4z"/>
	</g>
	<polygon class="st2" points="437.8,308.8 500.4,131.1 792.1,219.5 838.2,175.5 879.3,272.8 825.5,242.1 805.1,292.1 637.2,246.2 
		660.5,310.9 	"/>
	<path class="st3" d="M797.3,269.5L596.4,221c0,0-13.4,52.2-21.9,89.1l86,0.8l-23.3-64.7l167.8,45.9l20.4-50l53.8,30.7l-47.5-59.7
		L797.3,269.5z"/>
	<path class="st6" d="M662.2,329.9c-1,3.3,62.6,161.3,62.6,161.3l-98-16.2L620,329.5L662.2,329.9z"/>
	<polygon class="st3" points="617.2,452.4 740.2,478.1 767.7,912.2 545.7,912.5 545.1,482.2 	"/>
	<path class="st7" d="M427.7,330.3c1,3.3-62.2,161.5-62.2,161.5l97.9-16.4l6.5-145.6L427.7,330.3z"/>
	<polygon class="st2" points="473,452.6 350.1,478.7 323.7,912.8 545.7,912.5 545.1,482.2 	"/>
	<path class="st8" d="M544.9,311l0.3,199.4c0,0,103.3,3.2,103.2-33.6c0-36.7-17.1-159.9-17.1-159.9L544.9,311z"/>
	<path class="st9" d="M544.9,311l0.3,199.4c0,0-103.3,3.4-103.3-33.3c0-36.7,16.7-159.9,16.7-159.9L544.9,311z"/>
	<path class="st10" d="M522.1,393.6c-0.6,2.4-3.1,3.8-5.5,3.2l-34-9.1c-2.4-0.6-3.8-3.1-3.2-5.5l0,0c0.6-2.4,3.1-3.8,5.5-3.2l34,9.1
		C521.3,388.7,522.7,391.2,522.1,393.6L522.1,393.6z"/>
	<path class="st11" d="M536.2,384.7c-1.1,4.3-5.5,6.8-9.8,5.7l-60.7-16.3c-4.3-1.1-6.8-5.5-5.7-9.8l0,0c1.1-4.3,5.5-6.8,9.8-5.7
		l60.7,16.3C534.8,376,537.4,380.4,536.2,384.7L536.2,384.7z"/>
	<path class="st11" d="M553.8,384.7c1.2,4.3,5.5,6.8,9.8,5.6l60.7-16.4c4.3-1.2,6.8-5.6,5.6-9.8l0,0c-1.2-4.3-5.5-6.8-9.8-5.6
		l-60.7,16.4C555.2,376,552.7,380.4,553.8,384.7L553.8,384.7z"/>
	<path class="st7" d="M545.1,471.2l-44.2,27.6c0,0-12.7,64.4-12.6,141.1c0.1,76.7,57.2,133.9,57.2,133.9L545.1,471.2z"/>
	<path class="st11" d="M545.1,447.7l-35.6,0l-30.7,30.8c0,0,0.1,93.2,0.2,128.7c0,35.5,33.3,60.5,33.3,60.5s-0.1-101.6-0.2-131
		c0-29.4,13.1-45.1,33.1-45.2C545.1,461.1,545.1,447.7,545.1,447.7z"/>
	<path class="st10" d="M568,393.5c0.6,2.4,3.1,3.8,5.5,3.2l34-9.2c2.4-0.6,3.8-3.1,3.2-5.5l0,0c-0.6-2.4-3.1-3.8-5.5-3.2l-34,9.2
		C568.7,388.7,567.3,391.1,568,393.5L568,393.5z"/>
	<path class="st6" d="M545.1,471.2l44.3,27.5c0,0,12.8,64.4,12.9,141.1c0.1,76.7-56.8,134.1-56.8,134.1L545.1,471.2z"/>
	<path class="st7" d="M545.1,447.7l35.6,0l30.8,30.7c0,0,0.1,93.2,0.2,128.7c0,35.5-33.1,60.5-33.1,60.5s-0.1-101.6-0.2-131
		c0-29.4-13.2-45.1-33.2-45.1C545.1,461.1,545.1,447.7,545.1,447.7z"/>
	<path class="st12" d="M656.6,297.8l-223.3,0.3c-11.9,0-21.4,9.6-21.4,21.5l266.2-0.3C678,307.3,668.4,297.7,656.6,297.8z"/>
	<path class="st13" d="M411.8,319.5c0,11.9,9.6,21.4,21.5,21.4l223.3-0.3c11.9,0,21.4-9.6,21.4-21.5L411.8,319.5z"/>
	<path class="st10" d="M353.8,908.6c-7.7,0-14.3-5.7-15.3-13.6l-60.9-514.2c-1-8.4,5-16.1,13.5-17.1c8.4-1,16.1,5,17.1,13.5
		l60.9,514.2c1,8.4-5,16.1-13.5,17.1C355,908.6,354.4,908.6,353.8,908.6z"/>
	<path class="st14" d="M703.9,756c-2.9,0-5.4-2.2-5.7-5.1L677,572.2c-0.4-3.2,1.9-6,5-6.4c3.2-0.4,6,1.9,6.4,5l21.1,178.6
		c0.4,3.2-1.9,6-5,6.4C704.3,755.9,704.1,756,703.9,756z"/>
	<path class="st15" d="M365.6,583.7c0,28.1-22.7,50.9-50.8,51c-28.1,0-50.9-22.7-51-50.8c0-28.1,22.7-50.9,50.8-51
		S365.5,555.6,365.6,583.7z"/>
	<path class="st15" d="M786.9,747c0,28.1-22.7,50.9-50.8,51c-28.1,0-50.9-22.7-51-50.8c0-28.1,22.7-50.9,50.8-51
		S786.9,718.9,786.9,747z"/>
	<polygon class="st11" points="451.7,370.9 456.3,461.9 478.8,478.5 485.2,516.3 430.1,487.6 421.8,463.4 	"/>
	<polygon class="st7" points="638.2,370.7 633.8,461.7 611.4,478.3 605.1,516.2 660.1,487.3 668.4,463.1 	"/>
	<path class="st11" d="M443.4,712.1c0,8.6-6.9,15.6-15.5,15.6c-8.6,0-15.6-6.9-15.6-15.5c0-8.6,6.9-15.6,15.5-15.6
		C436.4,696.6,443.4,703.5,443.4,712.1z"/>
	<path class="st11" d="M460.8,780.3c0,18.1-14.6,32.8-32.8,32.9c-18.1,0-32.8-14.6-32.9-32.8c0-18.1,14.6-32.8,32.8-32.9
		C446,747.5,460.7,762.1,460.8,780.3z"/>
	<path class="st11" d="M287,213.4c0,6.5-5.3,11.9-11.8,11.9c-6.5,0-11.9-5.3-11.9-11.8c0-6.5,5.3-11.9,11.8-11.9
		C281.7,201.6,287,206.9,287,213.4z"/>
	<g>
		<g>
			<g>
				<path class="st11" d="M150,292.2c1.3,0,2.3,1,2.3,2.3l0,0c0,1.3-1,2.3-2.3,2.3l-16.6,0c-1.3,0-2.3-1-2.3-2.3l0,0
					c0-1.3,1-2.3,2.3-2.3L150,292.2z"/>
				<path class="st11" d="M422.6,291.9c1.3,0,2.3,1,2.3,2.3l0,0c0,1.3-1,2.3-2.3,2.3l-16.6,0c-1.3,0-2.3-1-2.3-2.3l0,0
					c0-1.3,1-2.3,2.3-2.3L422.6,291.9z"/>
			</g>
			<g>
				<path class="st11" d="M280.1,166.4c0,1.3-1,2.3-2.3,2.3l0,0c-1.3,0-2.3-1-2.3-2.3l0-16.6c0-1.3,1-2.3,2.3-2.3l0,0
					c1.3,0,2.3,1,2.3,2.3L280.1,166.4z"/>
				<path class="st11" d="M280.5,439c0,1.3-1,2.3-2.3,2.3l0,0c-1.3,0-2.3-1-2.3-2.3l0-16.6c0-1.3,1-2.3,2.3-2.3l0,0
					c1.3,0,2.3,1,2.3,2.3L280.5,439z"/>
			</g>
		</g>
		<g>
			<g>
				<path class="st11" d="M213.4,404.9c0.6-1.1,2-1.5,3.1-0.9l0,0c1.1,0.6,1.5,2,0.9,3.1l-8.1,14.5c-0.6,1.1-2,1.5-3.1,0.9l0,0
					c-1.1-0.6-1.5-2-0.9-3.1L213.4,404.9z"/>
				<path class="st11" d="M346.7,167.1c0.6-1.1,2-1.5,3.1-0.9l0,0c1.1,0.6,1.5,2,0.9,3.1l-8.1,14.5c-0.6,1.1-2,1.5-3.1,0.9l0,0
					c-1.1-0.6-1.5-2-0.9-3.1L346.7,167.1z"/>
			</g>
			<g>
				<path class="st11" d="M167.4,229.8c1.1,0.6,1.5,2,0.9,3.1l0,0c-0.6,1.1-2,1.5-3.1,0.9l-14.5-8.1c-1.1-0.6-1.5-2-0.9-3.1l0,0
					c0.6-1.1,2-1.5,3.1-0.9L167.4,229.8z"/>
				<path class="st11" d="M405.3,363.1c1.1,0.6,1.5,2,0.9,3.1l0,0c-0.6,1.1-2,1.5-3.1,0.9l-14.5-8.1c-1.1-0.6-1.5-2-0.9-3.1l0,0
					c0.6-1.1,2-1.5,3.1-0.9L405.3,363.1z"/>
			</g>
		</g>
		<g>
			<g>
				<path class="st11" d="M348.5,401.2c-0.7-1.1-2.1-1.4-3.2-0.7l0,0c-1.1,0.7-1.4,2.1-0.7,3.2l8.9,14c0.7,1.1,2.1,1.4,3.2,0.7l0,0
					c1.1-0.7,1.4-2.1,0.7-3.2L348.5,401.2z"/>
				<path class="st11" d="M202.4,171c-0.7-1.1-2.1-1.4-3.2-0.7l0,0c-1.1,0.7-1.4,2.1-0.7,3.2l8.9,14c0.7,1.1,2.1,1.4,3.2,0.7l0,0
					c1.1-0.7,1.4-2.1,0.7-3.2L202.4,171z"/>
			</g>
			<g>
				<path class="st11" d="M384.8,223.9c-1.1,0.7-1.4,2.1-0.7,3.2l0,0c0.7,1.1,2.1,1.4,3.2,0.7l14-8.9c1.1-0.7,1.4-2.1,0.7-3.2l0,0
					c-0.7-1.1-2.1-1.4-3.2-0.7L384.8,223.9z"/>
				<path class="st11" d="M154.6,369.9c-1.1,0.7-1.4,2.1-0.7,3.2l0,0c0.7,1.1,2.1,1.4,3.2,0.7l14-8.9c1.1-0.7,1.4-2.1,0.7-3.2l0,0
					c-0.7-1.1-2.1-1.4-3.2-0.7L154.6,369.9z"/>
			</g>
		</g>
	</g>
</g>
</svg>
