<?xml version="1.0" encoding="utf-8"?>
<!-- Generator: Adobe Illustrator 24.0.1, SVG Export Plug-In . SVG Version: 6.00 Build 0)  -->
<svg version="1.1" id="Layer_1" xmlns="http://www.w3.org/2000/svg" xmlns:xlink="http://www.w3.org/1999/xlink" x="0px" y="0px"
	 viewBox="0 0 1920 655.1" style="enable-background:new 0 0 1920 655.1;" xml:space="preserve">
<style type="text/css">
	.st0{fill:#FFFFFF;}
	.st1{opacity:0.2;fill:#231F20;}
	.st2{fill:#97BA04;}
	.st3{fill:#DDDDDD;}
	.st4{fill:#BABABA;}
	.st5{fill:#FF81C0;}
	.st6{fill:#F34282;}
	.st7{fill:#FFC31A;}
	.st8{fill:#FF8F00;}
	.st9{fill:#A29ED2;}
	.st10{fill:#787791;}
	.st11{fill:#494949;}
	.st12{fill:#707070;}
	.st13{fill:#8E8E8E;}
	.st14{opacity:0.5;fill:#FFFFFF;}
	.st15{fill:#8DD0FB;}
	.st16{fill:#3FAEF3;}
	.st17{fill:#FFBE29;}
	.st18{fill:#F59A1D;}
	.st19{fill:#6662D8;}
	.st20{fill:#5240C1;}
	.st21{fill:#D1D1D1;}
	.st22{fill:#E2E2E2;}
	.st23{fill:#F4B887;}
	.st24{fill:#FDD5B1;}
	.st25{fill:#4B342E;}
	.st26{opacity:0.3;fill:#231F20;}
	.st27{fill:#FADABD;}
	.st28{fill:#5444B0;}
	.st29{fill:#6663D5;}
	.st30{fill:#D13374;}
	.st31{opacity:0.2;fill:#441122;}
	.st32{fill:#FFA6D7;}
	.st33{fill:#FF92D3;}
	.st34{fill:#2D2768;}
	.st35{fill:#663C35;}
	.st36{fill-rule:evenodd;clip-rule:evenodd;fill:#E29F6D;}
	.st37{fill-rule:evenodd;clip-rule:evenodd;fill:#F34282;}
	.st38{fill-rule:evenodd;clip-rule:evenodd;fill:#FF81C0;}
	.st39{fill:#BA2C40;}
	.st40{fill:#F94D5C;}
	.st41{fill:#7ECCED;}
	.st42{fill:#27AAE1;}
	.st43{fill:#7D7BAE;}
	.st44{fill:#575586;}
	.st45{fill:#FE7E45;}
	.st46{fill:#D95922;}
	.st47{fill:#E9E1EA;}
	.st48{opacity:0.6;fill:#FFFFFF;}
	.st49{fill:#744C27;}
	.st50{fill:#A0A0A0;}
	.st51{fill:#FF4D36;}
	.st52{fill:#DD3146;}
	.st53{fill:#D17820;}
	.st54{fill:#AF6313;}
	.st55{fill:#5B3F2A;}
	.st56{fill:#EE3D44;}
	.st57{fill-rule:evenodd;clip-rule:evenodd;fill:#E62C2F;}
	.st58{fill-rule:evenodd;clip-rule:evenodd;fill:#F34839;}
	.st59{fill:#E2EA36;}
	.st60{fill:#EFE741;}
	.st61{fill:#95A30A;}
	.st62{opacity:0.3;fill:#441122;}
	.st63{fill:#4F3421;}
	.st64{fill:#724C1E;}
	.st65{fill:#FF9D00;}
	.st66{fill-rule:evenodd;clip-rule:evenodd;fill:#97BA04;}
	.st67{fill:#172633;}
	.st68{fill-rule:evenodd;clip-rule:evenodd;fill:#6663D5;}
	.st69{fill:#C92742;}
	.st70{opacity:0.2;}
	.st71{fill:#231F20;}
	.st72{fill:#472F22;}
</style>
<g>
	<g>
		<rect x="1452.8" y="437.6" class="st0" width="36" height="101"/>
		<rect x="1484.2" y="447.3" class="st1" width="4.9" height="75.2"/>
		<path class="st2" d="M1255.3,539.9c0,17.1-13.9,31-31,31c-17.1,0-31-13.9-31-31c0-17.1,13.9-31,31-31
			C1241.4,508.8,1255.3,522.7,1255.3,539.9z"/>
		<circle class="st2" cx="1492.8" cy="572.1" r="31"/>
		<path class="st3" d="M1243.7,189.5c0,0.8-0.7,1.5-1.5,1.5l0,0c-0.8,0-1.5-0.7-1.5-1.5v-74.8c0-0.8,0.7-1.5,1.5-1.5l0,0
			c0.8,0,1.5,0.7,1.5,1.5V189.5z"/>
		<rect x="1307.6" y="218.1" class="st3" width="74.6" height="265.5"/>
		<rect x="1275.6" y="470.9" class="st4" width="93.5" height="70.9"/>
		<polygon class="st1" points="1275.6,541.7 1369.1,541.7 1369.1,503.2 1350.5,503.2 1350.5,520.4 1319.1,520.4 1319.1,503.2 
			1291.1,503.2 1291.1,520.4 1275.6,520.4 		"/>
		<rect x="1369.1" y="356.1" class="st0" width="61.2" height="185.6"/>
		<rect x="1224.2" y="385.6" class="st0" width="36" height="156.2"/>
		<polygon class="st3" points="1489.7,526.1 1489.7,508.8 1461.8,508.8 1461.8,526.1 1430.4,526.1 1430.4,508.8 1402.4,508.8 
			1402.4,526.1 1371,526.1 1371,508.8 1343,508.8 1343,526.1 1311.6,526.1 1311.6,508.8 1283.6,508.8 1283.6,526.1 1252.2,526.1 
			1252.2,508.8 1224.2,508.8 1224.2,590 1224.2,590 1224.2,590 1311.6,590 1311.6,628.9 1489.7,628.9 1489.7,590 1489.7,576.2 
			1489.7,526.1 		"/>
		<polygon class="st5" points="1211,385.6 1242.2,385.6 1242.2,183.6 		"/>
		<polygon class="st6" points="1273.3,385.6 1242.2,385.6 1242.2,183.6 		"/>
		<path class="st7" d="M1232.9,188c0,5.1,4.2,9.3,9.3,9.3v-18.6C1237.1,178.7,1232.9,182.8,1232.9,188z"/>
		<path class="st8" d="M1242.2,197.3c5.1,0,9.3-4.2,9.3-9.3c0-5.1-4.2-9.3-9.3-9.3V197.3z"/>
		<polygon class="st7" points="1240.7,115.9 1201.4,127.4 1240.7,127.4 		"/>
		<polygon class="st8" points="1240.7,138.9 1201.4,127.4 1240.7,127.4 		"/>
		<path class="st3" d="M1472.6,310.1c0,0.8-0.7,1.5-1.5,1.5l0,0c-0.8,0-1.5-0.7-1.5-1.5v-74.8c0-0.8,0.7-1.5,1.5-1.5l0,0
			c0.8,0,1.5,0.7,1.5,1.5V310.1z"/>
		<polygon class="st5" points="1445,440.8 1471.1,440.8 1471.1,297.8 		"/>
		<polygon class="st6" points="1497.3,440.8 1471.1,440.8 1471.1,297.8 		"/>
		<path class="st7" d="M1461.8,308.6c0,5.1,4.2,9.3,9.3,9.3v-18.6C1466,299.3,1461.8,303.4,1461.8,308.6z"/>
		<path class="st8" d="M1471.1,317.9c5.1,0,9.3-4.2,9.3-9.3c0-5.1-4.2-9.3-9.3-9.3V317.9z"/>
		<polygon class="st7" points="1469.6,236.5 1430.4,248 1469.6,248 		"/>
		<polygon class="st8" points="1469.6,259.5 1430.4,248 1469.6,248 		"/>
		<path class="st3" d="M1346.9,76.5c0,0.8-0.7,1.5-1.5,1.5l0,0c-0.8,0-1.5-0.7-1.5-1.5V1.8c0-0.8,0.7-1.5,1.5-1.5l0,0
			c0.8,0,1.5,0.7,1.5,1.5V76.5z"/>
		<polygon class="st5" points="1292.9,218.1 1345.4,218.1 1345.4,74.3 		"/>
		<polygon class="st6" points="1397.8,218.1 1345.4,218.1 1345.4,74.3 		"/>
		<path class="st7" d="M1336.1,75c0,5.1,4.2,9.3,9.3,9.3V65.7C1340.2,65.7,1336.1,69.8,1336.1,75z"/>
		<path class="st8" d="M1345.4,84.3c5.1,0,9.3-4.2,9.3-9.3c0-5.1-4.2-9.3-9.3-9.3V84.3z"/>
		<polygon class="st7" points="1343.9,2.8 1304.6,14.3 1343.9,14.3 		"/>
		<polygon class="st8" points="1343.9,25.8 1304.6,14.3 1343.9,14.3 		"/>
		<polygon class="st9" points="1107.5,594.9 1223,539.9 1246.8,558 1178.8,623.3 		"/>
		<polygon class="st10" points="1498.1,636.5 1509,617.6 1489.7,590 1453.8,610.7 1408.5,610.7 1417.4,636.5 		"/>
		<path class="st9" d="M1604.1,632.7c-2.5,0-114.4-60.5-114.4-60.5V590l19.2,27.6L1604.1,632.7z"/>
		<polygon class="st5" points="1369.1,440.8 1307.6,440.8 1265.7,470.9 1369.1,470.9 		"/>
		<path class="st11" d="M1373.5,578.1L1373.5,578.1c0-13.2-10.7-23.8-23.9-23.8c-12.9,0-23.4,10.3-23.8,23.2h0v0.4
			c0,0.1,0,0.2,0,0.3h0l0,0h0l0,11.2v0.7l0,0l0,0v23h47.7v-23L1373.5,578.1z"/>
		<path class="st12" d="M1292.5,482.7L1292.5,482.7c0-2-1.6-3.7-3.7-3.7c-2,0-3.6,1.6-3.6,3.6h0v0.1c0,0,0,0,0,0h0l0,0h0l0,1.7v0.1
			l0,0l0,0v3.5h7.3v-3.5L1292.5,482.7z"/>
		<path class="st12" d="M1307.6,482.7L1307.6,482.7c0-2-1.6-3.7-3.7-3.7c-2,0-3.6,1.6-3.6,3.6h0v0.1c0,0,0,0,0,0h0l0,0h0l0,1.7v0.1
			l0,0l0,0v3.5h7.3v-3.5L1307.6,482.7z"/>
		<path class="st12" d="M1322.8,482.7L1322.8,482.7c0-2-1.6-3.7-3.7-3.7c-2,0-3.6,1.6-3.6,3.6h0v0.1c0,0,0,0,0,0h0l0,0h0l0,1.7v0.1
			l0,0l0,0v3.5h7.3v-3.5L1322.8,482.7z"/>
		<path class="st12" d="M1338,482.7L1338,482.7c0-2-1.6-3.7-3.7-3.7c-2,0-3.6,1.6-3.6,3.6h0v0.1c0,0,0,0,0,0h0l0,0h0l0,1.7v0.1l0,0
			l0,0v3.5h7.3v-3.5L1338,482.7z"/>
		<g>
			<path class="st12" d="M1325.9,236.8L1325.9,236.8c0-2-1.6-3.7-3.7-3.7c-2,0-3.6,1.6-3.6,3.6h0v0.1c0,0,0,0,0,0h0l0,0h0l0,1.7v0.1
				l0,0l0,0v3.5h7.3v-3.5L1325.9,236.8z"/>
			<path class="st12" d="M1341,236.8L1341,236.8c0-2-1.6-3.7-3.7-3.7c-2,0-3.6,1.6-3.6,3.6h0v0.1c0,0,0,0,0,0h0l0,0h0l0,1.7v0.1l0,0
				l0,0v3.5h7.3v-3.5L1341,236.8z"/>
			<path class="st12" d="M1356.2,236.8L1356.2,236.8c0-2-1.6-3.7-3.7-3.7c-2,0-3.6,1.6-3.6,3.6h0v0.1c0,0,0,0,0,0h0l0,0h0l0,1.7v0.1
				l0,0l0,0v3.5h7.3v-3.5L1356.2,236.8z"/>
			<path class="st12" d="M1371.4,236.8L1371.4,236.8c0-2-1.6-3.7-3.7-3.7c-2,0-3.6,1.6-3.6,3.6h0v0.1c0,0,0,0,0,0h0l0,0h0l0,1.7v0.1
				l0,0l0,0v3.5h7.3v-3.5L1371.4,236.8z"/>
		</g>
		<path class="st12" d="M1325.9,260.3L1325.9,260.3c0-2-1.6-3.7-3.7-3.7c-2,0-3.6,1.6-3.6,3.6h0v0.1c0,0,0,0,0,0h0l0,0h0l0,1.7v0.1
			l0,0l0,0v3.5h7.3v-3.5L1325.9,260.3z"/>
		<path class="st13" d="M1341,260.3L1341,260.3c0-2-1.6-3.7-3.7-3.7c-2,0-3.6,1.6-3.6,3.6h0v0.1c0,0,0,0,0,0h0l0,0h0l0,1.7v0.1l0,0
			l0,0v3.5h7.3v-3.5L1341,260.3z"/>
		<path class="st12" d="M1356.2,260.3L1356.2,260.3c0-2-1.6-3.7-3.7-3.7c-2,0-3.6,1.6-3.6,3.6h0v0.1c0,0,0,0,0,0h0l0,0h0l0,1.7v0.1
			l0,0l0,0v3.5h7.3v-3.5L1356.2,260.3z"/>
		<path class="st12" d="M1371.4,260.3L1371.4,260.3c0-2-1.6-3.7-3.7-3.7c-2,0-3.6,1.6-3.6,3.6h0v0.1c0,0,0,0,0,0h0l0,0h0l0,1.7v0.1
			l0,0l0,0v3.5h7.3v-3.5L1371.4,260.3z"/>
		<g>
			<path class="st13" d="M1388.2,380.2L1388.2,380.2c0-2-1.6-3.7-3.7-3.7c-2,0-3.6,1.6-3.6,3.6h0v0.1c0,0,0,0,0,0h0l0,0h0l0,1.7v0.1
				l0,0l0,0v3.5h7.3V382L1388.2,380.2z"/>
			<path class="st13" d="M1403.4,380.2L1403.4,380.2c0-2-1.6-3.7-3.7-3.7c-2,0-3.6,1.6-3.6,3.6h0v0.1c0,0,0,0,0,0h0l0,0h0l0,1.7v0.1
				l0,0l0,0v3.5h7.3V382L1403.4,380.2z"/>
			<path class="st13" d="M1418.5,380.2L1418.5,380.2c0-2-1.6-3.7-3.7-3.7c-2,0-3.6,1.6-3.6,3.6h0v0.1c0,0,0,0,0,0h0l0,0h0l0,1.7v0.1
				l0,0l0,0v3.5h7.3V382L1418.5,380.2z"/>
		</g>
		<path class="st13" d="M1388.2,407.8L1388.2,407.8c0-2-1.6-3.7-3.7-3.7c-2,0-3.6,1.6-3.6,3.6h0v0.1c0,0,0,0,0,0h0l0,0h0l0,1.7v0.1
			l0,0l0,0v3.5h7.3v-3.5L1388.2,407.8z"/>
		<path class="st13" d="M1403.4,407.8L1403.4,407.8c0-2-1.6-3.7-3.7-3.7c-2,0-3.6,1.6-3.6,3.6h0v0.1c0,0,0,0,0,0h0l0,0h0l0,1.7v0.1
			l0,0l0,0v3.5h7.3v-3.5L1403.4,407.8z"/>
		<path class="st13" d="M1418.5,407.8L1418.5,407.8c0-2-1.6-3.7-3.7-3.7c-2,0-3.6,1.6-3.6,3.6h0v0.1c0,0,0,0,0,0h0l0,0h0l0,1.7v0.1
			l0,0l0,0v3.5h7.3v-3.5L1418.5,407.8z"/>
		<path class="st13" d="M1341.4,292.9L1341.4,292.9c0-2-1.6-3.7-3.7-3.7c-2,0-3.6,1.6-3.6,3.6h0v0.1c0,0,0,0,0,0h0l0,0h0l0,1.7v0.1
			l0,0l0,0v3.5h7.3v-3.5L1341.4,292.9z"/>
		<path class="st13" d="M1356.6,292.9L1356.6,292.9c0-2-1.6-3.7-3.7-3.7c-2,0-3.6,1.6-3.6,3.6h0v0.1c0,0,0,0,0,0h0l0,0h0l0,1.7v0.1
			l0,0l0,0v3.5h7.3v-3.5L1356.6,292.9z"/>
		<g>
			<path class="st13" d="M1467.8,461.2L1467.8,461.2c0-1.5-1.2-2.7-2.7-2.7c-1.5,0-2.7,1.2-2.7,2.7h0v0c0,0,0,0,0,0h0l0,0h0l0,1.3
				v0.1l0,0l0,0v2.6h5.5v-2.6L1467.8,461.2z"/>
			<path class="st13" d="M1479.2,461.2L1479.2,461.2c0-1.5-1.2-2.7-2.7-2.7c-1.5,0-2.7,1.2-2.7,2.7h0v0c0,0,0,0,0,0h0l0,0h0l0,1.3
				v0.1l0,0l0,0v2.6h5.5v-2.6L1479.2,461.2z"/>
		</g>
		<g>
			<path class="st13" d="M1239.3,408L1239.3,408c0-1.5-1.2-2.7-2.7-2.7c-1.5,0-2.7,1.2-2.7,2.7h0v0c0,0,0,0,0,0h0l0,0h0l0,1.3v0.1
				l0,0l0,0v2.6h5.5v-2.6L1239.3,408z"/>
			<path class="st13" d="M1250.6,408L1250.6,408c0-1.5-1.2-2.7-2.7-2.7c-1.5,0-2.7,1.2-2.7,2.7h0v0c0,0,0,0,0,0h0l0,0h0l0,1.3v0.1
				l0,0l0,0v2.6h5.5v-2.6L1250.6,408z"/>
		</g>
		<path class="st13" d="M1250.6,432.2L1250.6,432.2c0-1.5-1.2-2.7-2.7-2.7c-1.5,0-2.7,1.2-2.7,2.7h0v0c0,0,0,0,0,0h0l0,0h0l0,1.3
			v0.1l0,0l0,0v2.6h5.5v-2.6L1250.6,432.2z"/>
		<g>
			<path class="st13" d="M1239.3,456.4L1239.3,456.4c0-1.5-1.2-2.7-2.7-2.7c-1.5,0-2.7,1.2-2.7,2.7h0v0c0,0,0,0,0,0h0l0,0h0l0,1.3
				v0.1l0,0l0,0v2.6h5.5v-2.6L1239.3,456.4z"/>
			<path class="st13" d="M1250.6,456.4L1250.6,456.4c0-1.5-1.2-2.7-2.7-2.7c-1.5,0-2.7,1.2-2.7,2.7h0v0c0,0,0,0,0,0h0l0,0h0l0,1.3
				v0.1l0,0l0,0v2.6h5.5v-2.6L1250.6,456.4z"/>
		</g>
		<path class="st13" d="M1391.9,478.2L1391.9,478.2c0-2-1.6-3.7-3.7-3.7c-2,0-3.6,1.6-3.6,3.6h0v0.1c0,0,0,0,0,0h0l0,0h0l0,1.7v0.1
			l0,0l0,0v3.5h7.3v-3.5L1391.9,478.2z"/>
		<path class="st13" d="M1418.5,443.2L1418.5,443.2c0-2-1.6-3.7-3.7-3.7c-2,0-3.6,1.6-3.6,3.6h0v0.1c0,0,0,0,0,0h0l0,0h0l0,1.7v0.1
			l0,0l0,0v3.5h7.3V445L1418.5,443.2z"/>
		<path class="st13" d="M1326.5,317.1L1326.5,317.1c0-2-1.6-3.7-3.7-3.7c-2,0-3.6,1.6-3.6,3.6h0v0.1c0,0,0,0,0,0h0l0,0h0l0,1.7v0.1
			l0,0l0,0v3.5h7.3v-3.5L1326.5,317.1z"/>
		<path class="st13" d="M1344.4,380.2L1344.4,380.2c0-2-1.6-3.7-3.7-3.7c-2,0-3.6,1.6-3.6,3.6h0v0.1c0,0,0,0,0,0h0l0,0h0l0,1.7v0.1
			l0,0l0,0v3.5h7.3V382L1344.4,380.2z"/>
		<path class="st12" d="M1353.1,482.7L1353.1,482.7c0-2-1.6-3.7-3.7-3.7c-2,0-3.6,1.6-3.6,3.6h0v0.1c0,0,0,0,0,0h0l0,0h0l0,1.7v0.1
			l0,0l0,0v3.5h7.3v-3.5L1353.1,482.7z"/>
		<polygon class="st10" points="1333.9,636.5 1325.8,590 1246.8,558 1211,592.4 1263.6,636.5 		"/>
		<polygon class="st9" points="1417.4,636.5 1408.5,610.7 1325.8,590 1333.9,636.5 		"/>
		<path class="st3" d="M1400.7,192.8c0,0.8-0.7,1.5-1.5,1.5l0,0c-0.8,0-1.5-0.7-1.5-1.5V118c0-0.8,0.7-1.5,1.5-1.5l0,0
			c0.8,0,1.5,0.7,1.5,1.5V192.8z"/>
		<polygon class="st5" points="1359.3,356.1 1399.2,356.1 1399.2,183.6 		"/>
		<polygon class="st6" points="1439.1,356.1 1399.2,356.1 1399.2,183.6 		"/>
		<path class="st7" d="M1389.9,191.3c0,5.1,4.2,9.3,9.3,9.3v-18.6C1394.1,181.9,1389.9,186.1,1389.9,191.3z"/>
		<path class="st8" d="M1399.2,200.6c5.1,0,9.3-4.2,9.3-9.3c0-5.1-4.2-9.3-9.3-9.3V200.6z"/>
		<polygon class="st7" points="1397.7,119.1 1358.4,130.6 1397.7,130.6 		"/>
		<polygon class="st8" points="1397.7,142.1 1358.4,130.6 1397.7,130.6 		"/>
		<rect x="1224.2" y="385.6" class="st1" width="36" height="6.5"/>
		<rect x="1452.8" y="440.8" class="st1" width="36" height="6.5"/>
		<rect x="1369.1" y="356.1" class="st1" width="61.2" height="6.5"/>
		<path class="st0" d="M1246.7,360.5c0,6.3-5.1,11.4-11.4,11.4c-6.3,0-11.4-5.1-11.4-11.4c0-6.3,5.1-11.4,11.4-11.4
			C1241.7,349.1,1246.7,354.2,1246.7,360.5z"/>
		<path class="st0" d="M1245.4,331.3c0,4.3-3.5,7.8-7.8,7.8c-4.3,0-7.8-3.5-7.8-7.8c0-4.3,3.5-7.8,7.8-7.8
			C1241.9,323.4,1245.4,326.9,1245.4,331.3z"/>
		<path class="st0" d="M1401.3,336.3c0,6.3-5.1,11.4-11.4,11.4s-11.4-5.1-11.4-11.4c0-6.3,5.1-11.4,11.4-11.4
			S1401.3,330,1401.3,336.3z"/>
		<path class="st0" d="M1399.9,307.1c0,4.3-3.5,7.8-7.8,7.8c-4.3,0-7.8-3.5-7.8-7.8c0-4.3,3.5-7.8,7.8-7.8
			C1396.4,299.2,1399.9,302.7,1399.9,307.1z"/>
		<path class="st0" d="M1475.3,420.7c0,4.9-3.9,8.8-8.8,8.8c-4.9,0-8.8-3.9-8.8-8.8c0-4.9,3.9-8.8,8.8-8.8
			C1471.3,411.9,1475.3,415.8,1475.3,420.7z"/>
		<path class="st0" d="M1474.2,398.1c0,3.3-2.7,6-6,6s-6-2.7-6-6c0-3.3,2.7-6,6-6S1474.2,394.8,1474.2,398.1z"/>
		<path class="st0" d="M1330.5,197.3c0,6.3-5.1,11.4-11.4,11.4s-11.4-5.1-11.4-11.4s5.1-11.4,11.4-11.4S1330.5,191,1330.5,197.3z"/>
		<circle class="st0" cx="1330.2" cy="169.3" r="7.8"/>
		<rect x="1255.3" y="392.1" class="st1" width="4.9" height="134"/>
		<rect x="1425.4" y="362.7" class="st1" width="4.9" height="146.2"/>
		<rect x="1224.2" y="508.8" class="st14" width="28" height="4.8"/>
		<rect x="1283.6" y="508.8" class="st14" width="28" height="4.8"/>
		<rect x="1343" y="508.8" class="st14" width="28" height="4.8"/>
		<rect x="1402.4" y="508.8" class="st14" width="28" height="4.8"/>
		<rect x="1461.7" y="508.8" class="st14" width="28" height="4.8"/>
	</g>
	<g>
		<g>
			<polygon class="st15" points="955.4,292.9 1000.9,338.4 976.8,282.1 			"/>
			<polygon class="st16" points="976.8,282.1 996.7,280.7 1000.9,338.4 			"/>
			<polygon class="st16" points="1039.2,286.7 1000.9,338.4 1016.5,279.2 			"/>
			<polygon class="st15" points="1016.5,279.2 996.7,280.7 1000.9,338.4 			"/>
			<polygon class="st15" points="976.8,282.1 996.7,280.7 995.3,262.9 			"/>
			<polygon class="st16" points="1016.5,279.2 996.7,280.7 995.3,262.9 			"/>
			<polygon class="st16" points="955.4,292.9 995.3,262.9 976.8,282.1 			"/>
			<polygon class="st15" points="1039.2,286.7 995.3,262.9 1016.5,279.2 			"/>
			<path class="st17" d="M1006.2,255.3c0.5,6.3-4.3,11.8-10.6,12.2c-6.3,0.5-11.8-4.3-12.2-10.6c-0.5-6.3,4.3-11.8,10.6-12.2
				C1000.3,244.3,1005.8,249,1006.2,255.3z"/>
			<path class="st18" d="M1006.2,255.3c-0.5-6.3-5.9-11-12.2-10.6l1.7,22.8C1002,267.1,1006.7,261.6,1006.2,255.3z"/>
		</g>
		<polygon class="st19" points="1069.6,304.1 1103.1,223.5 1235.9,272 1258.4,252.8 1274.9,298.9 1250.7,283.3 1240,305.9 
			1163.5,280.3 1172.6,310.8 		"/>
		<path class="st20" d="M1237,295.3l-91.7-27.7c0,0-7.6,23.8-12.5,40.7l39.8,2.6l-9.1-30.5l76.5,25.6l10.7-22.6l24.1,15.6
			l-20.4-28.9L1237,295.3z"/>
		<path class="st21" d="M1172.9,319.7c-0.5,1.5,24.8,76.3,24.8,76.3l-44.9-10l0.6-67.6L1172.9,319.7z"/>
		<polygon class="st20" points="1148.9,375.2 1205.2,390.3 1206.6,592 1103.9,586.4 1114.8,387.2 		"/>
		<path class="st22" d="M1064.3,313.8c0.4,1.5-33,73.1-33,73.1l45.8-5.1l6.8-67.2L1064.3,313.8z"/>
		<polygon class="st19" points="1082.1,371.6 1024.6,380.5 1001.1,580.7 1103.9,586.4 1114.8,387.2 		"/>
		<path class="st23" d="M1119.1,307.9l-5,92.3c0,0,47.7,4.1,48.7-12.9c0.9-17-3.8-74.5-3.8-74.5L1119.1,307.9z"/>
		<path class="st24" d="M1119.1,307.9l-5,92.3c0,0-47.9-1.1-47-18.1c0.9-17,11.9-73.6,11.9-73.6L1119.1,307.9z"/>
		<path class="st25" d="M1106.4,345.5c-0.4,1.1-1.5,1.7-2.6,1.3l-15.5-5.1c-1.1-0.4-1.7-1.5-1.3-2.6l0,0c0.4-1.1,1.5-1.7,2.6-1.3
			l15.5,5.1C1106.1,343.3,1106.7,344.4,1106.4,345.5L1106.4,345.5z"/>
		<path class="st0" d="M1113.2,341.8c-0.6,1.9-2.7,3-4.7,2.4l-27.7-9.1c-1.9-0.6-3-2.7-2.4-4.7l0,0c0.6-1.9,2.7-3,4.7-2.4l27.7,9.1
			C1112.7,337.8,1113.8,339.8,1113.2,341.8L1113.2,341.8z"/>
		<path class="st0" d="M1121.3,342.2c0.4,2,2.4,3.3,4.4,2.9l28.5-6c2-0.4,3.3-2.4,2.9-4.4l0,0c-0.4-2-2.4-3.3-4.4-2.9l-28.5,6
			C1122.2,338.3,1120.9,340.2,1121.3,342.2L1121.3,342.2z"/>
		<path class="st22" d="M1115,382.1l-21.2,11.6c0,0-7.5,29.5-9.5,65c-1.9,35.5,23,63.5,23,63.5L1115,382.1z"/>
		<path class="st0" d="M1115.6,371.2l-16.5-0.9l-15,13.4c0,0-2.4,43.1-3.3,59.6c-0.9,16.5,13.8,28.8,13.8,28.8s2.6-47,3.3-60.6
			c0.7-13.6,7.2-20.6,16.5-20C1115.3,377.4,1115.6,371.2,1115.6,371.2z"/>
		<path class="st25" d="M1127.6,346.7c0.2,1.1,1.3,1.8,2.5,1.6l16-3.4c1.1-0.2,1.8-1.3,1.6-2.5l0,0c-0.2-1.1-1.3-1.8-2.5-1.6
			l-16,3.4C1128.1,344.5,1127.4,345.6,1127.6,346.7L1127.6,346.7z"/>
		<path class="st21" d="M1115,382.1l19.8,13.9c0,0,4.3,30.1,2.3,65.6c-1.9,35.5-29.8,60.6-29.8,60.6L1115,382.1z"/>
		<path class="st22" d="M1115.6,371.2l16.5,0.9l13.4,15c0,0-2.4,43.1-3.3,59.6c-0.9,16.5-16.9,27.2-16.9,27.2s2.6-47,3.3-60.6
			c0.7-13.6-4.9-21.2-14.2-21.7C1115.3,377.4,1115.6,371.2,1115.6,371.2z"/>
		<path class="st7" d="M1171.1,304.7l-103.4-5.7c-5.5-0.3-10.2,3.9-10.5,9.4l123.2,6.7C1180.8,309.7,1176.6,305,1171.1,304.7z"/>
		<path class="st8" d="M1057.3,308.4c-0.3,5.5,3.9,10.2,9.4,10.5l103.4,5.7c5.5,0.3,10.2-3.9,10.5-9.4L1057.3,308.4z"/>
		<path class="st25" d="M1015.1,579.6c-3.6-0.2-6.5-3-6.7-6.7l-14.8-239.6c-0.2-3.9,2.7-7.3,6.7-7.6c3.9-0.2,7.3,2.7,7.5,6.7
			l14.8,239.6c0.2,3.9-2.7,7.3-6.7,7.6C1015.7,579.6,1015.4,579.6,1015.1,579.6z"/>
		<path class="st26" d="M1181.1,518c-1.3-0.1-2.4-1.1-2.5-2.5l-5.2-83.2c-0.1-1.5,1-2.7,2.5-2.8c1.5-0.1,2.7,1,2.8,2.5l5.2,83.2
			c0.1,1.5-1,2.7-2.5,2.8C1181.3,518,1181.2,518,1181.1,518z"/>
		<path class="st27" d="M1029,429.5c-0.7,13-11.8,23-24.9,22.3c-13-0.7-23-11.8-22.3-24.9c0.7-13,11.8-23,24.9-22.3
			S1029.7,416.5,1029,429.5z"/>
		<path class="st27" d="M1219.8,516c-0.7,13-11.8,23-24.9,22.3c-13-0.7-23-11.8-22.3-24.9c0.7-13,11.8-23,24.9-22.3
			C1210.5,491.9,1220.5,503,1219.8,516z"/>
		<polygon class="st0" points="1074.4,333.2 1074.2,375.5 1084.1,383.7 1086.1,401.4 1061.4,386.7 1058.1,375.3 		"/>
		<polygon class="st22" points="1160.7,338 1156.3,380 1145.5,387.1 1141.6,404.4 1167.8,392.5 1172.3,381.5 		"/>
		<path class="st0" d="M1061.7,490.9c-0.2,4-3.6,7-7.6,6.8c-4-0.2-7-3.6-6.8-7.6c0.2-4,3.6-7,7.6-6.8
			C1058.9,483.6,1061.9,487,1061.7,490.9z"/>
		<path class="st0" d="M1068,522.9c-0.5,8.4-7.6,14.8-16,14.4c-8.4-0.5-14.8-7.6-14.4-16c0.5-8.4,7.6-14.8,16-14.4
			C1062,507.4,1068.4,514.5,1068,522.9z"/>
		<path class="st0" d="M1002.2,256c-0.2,3-2.8,5.4-5.8,5.2c-3-0.2-5.4-2.8-5.2-5.8c0.2-3,2.8-5.4,5.8-5.2
			C1000.1,250.4,1002.4,253,1002.2,256z"/>
		<g>
			<g>
				<g>
					<path class="st0" d="M936.8,289c0.6,0,1,0.5,1,1.1l0,0c0,0.6-0.5,1-1.1,1l-7.7-0.4c-0.6,0-1-0.5-1-1.1l0,0c0-0.6,0.5-1,1.1-1
						L936.8,289z"/>
					<path class="st0" d="M1063,295.9c0.6,0,1,0.5,1,1.1l0,0c0,0.6-0.5,1-1.1,1l-7.7-0.4c-0.6,0-1-0.5-1-1.1l0,0c0-0.6,0.5-1,1.1-1
						L1063,295.9z"/>
				</g>
				<g>
					<path class="st0" d="M1000.3,234.1c0,0.6-0.5,1-1.1,1l0,0c-0.6,0-1-0.5-1-1.1l0.4-7.7c0-0.6,0.5-1,1.1-1l0,0c0.6,0,1,0.5,1,1.1
						L1000.3,234.1z"/>
					<path class="st0" d="M993.4,360.3c0,0.6-0.5,1-1.1,1l0,0c-0.6,0-1-0.5-1-1.1l0.4-7.7c0-0.6,0.5-1,1.1-1l0,0c0.6,0,1,0.5,1,1.1
						L993.4,360.3z"/>
				</g>
			</g>
			<g>
				<g>
					<path class="st0" d="M963.2,342.8c0.3-0.5,1-0.6,1.5-0.3l0,0c0.5,0.3,0.6,1,0.3,1.5l-4.1,6.5c-0.3,0.5-1,0.6-1.5,0.3l0,0
						c-0.5-0.3-0.6-1-0.3-1.5L963.2,342.8z"/>
					<path class="st0" d="M1031.1,236.1c0.3-0.5,1-0.6,1.5-0.3l0,0c0.5,0.3,0.6,1,0.3,1.5l-4.1,6.5c-0.3,0.5-1,0.6-1.5,0.3l0,0
						c-0.5-0.3-0.6-1-0.3-1.5L1031.1,236.1z"/>
				</g>
				<g>
					<path class="st0" d="M946.5,260.5c0.5,0.3,0.6,1,0.3,1.5l0,0c-0.3,0.5-1,0.6-1.5,0.3l-6.5-4.1c-0.5-0.3-0.6-1-0.3-1.5l0,0
						c0.3-0.5,1-0.6,1.5-0.3L946.5,260.5z"/>
					<path class="st0" d="M1053.1,328.4c0.5,0.3,0.6,1,0.3,1.5l0,0c-0.3,0.5-1,0.6-1.5,0.3l-6.5-4.1c-0.5-0.3-0.6-1-0.3-1.5l0,0
						c0.3-0.5,1-0.6,1.5-0.3L1053.1,328.4z"/>
				</g>
			</g>
			<g>
				<g>
					<path class="st0" d="M1025.8,344.6c-0.3-0.5-0.9-0.7-1.5-0.4l0,0c-0.5,0.3-0.7,0.9-0.4,1.5l3.8,6.7c0.3,0.5,0.9,0.7,1.5,0.4
						l0,0c0.5-0.3,0.7-0.9,0.4-1.5L1025.8,344.6z"/>
					<path class="st0" d="M964.2,234.2c-0.3-0.5-0.9-0.7-1.5-0.4l0,0c-0.5,0.3-0.7,0.9-0.4,1.5l3.8,6.7c0.3,0.5,0.9,0.7,1.5,0.4l0,0
						c0.5-0.3,0.7-0.9,0.4-1.5L964.2,234.2z"/>
				</g>
				<g>
					<path class="st0" d="M1047.2,263.4c-0.5,0.3-0.7,0.9-0.4,1.5l0,0c0.3,0.5,0.9,0.7,1.5,0.4l6.7-3.8c0.5-0.3,0.7-0.9,0.4-1.5l0,0
						c-0.3-0.5-0.9-0.7-1.5-0.4L1047.2,263.4z"/>
					<path class="st0" d="M936.9,325.1c-0.5,0.3-0.7,0.9-0.4,1.5l0,0c0.3,0.5,0.9,0.7,1.5,0.4l6.7-3.8c0.5-0.3,0.7-0.9,0.4-1.5l0,0
						c-0.3-0.5-0.9-0.7-1.5-0.4L936.9,325.1z"/>
				</g>
			</g>
		</g>
	</g>
	<g>
		<path class="st28" d="M313.4,468.4c0,0,8.8-53,41.9-56.3c33.1-3.3,37.5,25.7,38.7,37.9c1.2,12.2-10.7,34.4-9.1,50.6
			c1.6,16.2,10.8,21.9,19.2,21.1c8.5-0.8,11.4-3.9,13.2-1.9c1.8,1.9,5.2,19-17.8,21.3c-22.9,2.3-33.3-17-34.3-26.6
			c-0.9-9.6,3.4-26.4,2.6-34.3c-0.8-7.9-6.6-19.9-25.7-18c-19.1,1.9-16.5,19.6-16.5,19.6L313.4,468.4z"/>
		<path class="st29" d="M417.4,519.7c-1.8-1.9-4.7,1.1-13.2,1.9c-8.5,0.8-17.6-4.9-19.2-21.1c-1.6-16.2,10.3-38.4,9.1-50.6
			c-1.2-12.2-5.6-41.2-38.7-37.9c-24.5,2.4-35.7,31.9-39.8,47.2l10,10c0,0-3.1-21,21.3-23.4c24.3-2.4,31.7,11.8,32.6,21.2
			c0.9,9.4-4.8,29.3-3.7,40.7c1,9.9,11,28.5,32.9,31.2C421.5,533.8,418.9,521.4,417.4,519.7z"/>
		<polygon class="st30" points="274.9,543.2 295.3,590.5 285.2,620.4 273.3,621.6 276.2,592.1 222.1,540.6 244.5,519.7 		"/>
		<path class="st31" d="M263.3,534.3l-18.8-14.6l-22.4,20.9l16.7,15.9C251.9,549.2,259.6,539.8,263.3,534.3z"/>
		<polygon class="st30" points="148.2,544.6 200.4,628.8 209.7,627.9 190.4,546.2 		"/>
		<path class="st31" d="M190.4,546.2l-42.2-1.7l16.4,26.4c5,1.7,10.5,2.3,16.1,1.8c5.4-0.5,10.4-2.1,14.9-4.6L190.4,546.2z"/>
		<path class="st28" d="M144.2,394c0,0-4.8-20.4-27.5-18.1C94,378.1,94.4,402,71.1,404.3c-17.5,1.7-26.6-11.7-30.7-6.8
			c-4,4.8,11.5,27.2,55.8,22.9c44.3-4.4,43-13.5,43-13.5L144.2,394z"/>
		<polygon class="st4" points="116.7,410.8 127,402.3 59.6,321 		"/>
		<polygon class="st0" points="137.3,393.8 127,402.3 59.6,321 		"/>
		<path class="st32" d="M125.1,447.4c-13.6,4.5-21.8,7.4-25.4,9.8c-3.6,2.4-11.2,9.5-13.9,8.8c-2.7-0.7-14.2-8-14.1-13.3
			c0.1-5.3,13.6-12.5,18.9-18c0,0,18.4-27.1,32.3-36.7c13.9-9.5,28.9-14.5,44.1,0.3c15.2,14.8,29.3,43.2,29.3,43.2l17.2,24
			c0,0,27.5,6.6,28.4,7.1c0.9,0.5,26,0.1,26,0.1l-5.1,36.7l-9.6,9.4c0,0-15.5,32.2-59.4,36.5c-43.9,4.3-64-24.9-65.6-41.4
			c-1.6-16.5,15-31.7,13.5-46.9c-1.5-15.2-8.3-22.4-8.3-22.4L125.1,447.4z"/>
		<path class="st5" d="M200.9,532.7c0,0,6.6,3.5,6.2,4.2c-0.4,0.8-20.8,93.2-20.8,93.2l-11,1.1l-5.7-81.4L200.9,532.7z"/>
		<path class="st5" d="M154.8,439.2c1.1,10.9-6.9,20.7-17.9,21.8c-10.9,1.1-20.7-6.9-21.8-17.9c-1.1-10.9,6.9-20.7,17.9-21.8
			C144,420.3,153.7,428.3,154.8,439.2z"/>
		<path class="st5" d="M133.9,521.9c2.1,21.5,21.3,37.2,42.8,35.1c21.5-2.1,37.2-21.3,35.1-42.8c-2.1-21.5-21.3-37.2-42.8-35.1
			C147.5,481.3,131.8,500.4,133.9,521.9z"/>
		<path class="st33" d="M169,479.1c-7.7,0.8-14.6,3.7-20.3,8.2c-3.2,6.4-4.8,13.8-4,21.5c2.1,21.5,21.3,37.2,42.8,35.1
			c7.7-0.8,14.6-3.7,20.3-8.1c3.2-6.4,4.8-13.8,4-21.5C209.6,492.7,190.5,477,169,479.1z"/>
		
			<ellipse transform="matrix(0.8251 -0.565 0.565 0.8251 -232.3885 250.9644)" class="st5" cx="289.2" cy="500.8" rx="50.1" ry="50.1"/>
		<path class="st0" d="M182.7,497.9c0.6,5.6-3.6,10.6-9.2,11.2c-5.6,0.6-10.6-3.6-11.2-9.2c-0.6-5.6,3.6-10.6,9.2-11.2
			C177.2,488.2,182.2,492.3,182.7,497.9z"/>
		<path class="st0" d="M198.5,509.4c0.3,3.4-2.1,6.4-5.5,6.7c-3.4,0.3-6.4-2.1-6.7-5.5c-0.3-3.4,2.1-6.4,5.5-6.7
			C195.1,503.6,198.1,506,198.5,509.4z"/>
		<path class="st5" d="M280.2,529.6c-0.1,1.5-4.8,19.4-4.8,19.4l51.8,28.4l-16.2,40.4l12.7-1.3l22.6-45.7L334,523.2L280.2,529.6z"/>
		<path class="st33" d="M284.3,451c-9.8,1-18.6,4.7-25.8,10.3c-4.1,8.2-6.1,17.5-5.1,27.3c2.7,27.5,27.2,47.7,54.8,45
			c9.8-1,18.6-4.7,25.8-10.3c4.1-8.2,6.1-17.5,5.1-27.3C336.3,468.4,311.8,448.3,284.3,451z"/>
		<path class="st0" d="M297.4,479.6c0.7,7.2-4.5,13.5-11.7,14.2c-7.2,0.7-13.5-4.5-14.2-11.7c-0.7-7.2,4.5-13.5,11.7-14.2
			C290.4,467.2,296.7,472.4,297.4,479.6z"/>
		<path class="st0" d="M317.5,494.2c0.4,4.3-2.7,8.1-7,8.5c-4.3,0.4-8.1-2.7-8.5-7c-0.4-4.3,2.7-8.1,7-8.5
			C313.2,486.8,317.1,489.9,317.5,494.2z"/>
		<path class="st34" d="M130.8,414.4c0.3,2.8-1.8,5.3-4.6,5.6c-2.8,0.3-5.3-1.8-5.6-4.6c-0.3-2.8,1.8-5.3,4.6-5.6
			S130.5,411.5,130.8,414.4z"/>
		<polygon class="st28" points="187.9,646.6 168.8,648.5 175.3,631.2 186.3,630.2 		"/>
		<polygon class="st28" points="211.3,644.3 194,646 200.4,628.8 209.7,627.9 		"/>
		<polygon class="st28" points="286.8,636.8 266.8,638.8 273.3,621.6 285.2,620.4 		"/>
		<polygon class="st28" points="325.1,633.1 304.6,635.1 311.1,617.9 323.5,616.6 		"/>
		<path class="st29" d="M95.4,409.8c39.6-7.1,46.8-15,48-18.1c-2-5.3-8.8-17.6-26.7-15.8C94,378.1,94.4,402,71.1,404.3
			c-17.5,1.7-26.6-11.7-30.7-6.8c-1.2,1.4-0.7,4.3,1.7,7.5C52.9,410.6,70.4,414.3,95.4,409.8z"/>
		<path class="st29" d="M138.5,378.7c-1-10.4,6.3-19,23.1-20.7c16.8-1.7,39,14.2,41.2,35.9c2.1,21.7,6,73.2,33.5,70.5
			c6.4-0.6,9.7-6.6,13.5-7c6.5-0.6,7.8,3.7,8.2,8.3c0.5,4.6-6.7,16.8-24.4,18.6c-17.7,1.7-30.8,1.5-46.4-44.2
			C171.5,394.4,141.1,405.6,138.5,378.7z"/>
		<path class="st28" d="M249.7,457.5c-3.8,0.4-7.2,6.3-13.5,7c-23.3,2.3-29.6-34.1-32.3-58.5c-8.8,1.9-17.5,1.3-23.6-5.6
			c-17-19.1-31.6-13.9-36.8-8.8c9.8,11.8,31.3,12.5,43.6,48.6c15.6,45.7,28.7,46,46.4,44.2c17.7-1.7,24.9-13.9,24.4-18.6
			C257.4,461.2,256.2,456.9,249.7,457.5z"/>
		<path class="st29" d="M161.5,358.1c-10.1,1-16.8,4.6-20.3,9.5c11.2,14.4,36.7,14.6,51.2,57.1c18.1,53.1,33.3,53.4,53.8,51.4
			c2.8-0.3,5.4-0.8,7.7-1.5c2.9-3.4,4.1-6.8,3.9-8.8c-0.5-4.6-1.7-9-8.2-8.3c-3.8,0.4-7.2,6.3-13.5,7c-27.5,2.7-31.4-48.8-33.5-70.5
			C200.5,372.3,178.3,356.4,161.5,358.1z"/>
		<polygon class="st29" points="168.8,648.5 175.3,631.2 179,630.9 176.9,647.7 		"/>
		<polygon class="st29" points="304.6,635.1 311.1,617.9 314.7,617.5 312.7,634.3 		"/>
	</g>
	<g>
		<path class="st6" d="M759.9,414.8l4.9,111.8l111.8-4.9C873.9,460,821.6,412.1,759.9,414.8z"/>
		<path class="st5" d="M652.9,531.5l111.8-4.9l-4.9-111.8C698.1,417.5,650.2,469.7,652.9,531.5z"/>
		<polygon class="st5" points="711.7,391.8 721.6,400 738.9,413.4 727.2,424.5 702.9,407.4 		"/>
		<polygon class="st6" points="807.3,387.7 798.2,396.7 782.2,411.6 794.8,421.5 817.5,402.4 		"/>
		<path class="st35" d="M744.9,326.5c0.3,7.1-9.7,13.4-22.3,13.9l0,0c-12.6,0.5-23.1-4.8-23.4-11.9l-4.4-101.3
			c-0.3-7.1,9.7-13.4,22.3-13.9l0,0c12.6-0.5,23.1,4.8,23.4,11.9L744.9,326.5z"/>
		<path class="st25" d="M768.7,325.5c0.3,7.1,10.4,12.5,22.6,12l0,0c12.2-0.5,21.8-6.8,21.5-13.9l-4.4-101.3
			c-0.3-7.1-10.4-12.5-22.6-12l0,0c-12.2,0.5-21.8,6.8-21.5,13.9L768.7,325.5z"/>
		<path class="st5" d="M742.4,301.6c0,0-0.6,5.1-6.7,7.3c-6,2.2-22.7,8.3-22.7,8.3s-6.2,2.2-5.9,10.6c0,0.2,0,0.4,0,0.7
			c0.1,1.7,0.3,6.3,0.4,8.9c0.3,5.9,4,10.8,12.6,16.8c2.3,1.6,4.1,5.7,5.4,11c10.6,2.1,21.6,3,32.8,2.5l-3.5-80.7l-13.2,0.6
			L742.4,301.6z"/>
		<path class="st6" d="M795.5,350.9c8.1-6.7,11.4-12,11.1-17.8c-0.1-2.6-0.3-7.1-0.4-8.9c0-0.3,0-0.5,0-0.7
			c-0.4-8.5-6.8-10.1-6.8-10.1s-17.2-4.7-23.3-6.3c-6.2-1.7-7.3-6.7-7.3-6.7l-0.6-14l-13.2,0.6l3.5,80.7c0,0,0,0,0,0
			c11.2-0.5,22.1-2.3,32.4-5.3C791.9,356.9,793.3,352.7,795.5,350.9z"/>
		<path class="st24" d="M742.4,301.6c0,0-0.6,5.1-6.7,7.3c-1.7,0.6-4.3,1.6-7.2,2.6c5.3,8.5,16,14,28.1,13.5l0,0l-1.7-38l-13.2,0.6
			L742.4,301.6z"/>
		<path class="st23" d="M768.9,300.4l-0.6-14l-13.2,0.6l1.7,38c12.1-0.5,22.3-7,26.9-15.9c-2.9-0.8-5.6-1.5-7.4-2
			C770,305.4,768.9,300.4,768.9,300.4z"/>
		<g>
			<path class="st36" d="M768.9,300.4l-0.6-14l-26.5,1.2l0.4,9.8c5.9,2.7,12.1,4,12.1,4s6.9,1.4,15.2,0.6
				C769.1,301.1,768.9,300.4,768.9,300.4z"/>
		</g>
		
			<ellipse transform="matrix(0.9265 -0.3763 0.3763 0.9265 -19.0515 296.8381)" class="st35" cx="750.4" cy="197.2" rx="66.5" ry="66.5"/>
		<path class="st25" d="M816.8,194.3c-1.6-36.7-32.6-65.1-69.3-63.5l5.8,132.8C789.9,262,818.4,231,816.8,194.3z"/>
		<path class="st5" d="M714.8,233.2c0.1,3.2-2.3,5.9-5.5,6l-11.2,0.5c-3.2,0.1-5.9-2.3-6-5.5l0,0c-0.1-3.2,2.3-5.9,5.5-6l11.2-0.5
			C711.9,227.6,714.6,230.1,714.8,233.2L714.8,233.2z"/>
		<path class="st6" d="M789,230c0.1,3.2,2.8,5.6,6,5.5l11.2-0.5c3.2-0.1,5.6-2.8,5.5-6l0,0c-0.1-3.2-2.8-5.6-6-5.5l-11.2,0.5
			C791.3,224.1,788.9,226.8,789,230L789,230z"/>
		<path class="st23" d="M749.5,176.3l5,115.6c0,0,44.7-0.5,44-16.3c-0.7-15.8-11.6-98.3-11.6-98.3L749.5,176.3z"/>
		<path class="st25" d="M761.8,225.1c0.1,3.4,3,6,6.3,5.8c3.4-0.1,6-3,5.8-6.3c-0.1-3.4-3-6-6.3-5.8
			C764.2,218.9,761.6,221.7,761.8,225.1z"/>
		<path class="st24" d="M749.5,176.3l5,115.6c0,0-44.5,3.4-45.2-12.5c-0.7-15.8,3-98.9,3-98.9L749.5,176.3z"/>
		<path class="st25" d="M741.5,226c0.1,3.4-2.5,6.2-5.8,6.3c-3.4,0.1-6.2-2.5-6.3-5.8c-0.1-3.4,2.5-6.2,5.8-6.3
			C738.5,220,741.3,222.6,741.5,226z"/>
		<path class="st35" d="M722.7,218.6c-0.6,0-1.2-0.2-1.6-0.7c-0.7-0.8-0.5-2,0.3-2.7c0.4-0.3,9-7.2,18.3-6.7c1,0.1,1.8,0.9,1.8,2
			c-0.1,1-0.9,1.8-2,1.8c-7.8-0.4-15.6,5.8-15.7,5.9C723.5,218.5,723.1,218.6,722.7,218.6z"/>
		<path class="st35" d="M779.8,216.2c-0.4,0-0.8-0.1-1.1-0.3c-0.1-0.1-8.4-5.6-16.1-4.5c-1.1,0.1-2-0.6-2.1-1.6
			c-0.1-1,0.6-2,1.6-2.1c9.2-1.3,18.4,4.8,18.8,5.1c0.9,0.6,1.1,1.8,0.5,2.6C781,215.8,780.4,216.1,779.8,216.2z"/>
		<path class="st37" d="M753.4,265.5l-19.2-1l3.9,4.1c4.3,4.6,5.1,7.1,7.2,8.1c1.1,0.5,4.8,0.7,8.6,0.5c3.8-0.1,7.5-0.7,8.5-1.3
			c2-1.2,2.6-3.7,6.4-8.7l3.5-4.4L753.4,265.5z"/>
		<path class="st38" d="M759.6,259c-2.4,0.1-4.1,3.1-6.4,3.2c-2.3,0-4.2-2.8-6.6-2.7c0,0-6.4,0.3-12.4,4.8c5.8,1.7,12.1,4,19.3,3.4
			c7.2,0,13.2-2.8,18.9-5C766,258.8,759.6,259,759.6,259z"/>
		<path class="st35" d="M709.3,179.7l-0.3,6.3c0,0,44.1,14.4,63.2,19c19.1,4.6,21.8,4.5,21.8,4.5l-4.3-33.3
			C789.7,176.2,748.1,159.3,709.3,179.7z"/>
		<path class="st6" d="M814.1,325.5c-0.4-10.2-14.6-12.1-14.6-12.1s-4.7,4.2-4.3,12.9l1.2,27.3l-0.1,0l1.9,43l19.2,5.7l-2.2-49.4
			c0,0,0.1,0,0.1,0L814.1,325.5z"/>
		<polygon class="st5" points="760,401.4 729.1,402.7 725.7,365.2 758.4,363.8 		"/>
		<g>
			<path class="st39" d="M765.1,411.1c-2.2,3.3-6,4.6-8.5,3c-2.6-1.7-2.9-5.7-0.7-9c2.2-3.3,6-4.6,8.5-3
				C767,403.8,767.3,407.8,765.1,411.1z"/>
			<path class="st40" d="M765.1,411.1c2.2-3.3,1.8-7.3-0.7-9l-7.8,12C759.2,415.8,763,414.5,765.1,411.1z"/>
			<path class="st39" d="M754,404.8c2.5,3.1,2.6,7.1,0.2,9c-2.4,1.9-6.3,1-8.8-2.1c-2.5-3.1-2.6-7.1-0.2-9
				C747.6,400.7,751.5,401.7,754,404.8z"/>
			<path class="st40" d="M754,404.8c-2.5-3.1-6.4-4-8.8-2.1l9,11.1C756.5,411.9,756.5,407.8,754,404.8z"/>
			<path class="st39" d="M745.2,413.3c3.7-1.4,7.6-0.2,8.7,2.6c1.1,2.9-1,6.3-4.7,7.7c-3.7,1.4-7.6,0.2-8.7-2.6
				C739.4,418.2,741.5,414.7,745.2,413.3z"/>
			<path class="st40" d="M745.2,413.3c-3.7,1.4-5.8,4.9-4.7,7.7l13.4-5.1C752.8,413.1,748.9,411.9,745.2,413.3z"/>
			<path class="st39" d="M750.9,424.8c-0.2-3.9,2.1-7.3,5.2-7.4c3.1-0.2,5.7,2.9,5.9,6.9c0.2,3.9-2.1,7.3-5.2,7.4
				C753.7,431.8,751.1,428.7,750.9,424.8z"/>
			<path class="st40" d="M750.9,424.8c0.2,3.9,2.8,7,5.9,6.9l-0.7-14.3C753,417.5,750.7,420.8,750.9,424.8z"/>
			<path class="st39" d="M762.9,423.1c-3.8-1-6.3-4.3-5.5-7.2c0.8-3,4.5-4.5,8.3-3.5c3.8,1,6.3,4.3,5.5,7.2
				C770.4,422.6,766.7,424.1,762.9,423.1z"/>
			<path class="st40" d="M762.9,423.1c3.8,1,7.6-0.5,8.3-3.5l-13.8-3.7C756.6,418.9,759,422.1,762.9,423.1z"/>
			<path class="st0" d="M758.5,417.3c-1,1.5-3.1,2-4.6,1c-1.5-1-2-3.1-1-4.6c1-1.5,3.1-2,4.6-1C759,413.7,759.5,415.8,758.5,417.3z"
				/>
		</g>
		<polygon class="st6" points="760,401.4 791,400 791.1,362.4 758.4,363.8 		"/>
		<g>
			<g>
				<path class="st41" d="M748.5,398.6c0.2,3.9-2.2,7.3-5.2,7.4c-3.1,0.1-5.7-3-5.8-6.9c-0.2-3.9,2.2-7.3,5.2-7.4
					C745.7,391.5,748.3,394.6,748.5,398.6z"/>
				<path class="st42" d="M748.5,398.6c-0.2-3.9-2.8-7-5.8-6.9l0.6,14.3C746.3,405.8,748.7,402.5,748.5,398.6z"/>
			</g>
			<g>
				<path class="st41" d="M735.7,399.9c3.8,1.1,6.2,4.3,5.4,7.2c-0.8,2.9-4.6,4.5-8.4,3.4c-3.8-1.1-6.2-4.3-5.4-7.2
					C728.2,400.3,731.9,398.8,735.7,399.9z"/>
				<path class="st42" d="M735.7,399.9c-3.8-1.1-7.6,0.5-8.4,3.4l13.8,3.8C742,404.2,739.5,400.9,735.7,399.9z"/>
			</g>
			<g>
				<g>
					<path class="st41" d="M733.6,411.9c2.2-3.3,6-4.6,8.6-2.9c2.5,1.7,2.8,5.7,0.7,9c-2.2,3.3-6,4.6-8.6,2.9
						C731.7,419.3,731.4,415.2,733.6,411.9z"/>
					<path class="st42" d="M733.6,411.9c-2.2,3.3-1.9,7.3,0.7,9l7.9-11.9C739.6,407.3,735.7,408.6,733.6,411.9z"/>
				</g>
				<g>
					<path class="st41" d="M744.9,418c-2.5-3.1-2.5-7.1-0.1-9c2.4-1.9,6.3-0.9,8.8,2.2c2.5,3.1,2.5,7.1,0.1,9
						C751.2,422,747.3,421,744.9,418z"/>
					<path class="st42" d="M744.9,418c2.5,3.1,6.4,4.1,8.8,2.2l-8.9-11.2C742.3,410.8,742.4,414.9,744.9,418z"/>
				</g>
			</g>
			<g>
				<path class="st41" d="M753.6,409.6c-3.7,1.4-7.6,0.2-8.6-2.7c-1.1-2.9,1.1-6.3,4.8-7.7c3.7-1.4,7.6-0.2,8.6,2.7
					C759.5,404.8,757.3,408.2,753.6,409.6z"/>
				<path class="st42" d="M753.6,409.6c3.7-1.4,5.8-4.8,4.8-7.7l-13.4,5C746.1,409.8,749.9,411,753.6,409.6z"/>
			</g>
			<path class="st0" d="M746.7,407.4c0.1,1.8-1.3,3.4-3.2,3.5c-1.8,0.1-3.4-1.3-3.5-3.2c-0.1-1.8,1.3-3.4,3.2-3.5
				C745,404.2,746.6,405.6,746.7,407.4z"/>
		</g>
		<g>
			<g>
				<path class="st41" d="M791.6,428.9c-1.1,2.8-3.8,4.3-5.9,3.5c-2.2-0.9-3-3.8-1.9-6.6c1.1-2.8,3.8-4.3,5.9-3.5
					C791.9,423.2,792.7,426.1,791.6,428.9z"/>
				<path class="st42" d="M791.6,428.9c1.1-2.8,0.3-5.7-1.9-6.6l-4,10.1C787.9,433.2,790.5,431.7,791.6,428.9z"/>
			</g>
			<g>
				<path class="st41" d="M782.4,425.8c2.3,1.9,3,4.9,1.5,6.7c-1.5,1.8-4.5,1.7-6.8-0.2c-2.3-1.9-3-4.9-1.5-6.7
					C777,423.8,780.1,423.9,782.4,425.8z"/>
				<path class="st42" d="M782.4,425.8c-2.3-1.9-5.4-2-6.8-0.2l8.3,6.9C785.3,430.7,784.7,427.7,782.4,425.8z"/>
			</g>
			<g>
				<g>
					<path class="st41" d="M777.1,433.5c2.5-1.6,5.6-1.3,6.8,0.7c1.2,2,0.2,4.8-2.3,6.4c-2.5,1.6-5.6,1.3-6.8-0.7
						C773.5,437.9,774.6,435.1,777.1,433.5z"/>
					<path class="st42" d="M777.1,433.5c-2.5,1.6-3.6,4.5-2.3,6.4l9.2-5.8C782.7,432.2,779.6,431.9,777.1,433.5z"/>
				</g>
				<g>
					<path class="st41" d="M783.1,441.1c-0.7-2.9,0.5-5.7,2.7-6.3c2.2-0.6,4.7,1.3,5.4,4.2c0.7,2.9-0.5,5.7-2.7,6.3
						C786.2,445.9,783.8,444,783.1,441.1z"/>
					<path class="st42" d="M783.1,441.1c0.7,2.9,3.2,4.8,5.4,4.2l-2.7-10.5C783.5,435.4,782.3,438.2,783.1,441.1z"/>
				</g>
			</g>
			<g>
				<path class="st41" d="M791.7,438.1c-3-0.2-5.3-2.2-5.1-4.5c0.2-2.3,2.7-4,5.7-3.8c3,0.2,5.3,2.2,5.1,4.5
					C797.2,436.6,794.7,438.3,791.7,438.1z"/>
				<path class="st42" d="M791.7,438.1c3,0.2,5.5-1.5,5.7-3.8l-10.8-0.7C786.4,435.9,788.7,437.9,791.7,438.1z"/>
			</g>
			<path class="st0" d="M787.6,434.4c-0.5,1.3-2,1.9-3.3,1.4c-1.3-0.5-1.9-2-1.4-3.3c0.5-1.3,2-1.9,3.3-1.4
				C787.5,431.7,788.1,433.2,787.6,434.4z"/>
		</g>
		<g>
			<g>
				<path class="st41" d="M757.2,439c1.2,2.1,0.9,4.6-0.8,5.6c-1.7,1-4,0-5.2-2.1c-1.2-2.1-0.9-4.6,0.8-5.6
					C753.6,435.9,755.9,436.9,757.2,439z"/>
				<path class="st42" d="M757.2,439c-1.2-2.1-3.6-3.1-5.2-2.1l4.5,7.7C758.1,443.7,758.4,441.2,757.2,439z"/>
			</g>
			<g>
				<path class="st41" d="M750.5,443.4c2.4-0.5,4.7,0.6,5.1,2.5c0.4,1.9-1.2,3.8-3.7,4.3c-2.4,0.5-4.7-0.6-5.1-2.5
					C746.4,445.9,748,443.9,750.5,443.4z"/>
				<path class="st42" d="M750.5,443.4c-2.4,0.5-4,2.4-3.7,4.3l8.7-1.8C755.1,444,752.9,442.9,750.5,443.4z"/>
			</g>
			<g>
				<g>
					<path class="st41" d="M752.7,450.7c0.3-2.5,2-4.3,3.9-4.1c1.9,0.2,3.2,2.4,3,4.8c-0.3,2.5-2,4.3-3.9,4.1
						C753.8,455.3,752.5,453.2,752.7,450.7z"/>
					<path class="st42" d="M752.7,450.7c-0.3,2.5,1.1,4.6,3,4.8l0.9-8.9C754.7,446.5,753,448.3,752.7,450.7z"/>
				</g>
				<g>
					<path class="st41" d="M760.7,450.8c-2.3-1-3.4-3.2-2.7-5c0.8-1.7,3.2-2.3,5.5-1.3c2.3,1,3.4,3.2,2.7,5
						C765.4,451.2,763,451.8,760.7,450.8z"/>
					<path class="st42" d="M760.7,450.8c2.3,1,4.7,0.4,5.5-1.3l-8.2-3.6C757.3,447.6,758.5,449.8,760.7,450.8z"/>
				</g>
			</g>
			<g>
				<path class="st41" d="M763.2,443.7c-1.7,1.8-4.1,2.3-5.6,1c-1.4-1.3-1.2-3.8,0.4-5.6c1.7-1.8,4.1-2.3,5.6-1
					C765,439.3,764.8,441.9,763.2,443.7z"/>
				<path class="st42" d="M763.2,443.7c1.7-1.8,1.8-4.3,0.4-5.6l-6,6.6C759,446,761.5,445.5,763.2,443.7z"/>
			</g>
			<path class="st0" d="M758.7,444.5c0.6,1,0.2,2.3-0.8,2.8c-1,0.6-2.3,0.2-2.8-0.8c-0.6-1-0.2-2.3,0.8-2.8
				C756.9,443.2,758.1,443.5,758.7,444.5z"/>
		</g>
		<g>
			<g>
				<path class="st41" d="M787,395.5c-1,3.3-3.8,5.3-6.4,4.5c-2.5-0.8-3.7-4-2.8-7.3c1-3.3,3.8-5.3,6.4-4.5
					C786.7,389,788,392.3,787,395.5z"/>
				<path class="st42" d="M787,395.5c1-3.3-0.2-6.5-2.8-7.3l-3.6,11.8C783.1,400.8,786,398.8,787,395.5z"/>
			</g>
			<g>
				<path class="st41" d="M776.2,392.9c2.8,2,3.8,5.3,2.3,7.4c-1.5,2.2-5,2.3-7.8,0.4c-2.8-2-3.8-5.3-2.3-7.4
					C770,391.1,773.4,391,776.2,392.9z"/>
				<path class="st42" d="M776.2,392.9c-2.8-2-6.3-1.8-7.8,0.4l10.1,7.1C780.1,398.2,779,394.9,776.2,392.9z"/>
			</g>
			<g>
				<g>
					<path class="st41" d="M771,402.1c2.7-2,6.2-2,7.8,0.1c1.6,2.1,0.7,5.5-2.1,7.5c-2.7,2-6.2,2-7.8-0.1
						C767.4,407.5,768.3,404.1,771,402.1z"/>
					<path class="st42" d="M771,402.1c-2.7,2-3.6,5.4-2.1,7.5l9.8-7.4C777.2,400.1,773.7,400,771,402.1z"/>
				</g>
				<g>
					<path class="st41" d="M778.4,410.2c-1.1-3.2,0-6.5,2.5-7.4c2.5-0.9,5.4,1.1,6.5,4.3c1.1,3.2,0,6.5-2.5,7.4
						C782.5,415.4,779.5,413.4,778.4,410.2z"/>
					<path class="st42" d="M778.4,410.2c1.1,3.2,4,5.1,6.5,4.3l-4-11.6C778.5,403.7,777.3,407,778.4,410.2z"/>
				</g>
			</g>
			<g>
				<path class="st41" d="M788,406c-3.4,0.1-6.2-2-6.2-4.7c0-2.6,2.7-4.8,6.1-4.9c3.4-0.1,6.2,2,6.2,4.7
					C794.1,403.7,791.3,405.9,788,406z"/>
				<path class="st42" d="M788,406c3.4-0.1,6.1-2.2,6.1-4.9l-12.3,0.2C781.8,404,784.6,406,788,406z"/>
			</g>
			<path class="st0" d="M782.9,402.2c-0.5,1.5-2.1,2.4-3.6,1.9c-1.5-0.5-2.4-2.1-1.9-3.6c0.5-1.5,2.1-2.4,3.6-1.9
				C782.5,399.1,783.4,400.7,782.9,402.2z"/>
		</g>
		<g>
			<path class="st39" d="M753.5,417.7c1.2,3.8-0.1,7.6-3,8.5c-2.9,1-6.3-1.3-7.5-5.1c-1.2-3.8,0.1-7.6,3-8.5
				C748.9,411.7,752.2,413.9,753.5,417.7z"/>
			<path class="st40" d="M753.5,417.7c-1.2-3.8-4.6-6-7.5-5.1l4.5,13.6C753.3,425.3,754.7,421.5,753.5,417.7z"/>
			<path class="st39" d="M741.5,422.4c4,0,7.2,2.5,7.2,5.5c0,3.1-3.2,5.5-7.1,5.5c-4,0-7.2-2.5-7.2-5.5
				C734.3,424.9,737.5,422.4,741.5,422.4z"/>
			<path class="st40" d="M741.5,422.4c-4,0-7.1,2.5-7.1,5.5l14.3,0C748.7,424.9,745.4,422.4,741.5,422.4z"/>
			<path class="st39" d="M742.7,434.6c1.2-3.8,4.6-6,7.5-5.1c2.9,0.9,4.3,4.7,3.1,8.5c-1.2,3.8-4.6,6-7.5,5.1
				C742.8,442.2,741.4,438.4,742.7,434.6z"/>
			<path class="st40" d="M742.7,434.6c-1.2,3.8,0.2,7.6,3.1,8.5l4.4-13.6C747.2,428.6,743.9,430.8,742.7,434.6z"/>
			<path class="st39" d="M755.2,437.4c-3.2-2.3-4.3-6.2-2.6-8.7c1.8-2.5,5.8-2.6,9-0.3c3.2,2.3,4.3,6.2,2.6,8.7
				C762.4,439.5,758.4,439.7,755.2,437.4z"/>
			<path class="st40" d="M755.2,437.4c3.2,2.3,7.2,2.2,9-0.3l-11.6-8.4C750.8,431.2,752,435,755.2,437.4z"/>
			<path class="st39" d="M761.4,427c-3.2,2.3-7.2,2.2-9-0.3c-1.8-2.5-0.7-6.4,2.5-8.7c3.2-2.3,7.2-2.2,9,0.3
				C765.7,420.7,764.6,424.6,761.4,427z"/>
			<path class="st40" d="M761.4,427c3.2-2.3,4.3-6.2,2.5-8.7l-11.6,8.4C754.1,429.2,758.2,429.3,761.4,427z"/>
			<path class="st0" d="M754.1,426.7c0.6,1.7-0.4,3.6-2.1,4.2c-1.7,0.6-3.6-0.4-4.2-2.1c-0.6-1.7,0.4-3.6,2.1-4.2
				C751.6,424.1,753.5,425,754.1,426.7z"/>
		</g>
		<g>
			<path class="st39" d="M797.1,416.6c-2.2,3.3-6,4.6-8.5,3c-2.6-1.7-2.9-5.7-0.7-9c2.2-3.3,6-4.6,8.5-3
				C799,409.2,799.3,413.3,797.1,416.6z"/>
			<path class="st40" d="M797.1,416.6c2.2-3.3,1.8-7.3-0.7-9l-7.8,12C791.2,421.2,795,419.9,797.1,416.6z"/>
			<path class="st39" d="M786,410.2c2.5,3.1,2.6,7.1,0.2,9c-2.4,1.9-6.3,1-8.8-2.1c-2.5-3.1-2.6-7.1-0.2-9
				C779.6,406.2,783.5,407.1,786,410.2z"/>
			<path class="st40" d="M786,410.2c-2.5-3.1-6.4-4-8.8-2.1l9,11.1C788.6,417.3,788.5,413.3,786,410.2z"/>
			<path class="st39" d="M777.2,418.7c3.7-1.4,7.6-0.2,8.7,2.6c1.1,2.9-1,6.3-4.7,7.7c-3.7,1.4-7.6,0.2-8.7-2.6
				C771.4,423.6,773.5,420.1,777.2,418.7z"/>
			<path class="st40" d="M777.2,418.7c-3.7,1.4-5.8,4.9-4.7,7.7l13.4-5.1C784.8,418.5,780.9,417.3,777.2,418.7z"/>
			<path class="st39" d="M782.9,430.2c-0.2-3.9,2.1-7.3,5.2-7.4c3.1-0.2,5.7,2.9,5.9,6.9c0.2,3.9-2.1,7.3-5.2,7.4
				C785.7,437.2,783.1,434.2,782.9,430.2z"/>
			<path class="st40" d="M782.9,430.2c0.2,3.9,2.8,7,5.9,6.9l-0.7-14.3C785,422.9,782.7,426.3,782.9,430.2z"/>
			<path class="st39" d="M794.9,428.5c-3.8-1-6.3-4.3-5.5-7.2c0.8-2.9,4.5-4.5,8.3-3.5c3.8,1,6.3,4.3,5.5,7.2
				C802.4,428,798.7,429.6,794.9,428.5z"/>
			<path class="st40" d="M794.9,428.5c3.8,1,7.6-0.5,8.3-3.5l-13.8-3.7C788.6,424.3,791.1,427.5,794.9,428.5z"/>
			<path class="st0" d="M790.5,422.7c-1,1.5-3.1,2-4.6,1c-1.5-1-2-3.1-1-4.6c1-1.5,3.1-2,4.6-1C791,419.1,791.5,421.2,790.5,422.7z"
				/>
		</g>
		<g>
			<path class="st43" d="M763.7,385.3c0.2,3.9-2.2,7.3-5.2,7.4c-3.1,0.1-5.7-3-5.8-6.9c-0.2-3.9,2.2-7.3,5.2-7.4
				C760.9,378.3,763.5,381.4,763.7,385.3z"/>
			<path class="st44" d="M763.7,385.3c-0.2-3.9-2.8-7-5.8-6.9l0.6,14.3C761.5,392.6,763.9,389.2,763.7,385.3z"/>
			<path class="st43" d="M750.9,386.6c3.8,1.1,6.2,4.3,5.4,7.2c-0.8,2.9-4.6,4.5-8.4,3.4c-3.8-1.1-6.2-4.3-5.4-7.2
				C743.4,387.1,747.1,385.5,750.9,386.6z"/>
			<path class="st44" d="M750.9,386.6c-3.8-1.1-7.6,0.5-8.4,3.4l13.8,3.8C757.1,390.9,754.7,387.7,750.9,386.6z"/>
			<path class="st43" d="M748.7,398.7c2.2-3.3,6-4.6,8.6-2.9c2.5,1.7,2.8,5.7,0.7,9c-2.2,3.3-6,4.6-8.6,2.9
				C746.9,406,746.6,402,748.7,398.7z"/>
			<path class="st44" d="M748.7,398.7c-2.2,3.3-1.9,7.3,0.7,9l7.9-11.9C754.8,394.1,750.9,395.4,748.7,398.7z"/>
			<path class="st43" d="M760,404.7c-2.5-3.1-2.5-7.1-0.1-9c2.4-1.9,6.3-0.9,8.8,2.2c2.5,3.1,2.5,7.1,0.1,9
				C766.4,408.7,762.5,407.8,760,404.7z"/>
			<path class="st44" d="M760,404.7c2.5,3.1,6.4,4.1,8.8,2.2l-8.9-11.2C757.5,397.5,757.6,401.6,760,404.7z"/>
			<path class="st43" d="M768.8,396.3c-3.7,1.4-7.6,0.2-8.6-2.7c-1.1-2.9,1.1-6.3,4.8-7.7c3.7-1.4,7.6-0.2,8.6,2.7
				C774.7,391.5,772.5,395,768.8,396.3z"/>
			<path class="st44" d="M768.8,396.3c3.7-1.4,5.8-4.8,4.8-7.7l-13.4,5C761.2,396.5,765.1,397.7,768.8,396.3z"/>
			<path class="st0" d="M761.9,394.2c0.1,1.8-1.3,3.4-3.2,3.5c-1.8,0.1-3.4-1.3-3.5-3.2c-0.1-1.8,1.3-3.4,3.2-3.5
				C760.2,390.9,761.8,392.3,761.9,394.2z"/>
		</g>
		<g>
			<path class="st43" d="M777.2,422.2c0.2,3.9-2.2,7.3-5.2,7.4c-3.1,0.1-5.7-3-5.8-6.9c-0.2-3.9,2.2-7.3,5.2-7.4
				C774.5,415.2,777.1,418.3,777.2,422.2z"/>
			<path class="st44" d="M777.2,422.2c-0.2-3.9-2.8-7-5.8-6.9l0.6,14.3C775.1,429.5,777.4,426.2,777.2,422.2z"/>
			<path class="st43" d="M764.5,423.5c3.8,1.1,6.2,4.3,5.4,7.2c-0.8,2.9-4.6,4.5-8.4,3.4c-3.8-1.1-6.2-4.3-5.4-7.2
				C756.9,424,760.7,422.4,764.5,423.5z"/>
			<path class="st44" d="M764.5,423.5c-3.8-1.1-7.6,0.5-8.4,3.4l13.8,3.8C770.7,427.8,768.3,424.6,764.5,423.5z"/>
			<path class="st43" d="M762.3,435.6c2.2-3.3,6-4.6,8.6-2.9c2.5,1.7,2.8,5.7,0.7,9c-2.2,3.3-6,4.6-8.6,2.9
				C760.4,442.9,760.1,438.9,762.3,435.6z"/>
			<path class="st44" d="M762.3,435.6c-2.2,3.3-1.9,7.3,0.7,9l7.9-11.9C768.3,431,764.5,432.3,762.3,435.6z"/>
			<path class="st43" d="M773.6,441.6c-2.5-3.1-2.5-7.1-0.1-9c2.4-1.9,6.3-0.9,8.8,2.2c2.5,3.1,2.5,7.1,0.1,9
				C780,445.7,776.1,444.7,773.6,441.6z"/>
			<path class="st44" d="M773.6,441.6c2.5,3.1,6.4,4.1,8.8,2.2l-8.9-11.2C771.1,434.5,771.1,438.5,773.6,441.6z"/>
			<path class="st43" d="M782.4,433.3c-3.7,1.4-7.6,0.2-8.6-2.7c-1.1-2.9,1.1-6.3,4.8-7.7c3.7-1.4,7.6-0.2,8.6,2.7
				C788.2,428.4,786.1,431.9,782.4,433.3z"/>
			<path class="st44" d="M782.4,433.3c3.7-1.4,5.8-4.8,4.8-7.7l-13.4,5C774.8,433.4,778.7,434.6,782.4,433.3z"/>
			<path class="st0" d="M775.4,431.1c0.1,1.8-1.3,3.4-3.2,3.5c-1.8,0.1-3.4-1.3-3.5-3.2c-0.1-1.8,1.3-3.4,3.2-3.5
				C773.8,427.8,775.3,429.3,775.4,431.1z"/>
		</g>
		<g>
			<path class="st43" d="M733.8,412.8c1.6,3.1,1,6.6-1.4,7.8c-2.4,1.2-5.6-0.2-7.2-3.3c-1.6-3.1-1-6.6,1.4-7.8
				C728.9,408.3,732.2,409.8,733.8,412.8z"/>
			<path class="st44" d="M733.8,412.8c-1.6-3.1-4.8-4.6-7.2-3.3l5.8,11.1C734.7,419.4,735.4,415.9,733.8,412.8z"/>
			<path class="st43" d="M724.1,418.6c3.4-0.6,6.5,1.1,7,3.7c0.4,2.6-2,5.2-5.4,5.8c-3.4,0.6-6.5-1.1-7-3.7
				C718.3,421.8,720.7,419.2,724.1,418.6z"/>
			<path class="st44" d="M724.1,418.6c-3.4,0.6-5.8,3.2-5.4,5.8l12.4-2.1C730.6,419.7,727.5,418,724.1,418.6z"/>
			<path class="st43" d="M726.9,429c0.5-3.4,3.1-5.9,5.7-5.5c2.6,0.4,4.4,3.5,3.9,6.9c-0.5,3.4-3.1,5.9-5.7,5.5
				C728.1,435.5,726.4,432.4,726.9,429z"/>
			<path class="st44" d="M726.9,429c-0.5,3.4,1.2,6.5,3.9,6.9l1.8-12.4C729.9,423.1,727.4,425.6,726.9,429z"/>
			<path class="st43" d="M738.1,429.6c-3.1-1.5-4.6-4.7-3.5-7.1c1.2-2.4,4.7-3.1,7.8-1.6c3.1,1.5,4.6,4.7,3.5,7.1
				C744.6,430.4,741.2,431.1,738.1,429.6z"/>
			<path class="st44" d="M738.1,429.6c3.1,1.5,6.6,0.8,7.8-1.6l-11.2-5.6C733.4,424.8,735,428,738.1,429.6z"/>
			<path class="st43" d="M741.9,419.7c-2.4,2.5-5.9,3-7.8,1.1c-1.9-1.9-1.5-5.4,0.9-7.9c2.4-2.5,5.9-3,7.8-1.1
				C744.8,413.7,744.4,417.2,741.9,419.7z"/>
			<path class="st44" d="M741.9,419.7c2.4-2.5,2.8-6,0.9-7.9l-8.8,9C736,422.6,739.5,422.2,741.9,419.7z"/>
			<path class="st0" d="M735.6,420.5c0.7,1.4,0.2,3.2-1.2,3.9c-1.4,0.7-3.2,0.2-3.9-1.2c-0.7-1.4-0.2-3.2,1.2-3.9
				C733.1,418.6,734.9,419.1,735.6,420.5z"/>
		</g>
		<g>
			<path class="st45" d="M776.2,405.4c-0.8,3.9-3.8,6.5-6.8,5.9c-3-0.6-4.8-4.2-4-8.1c0.8-3.9,3.8-6.5,6.8-5.9
				C775.2,397.9,777,401.5,776.2,405.4z"/>
			<path class="st46" d="M776.2,405.4c0.8-3.9-1-7.5-4-8.1l-2.8,14C772.4,412,775.5,409.3,776.2,405.4z"/>
			<path class="st45" d="M763.5,403.6c3.4,1.9,5,5.7,3.5,8.3c-1.5,2.7-5.5,3.3-8.9,1.3c-3.4-1.9-5-5.7-3.5-8.3
				C756.1,402.3,760.1,401.7,763.5,403.6z"/>
			<path class="st46" d="M763.5,403.6c-3.4-1.9-7.5-1.3-8.9,1.3l12.5,7C768.5,409.3,767,405.6,763.5,403.6z"/>
			<path class="st45" d="M758.5,414.9c2.9-2.7,6.9-3,9-0.8c2.1,2.2,1.4,6.2-1.5,8.9c-2.9,2.7-6.9,3-9,0.8
				C755,421.5,755.6,417.6,758.5,414.9z"/>
			<path class="st46" d="M758.5,414.9c-2.9,2.7-3.6,6.7-1.5,8.9l10.5-9.7C765.5,411.8,761.4,412.2,758.5,414.9z"/>
			<path class="st45" d="M768.1,423.4c-1.7-3.6-0.8-7.5,2-8.8c2.8-1.3,6.4,0.6,8,4.2c1.7,3.6,0.8,7.5-2,8.8
				C773.4,428.8,769.8,427,768.1,423.4z"/>
			<path class="st46" d="M768.1,423.4c1.7,3.6,5.3,5.5,8,4.2l-6-13C767.4,415.9,766.4,419.8,768.1,423.4z"/>
			<path class="st45" d="M778.6,417.4c-3.9,0.5-7.4-1.6-7.8-4.6c-0.4-3,2.5-5.9,6.4-6.3c3.9-0.5,7.4,1.6,7.8,4.6
				C785.4,414.1,782.5,416.9,778.6,417.4z"/>
			<path class="st46" d="M778.6,417.4c3.9-0.5,6.8-3.3,6.4-6.3l-14.2,1.7C771.2,415.7,774.7,417.8,778.6,417.4z"/>
			<path class="st0" d="M772.4,413.6c-0.4,1.8-2.1,3-3.9,2.6c-1.8-0.4-3-2.1-2.6-3.9c0.4-1.8,2.1-3,3.9-2.6
				C771.5,410.1,772.7,411.8,772.4,413.6z"/>
		</g>
		<g>
			<path class="st45" d="M738.6,431.1c0.8,2.5-0.1,5-2.1,5.6c-1.9,0.6-4.1-0.9-4.9-3.4c-0.8-2.5,0.1-5,2.1-5.6
				C735.6,427,737.8,428.6,738.6,431.1z"/>
			<path class="st46" d="M738.6,431.1c-0.8-2.5-3-4-4.9-3.4l2.8,9C738.5,436.1,739.4,433.6,738.6,431.1z"/>
			<path class="st45" d="M730.6,434.1c2.6,0,4.7,1.7,4.7,3.7c0,2-2.2,3.6-4.8,3.6c-2.6,0-4.7-1.7-4.7-3.7
				C725.9,435.7,728,434,730.6,434.1z"/>
			<path class="st46" d="M730.6,434.1c-2.6,0-4.8,1.6-4.8,3.6l9.5,0.1C735.4,435.8,733.3,434.1,730.6,434.1z"/>
			<path class="st45" d="M731.3,442.2c0.8-2.5,3.1-4,5-3.3c1.9,0.6,2.8,3.2,2,5.7c-0.8,2.5-3.1,4-5,3.3
				C731.4,447.2,730.5,444.7,731.3,442.2z"/>
			<path class="st46" d="M731.3,442.2c-0.8,2.5,0,5,2,5.7l3-9C734.4,438.2,732.2,439.7,731.3,442.2z"/>
			<path class="st45" d="M739.6,444.1c-2.1-1.6-2.8-4.1-1.6-5.8c1.2-1.6,3.9-1.7,6-0.1c2.1,1.6,2.8,4.1,1.6,5.8
				C744.4,445.6,741.7,445.6,739.6,444.1z"/>
			<path class="st46" d="M739.6,444.1c2.1,1.6,4.8,1.5,6-0.1l-7.6-5.6C736.8,439.9,737.5,442.5,739.6,444.1z"/>
			<path class="st45" d="M743.8,437.3c-2.1,1.5-4.8,1.4-6-0.2c-1.2-1.6-0.4-4.2,1.7-5.7c2.1-1.5,4.8-1.4,6,0.2
				C746.7,433.2,745.9,435.7,743.8,437.3z"/>
			<path class="st46" d="M743.8,437.3c2.1-1.5,2.9-4.1,1.7-5.7l-7.7,5.5C739,438.7,741.6,438.8,743.8,437.3z"/>
			<path class="st0" d="M739,437.1c0.4,1.2-0.3,2.4-1.4,2.8c-1.2,0.4-2.4-0.3-2.8-1.4c-0.4-1.2,0.3-2.4,1.4-2.8
				C737.4,435.3,738.6,435.9,739,437.1z"/>
		</g>
		<g>
			<path class="st45" d="M777.2,440.3c0,2.6-1.7,4.7-3.7,4.7c-2,0-3.6-2.1-3.6-4.8c0-2.6,1.7-4.7,3.7-4.7
				C775.6,435.6,777.2,437.7,777.2,440.3z"/>
			<path class="st46" d="M777.2,440.3c0-2.6-1.6-4.8-3.6-4.8l-0.1,9.5C775.5,445.1,777.2,443,777.2,440.3z"/>
			<path class="st45" d="M768.7,440.8c2.5,0.8,4,3.1,3.3,5c-0.6,1.9-3.2,2.8-5.7,2c-2.5-0.8-4-3.1-3.3-5
				C763.7,440.8,766.2,439.9,768.7,440.8z"/>
			<path class="st46" d="M768.7,440.8c-2.5-0.8-5,0.1-5.7,2l9,3C772.7,443.8,771.2,441.6,768.7,440.8z"/>
			<path class="st45" d="M766.8,448.7c1.6-2.1,4.1-2.8,5.8-1.6c1.6,1.2,1.7,3.9,0.1,6c-1.6,2.1-4.1,2.8-5.8,1.6
				C765.3,453.5,765.3,450.8,766.8,448.7z"/>
			<path class="st46" d="M766.8,448.7c-1.6,2.1-1.5,4.8,0.1,6l5.6-7.6C771,445.9,768.4,446.6,766.8,448.7z"/>
			<path class="st45" d="M774.1,453.1c-1.5-2.1-1.4-4.8,0.2-6c1.6-1.2,4.2-0.4,5.7,1.7c1.5,2.1,1.4,4.8-0.2,6
				C778.2,456,775.6,455.2,774.1,453.1z"/>
			<path class="st46" d="M774.1,453.1c1.5,2.1,4.1,2.9,5.7,1.7l-5.5-7.7C772.7,448.2,772.6,450.9,774.1,453.1z"/>
			<path class="st45" d="M780.2,447.8c-2.5,0.8-5-0.1-5.6-2.1c-0.6-1.9,0.9-4.1,3.4-4.9c2.5-0.8,5,0.1,5.6,2.1
				C784.2,444.8,782.7,447,780.2,447.8z"/>
			<path class="st46" d="M780.2,447.8c2.5-0.8,4-3,3.4-4.9l-9,2.9C775.2,447.7,777.7,448.6,780.2,447.8z"/>
			<path class="st0" d="M775.7,446.2c0,1.2-1,2.2-2.2,2.2c-1.2,0-2.2-1-2.2-2.2c0-1.2,1-2.2,2.2-2.2
				C774.7,444,775.7,444.9,775.7,446.2z"/>
		</g>
		<path class="st5" d="M720,364l-0.3-7l-1.2-27.3c-0.4-8.7-5.4-12.5-5.4-12.5s-14,3.1-13.5,13.3l1.2,27.3l2.2,49.5l18.7-7.3L720,364
			z"/>
		
			<rect x="654.2" y="529" transform="matrix(0.9991 -4.346111e-02 4.346111e-02 0.9991 -23.6936 31.3948)" class="st5" width="111.9" height="63.2"/>
		
			<rect x="766" y="524.2" transform="matrix(0.9991 -4.345925e-02 4.345925e-02 0.9991 -23.3755 36.2485)" class="st6" width="111.9" height="63.2"/>
		<g>
			<path class="st47" d="M669,580l0.6,14l14-0.6C683.2,585.7,676.7,579.7,669,580z"/>
			<path class="st0" d="M655.6,594.6l14-0.6l-0.6-14C661.3,580.4,655.3,586.9,655.6,594.6z"/>
		</g>
		<g>
			<path class="st47" d="M696.9,578.8l0.6,14l14-0.6C711.1,584.5,704.6,578.5,696.9,578.8z"/>
			<path class="st0" d="M683.6,593.4l14-0.6l-0.6-14C689.2,579.1,683.2,585.7,683.6,593.4z"/>
		</g>
		<g>
			<path class="st47" d="M724.8,577.6l0.6,14l14-0.6C739.1,583.2,732.6,577.3,724.8,577.6z"/>
			<path class="st0" d="M711.5,592.2l14-0.6l-0.6-14C717.1,577.9,711.2,584.5,711.5,592.2z"/>
		</g>
		<g>
			<path class="st47" d="M752.8,576.4l0.6,14l14-0.6C767,582,760.5,576,752.8,576.4z"/>
			<path class="st0" d="M739.4,591l14-0.6l-0.6-14C745.1,576.7,739.1,583.2,739.4,591z"/>
		</g>
		<g>
			<path class="st47" d="M780.9,575.2l0.6,14l14-0.6C795.1,580.8,788.6,574.8,780.9,575.2z"/>
			<path class="st0" d="M767.5,589.7l14-0.6l-0.6-14C773.2,575.5,767.2,582,767.5,589.7z"/>
		</g>
		<g>
			<path class="st47" d="M808.8,573.9l0.6,14l14-0.6C823,579.6,816.5,573.6,808.8,573.9z"/>
			<path class="st0" d="M795.4,588.5l14-0.6l-0.6-14C801.1,574.3,795.1,580.8,795.4,588.5z"/>
		</g>
		<g>
			<path class="st47" d="M836.7,572.7l0.6,14l14-0.6C851,578.4,844.4,572.4,836.7,572.7z"/>
			<path class="st0" d="M823.4,587.3l14-0.6l-0.6-14C829,573.1,823,579.6,823.4,587.3z"/>
		</g>
		<g>
			<path class="st47" d="M864.7,571.5l0.6,14l14-0.6C878.9,577.2,872.4,571.2,864.7,571.5z"/>
			<path class="st0" d="M851.3,586.1l14-0.6l-0.6-14C856.9,571.9,851,578.4,851.3,586.1z"/>
		</g>
		<path class="st48" d="M714.4,487c0.2,5-3.6,9.1-8.6,9.4c-5,0.2-9.1-3.6-9.4-8.6c-0.2-5,3.6-9.1,8.6-9.4
			C710,478.2,714.2,482,714.4,487z"/>
		<path class="st48" d="M725,525.6c0.4,9.8-7.2,18.2-17.1,18.6c-9.8,0.4-18.2-7.2-18.6-17.1c-0.4-9.8,7.2-18.2,17.1-18.6
			C716.2,508.1,724.6,515.7,725,525.6z"/>
	</g>
	<g>
		
			<rect x="670.5" y="378.3" transform="matrix(0.9967 -8.125950e-02 8.125950e-02 0.9967 -37.0848 56.6549)" class="st49" width="14" height="211.3"/>
		<path class="st3" d="M606.4,408c2.2-1.1,9.9-11.3,9.9-11.3l52,37.3l-16,27.8l-48.7-11.6L606.4,408z"/>
		
			<rect x="556.2" y="543" transform="matrix(0.9967 -8.125781e-02 8.125781e-02 0.9967 -44.3792 49.6544)" class="st50" width="63.3" height="54.2"/>
		<polygon class="st50" points="616.3,396.7 610.6,490.3 550,495.2 545,434 579.4,399.7 		"/>
		<path class="st3" d="M541.1,385.7l5.6,68.2c0,0,14.2-20.3,31.5-34.2c17.2-13.9,38.2-23,38.2-23s-26.1-14-32.2-20.9
			C578,368.9,541.1,385.7,541.1,385.7z"/>
		<path class="st4" d="M594.9,567.3c-21,1.7-36.9,16.2-35.6,32.3l76-6.2C633.9,577.3,615.9,565.6,594.9,567.3z"/>
		<polygon class="st51" points="652.7,380 668.9,378.6 648.6,128.9 		"/>
		<polygon class="st52" points="685.1,377.3 668.9,378.6 648.6,128.9 		"/>
		<polygon class="st3" points="554.1,545.6 624.8,539.9 610.6,490.3 550,495.2 		"/>
		<path class="st50" d="M480.2,418.3c-2.3-0.7-11.6-9.6-11.6-9.6l-45.3,45.2l20.3,24.8l46.1-19.3L480.2,418.3z"/>
		
			<rect x="493.1" y="548.1" transform="matrix(0.9967 -8.126146e-02 8.126146e-02 0.9967 -45.008 44.545)" class="st4" width="63.3" height="54.2"/>
		<polygon class="st4" points="468.6,408.7 489.4,500.2 550,495.2 545,434 505.5,405.7 		"/>
		<path class="st0" d="M541.1,385.7l5.6,68.2c0,0-17.3-17.7-36.6-28.7c-19.2-10.9-41.4-16.5-41.4-16.5s23.5-18,28.4-25.8
			C502,375.1,541.1,385.7,541.1,385.7z"/>
		<path class="st3" d="M517.4,573.6c21-1.7,39.1,10,40.4,26.1l-76,6.2C480.5,589.8,496.4,575.3,517.4,573.6z"/>
		<polygon class="st50" points="554.1,545.6 483.4,551.4 489.4,500.2 550,495.2 		"/>
		<path class="st53" d="M553.5,502c-4.3-52.4-50.2-91.4-102.6-87.2l7.7,94.9L553.5,502z"/>
		<path class="st54" d="M450.9,414.9c-52.4,4.3-91.4,50.2-87.2,102.6l94.9-7.7L450.9,414.9z"/>
		<path class="st49" d="M363.7,517.5c4.3,52.4,50.2,91.4,102.6,87.2l-7.7-94.9L363.7,517.5z"/>
		<path class="st55" d="M458.6,509.8l7.7,94.9c52.4-4.3,91.4-50.2,87.2-102.6L458.6,509.8z"/>
		
			<ellipse transform="matrix(8.059191e-02 -0.9967 0.9967 8.059191e-02 -86.4381 925.835)" class="st0" cx="458.6" cy="509.8" rx="71.2" ry="71.2"/>
		<path class="st4" d="M700.9,448.1c1.2,14.4-9.6,27.1-24,28.2c-14.4,1.2-27.1-9.6-28.2-24c-1.2-14.4,9.6-27.1,24-28.2
			C687.1,423,699.7,433.7,700.9,448.1z"/>
		<path class="st26" d="M682.7,432.8l-29.3,2.4c-1.2,1.6-2.1,3.4-2.9,5.3l32.6-2.7c1.4-0.1,2.4-1.3,2.3-2.7
			C685.3,433.7,684.1,432.6,682.7,432.8z"/>
		<path class="st4" d="M485.4,295.2c2.4,29.8-22.9,55.8-22.9,55.8s9.6,21.7,29.8,29.5c20.2,7.8,11-60.2,11-60.2l-8.2-25.8
			L485.4,295.2z"/>
		<path class="st50" d="M581.4,287.4c2.4,29.8,31.6,51.3,31.6,51.3s-6,22.9-24.6,33.9c-18.6,11-20.6-57.6-20.6-57.6l3.9-26.8
			L581.4,287.4z"/>
		<path class="st23" d="M530.1,251.7l11.4,139.5c0,0,54-2.7,52.4-21.8c-1.6-19.1-25.2-112.4-25.2-112.4L530.1,251.7z"/>
		<path class="st24" d="M530.1,251.7l11.4,139.5c0,0-53.7,6.1-55.2-13c-1.6-19.1,6.7-115,6.7-115L530.1,251.7z"/>
		<path class="st0" d="M576.7,280.4l-87.8,7.2c-4.1,0.3-7.1,3.9-6.8,8l102.6-8.4C584.3,283.1,580.8,280,576.7,280.4z"/>
		<path class="st3" d="M482.1,295.5c0.3,4.1,3.9,7.1,8,6.8l87.8-7.2c4.1-0.3,7.1-3.9,6.8-8L482.1,295.5z"/>
		<path class="st3" d="M489.3,287.5l43.5-3.5l-4.4-53.7C504.4,232.2,487.3,263.5,489.3,287.5z"/>
		<path class="st4" d="M528.4,230.3l4.4,53.7l43.5-3.5C574.3,256.4,552.4,228.3,528.4,230.3z"/>
		<path class="st3" d="M486.3,378.2c1.6,19.1,55.2,13,55.2,13l-4.4-54.2c0,0-34.6-6.8-49-9.8C486.7,349.2,485.6,370.3,486.3,378.2z"
			/>
		<path class="st4" d="M593.9,369.4c1.6,19.1-52.4,21.8-52.4,21.8l-4.4-54.2c0,0,33.1-12.4,46.7-17.6
			C588.8,340.9,593.3,361.5,593.9,369.4z"/>
		<path class="st0" d="M528,299.2l2.9,35.2c0.3,3.3,3.1,5.7,6.4,5.5l-3.4-41.2L528,299.2z"/>
		<path class="st3" d="M534,298.7l3.4,41.2c3.3-0.3,5.7-3.1,5.5-6.4l-2.9-35.2L534,298.7z"/>
		<polygon class="st25" points="500.5,311.5 520.4,312.9 521,320.5 505.4,316.5 		"/>
		<polygon class="st25" points="569.1,305.9 549.7,310.5 550.3,318.1 565.1,311.6 		"/>
		<path class="st3" d="M529.6,504c-3.2-39.2-37.5-68.3-76.7-65.1l11.6,141.9C503.6,577.5,532.8,543.2,529.6,504z"/>
		<path class="st56" d="M502.1,506.2c2,24-15.9,45.1-40,47.1c-24,2-45.1-15.9-47.1-40c-2-24,15.9-45.1,40-47.1
			C479.1,464.3,500.2,482.2,502.1,506.2z"/>
		<path class="st0" d="M452,508.3c0.5,6-4,11.3-10,11.8c-6,0.5-11.3-4-11.8-10c-0.5-6,4-11.3,10-11.8
			C446.2,497.8,451.5,502.3,452,508.3z"/>
		<path class="st0" d="M462.9,488.6c0.3,3.4-2.3,6.4-5.7,6.7c-3.4,0.3-6.4-2.3-6.7-5.7c-0.3-3.4,2.3-6.4,5.7-6.7
			C459.6,482.6,462.6,485.1,462.9,488.6z"/>
		
			<rect x="664.1" y="378.5" transform="matrix(0.9967 -8.125835e-02 8.125835e-02 0.9967 -30.7777 55.8807)" class="st49" width="14" height="55.1"/>
		<path class="st0" d="M521.1,248.5c0.2,2.3-1.6,4.4-3.9,4.6c-2.3,0.2-4.4-1.6-4.6-3.9c-0.2-2.3,1.6-4.4,3.9-4.6
			C518.9,244.4,520.9,246.1,521.1,248.5z"/>
		<path class="st0" d="M517.4,268.9c0.3,3.9-2.6,7.2-6.4,7.6c-3.9,0.3-7.2-2.6-7.6-6.4c-0.3-3.9,2.6-7.2,6.4-7.6
			C513.7,262.1,517.1,265,517.4,268.9z"/>
	</g>
	<g>
		<path class="st51" d="M1781.3,543.8c0,0,2.4,9.2,9.6,10.6c7.2,1.4,20.5,1.2,24.1-17.1c3.6-18.3-7.4-25-3.5-44.8
			c3.3-16.7,11-21.7,43.6-15.3c32.5,6.4,36.1,22.4,34.8,29c-4.2,21.5-32.7,72.5-85,62.2C1789.7,565.4,1780.3,555,1781.3,543.8z"/>
		<path class="st52" d="M1804.9,568.4c52.3,10.3,80.8-40.6,85-62.2c0.7-3.4,0-9.1-5-14.9l-11.9-1.7c0,0-14.2-31.5-25.4,25
			c-11.1,56.5-44.9,45.9-54.8,43.9c-9.9-1.9-11.6-14.8-11.6-14.8C1780.3,555,1789.7,565.4,1804.9,568.4z"/>
		
			<ellipse transform="matrix(0.2038 -0.979 0.979 0.2038 983.6824 2210.0015)" class="st51" cx="1850.6" cy="500.2" rx="39.8" ry="39.8"/>
		<path class="st52" d="M1889.6,507.9c4.3-21.6-9.8-42.5-31.3-46.7l-15.4,78C1864.4,543.5,1885.3,529.5,1889.6,507.9z"/>
		<polygon class="st24" points="1848.5,532 1840.4,530.4 1842.3,525.1 1848.8,526.4 		"/>
		<path class="st23" d="M1853.1,487.6l-7.9,39.9c0,0,15.3,3.5,16.4-1.9c1.1-5.5,4.2-34.5,4.2-34.5L1853.1,487.6z"/>
		<path class="st25" d="M1853.2,505.3c-0.2,1.2,0.5,2.3,1.7,2.5c1.2,0.2,2.3-0.5,2.5-1.7c0.2-1.2-0.5-2.3-1.7-2.5
			C1854.6,503.3,1853.4,504.1,1853.2,505.3z"/>
		<path class="st24" d="M1853.1,487.6l-7.9,39.9c0,0-15.5-2.5-14.4-8c1.1-5.5,9.2-33.5,9.2-33.5L1853.1,487.6z"/>
		<path class="st25" d="M1846.2,503.9c-0.2,1.2-1.4,1.9-2.5,1.7c-1.2-0.2-1.9-1.4-1.7-2.5c0.2-1.2,1.4-1.9,2.5-1.7
			C1845.7,501.6,1846.4,502.7,1846.2,503.9z"/>
		<path class="st52" d="M1840.4,499.8c-0.2,0-0.4-0.2-0.5-0.4c-0.2-0.3,0-0.7,0.3-0.9c0.1-0.1,3.7-1.7,6.8-0.8
			c0.4,0.1,0.6,0.5,0.4,0.8c-0.1,0.4-0.5,0.6-0.8,0.4c-2.6-0.8-5.8,0.7-5.8,0.7C1840.7,499.8,1840.5,499.8,1840.4,499.8z"/>
		<path class="st52" d="M1860.1,503.7c-0.1,0-0.3-0.1-0.4-0.2c0,0-2.4-2.6-5.1-2.9c-0.4,0-0.6-0.4-0.6-0.7c0-0.4,0.4-0.6,0.7-0.6
			c3.3,0.3,5.9,3.2,6,3.3c0.2,0.3,0.2,0.7,0,0.9C1860.5,503.7,1860.3,503.7,1860.1,503.7z"/>
		<path class="st57" d="M1847,518.3l-6.5-1.9l1,1.7c1.1,1.9,1.2,2.8,1.8,3.4c0.3,0.3,1.6,0.7,2.9,0.9c1.3,0.3,2.6,0.4,3,0.3
			c0.8-0.2,1.2-1.1,2.9-2.4l1.6-1.2L1847,518.3z"/>
		<path class="st58" d="M1849.7,516.7c-0.8-0.2-1.7,0.7-2.5,0.6c-0.8-0.2-1.2-1.3-2-1.5c0,0-2.2-0.4-4.6,0.6
			c1.8,1.1,3.8,2.4,6.3,2.7c2.5,0.6,4.8,0.1,6.9-0.1C1851.9,517.1,1849.7,516.7,1849.7,516.7z"/>
		<path class="st51" d="M1840,485.9l-0.6,2c0,0,12.9,8,18.5,10.9c5.7,2.9,6.6,3.1,6.6,3.1l1.2-10.9
			C1865.7,491,1853.9,482.4,1840,485.9z"/>
		<polygon class="st24" points="1840.4,530.4 1832,529.6 1826.5,541.3 1829.1,557.7 1825.1,578 1834.9,579.6 1845.1,527.9 		"/>
		<path class="st29" d="M1841.5,545.9c-0.9,4.5-5.2,7.4-9.7,6.5c-4.5-0.9-7.4-5.2-6.5-9.7c0.9-4.5,5.2-7.4,9.7-6.5
			C1839.5,537.1,1842.4,541.4,1841.5,545.9z"/>
		<polygon class="st23" points="1848.5,532 1856.6,534.4 1857.3,547.3 1848.6,561.5 1844.6,581.8 1834.9,579.6 1845.1,527.9 		"/>
		<path class="st28" d="M1857.8,549.1c-0.9,4.5-5.2,7.4-9.7,6.5c-4.5-0.9-7.4-5.2-6.5-9.7c0.9-4.5,5.2-7.4,9.7-6.5
			C1855.8,540.3,1858.7,544.6,1857.8,549.1z"/>
		<path class="st24" d="M1817.3,573.4c-0.7-0.1-1.4-0.7-1.6-1.5l-7.5-24.7c-0.3-0.9,0.1-1.8,0.8-2.4l21.7-14.9
			c1-0.7,2.3-0.4,2.9,0.5c0.7,1,0.4,2.3-0.5,2.9l-20.4,14.1l7.1,23.3c0.3,1.1-0.3,2.3-1.4,2.6
			C1817.9,573.5,1817.6,573.5,1817.3,573.4z"/>
		<path class="st23" d="M1853.4,580.5c-0.3-0.1-0.6-0.2-0.9-0.4c-0.9-0.7-1-2.1-0.3-3l15.4-18.8l-13.5-20.8c-0.6-1-0.4-2.3,0.6-2.9
			c1-0.6,2.3-0.4,2.9,0.6l14.4,22c0.5,0.8,0.4,1.8-0.1,2.5l-16.4,20C1854.9,580.4,1854.1,580.6,1853.4,580.5z"/>
		<polygon class="st23" points="1846.7,533 1848.5,532 1848.7,528.1 1846.3,526.5 1845.2,527.5 1844.8,529.4 		"/>
		<path class="st2" d="M1800.7,645c-0.1,0.5-0.2,1-0.4,1.5h40.8c8.4-9,15.3-21.5,18.7-38.8c4.4-22.2-11-32.9-11-32.9s-11,3.9-25-4.9
			c0,0-19.1,1.2-24,26C1794.9,620.7,1803.9,628.7,1800.7,645z"/>
		<path class="st59" d="M1800.7,645c-0.1,0.5-0.2,1-0.4,1.5h15.7c25.3-27,19.1-68.3,19.1-68.3l0.6-3.2c-3.5-0.8-7.6-2.3-12-5.1
			c0,0-19.1,1.2-24,26C1794.9,620.7,1803.9,628.7,1800.7,645z"/>
		<path class="st28" d="M1854.3,574.3l-18,1.5l-1.4-0.3l-16.1-8.2c-0.7,1.3-0.1,2.8,1.1,3.5l13.7,7l2.8,0.6l15.4-1.3
			C1853.4,577,1854.5,575.8,1854.3,574.3z"/>
		<path class="st29" d="M1851.5,571.9l-15.4,1.3l-13.7-7c-1.3-0.7-2.8-0.1-3.5,1.1l16.1,8.2l1.4,0.3l18-1.5
			C1854.2,572.9,1853,571.8,1851.5,571.9z"/>
		<path class="st28" d="M1832.8,547.5c-3.6-0.7-6.2-3.7-6.6-7.2c-0.4,0.7-0.7,1.5-0.9,2.4c-0.9,4.5,2,8.8,6.5,9.7
			c4.5,0.9,8.8-2,9.7-6.5c0.2-0.9,0.2-1.7,0.1-2.5C1840,546.5,1836.4,548.2,1832.8,547.5z"/>
		<path class="st29" d="M1851.3,539.4c-3.6-0.7-7.2,1.1-8.9,4.1c0.4,3.5,3,6.5,6.6,7.2c3.6,0.7,7.2-1.1,8.9-4.1
			C1857.5,543.1,1854.9,540.1,1851.3,539.4z"/>
		<path class="st0" d="M1826.2,591.6c-0.7,3.7-4.3,6.1-8,5.4c-3.7-0.7-6.1-4.3-5.4-8c0.7-3.7,4.3-6.1,8-5.4
			C1824.5,584.3,1826.9,587.9,1826.2,591.6z"/>
		<path class="st0" d="M1820.3,606.4c-0.4,2.1-2.5,3.5-4.7,3.1c-2.1-0.4-3.5-2.5-3.1-4.7c0.4-2.1,2.5-3.5,4.7-3.1
			C1819.4,602.1,1820.8,604.2,1820.3,606.4z"/>
		<path class="st0" d="M1844.4,474.7c-1.2,2-3.8,2.6-5.8,1.4c-2-1.2-2.6-3.8-1.4-5.8c1.2-2,3.8-2.6,5.8-1.4
			C1845,470.2,1845.6,472.7,1844.4,474.7z"/>
		<path class="st0" d="M1831.6,480.9c-0.7,1.2-2.2,1.5-3.4,0.8c-1.2-0.7-1.5-2.2-0.8-3.4c0.7-1.2,2.2-1.5,3.4-0.8
			C1831.9,478.2,1832.3,479.7,1831.6,480.9z"/>
		<g>
			<path class="st59" d="M1759,646.5c-4.6-1.3-9.4-1.4-13.2,0H1759z"/>
		</g>
	</g>
	<g>
		<path class="st2" d="M115.1,644.9c-2.7-5-7.5-10.3-16.3-14.5C76,619.5,65.9,626.2,51,619.1c-14.9-7.1-14.7-37.7-14.7-37.7
			s-14.4,32.4-3.2,63.5H115.1z"/>
		<path class="st59" d="M54.9,644.9h60.2c-2.7-5-7.5-10.3-16.3-14.5C76,619.5,65.9,626.2,51,619.1s-14.7-37.7-14.7-37.7
			C32.2,611.8,41.6,631.8,54.9,644.9z"/>
		<path class="st0" d="M89.1,644.9c0.4-1.7-0.5-3.6-2.2-4.4c-2-0.9-4.3-0.1-5.3,1.9c-0.4,0.8-0.5,1.7-0.3,2.5H89.1z"/>
		<g>
			<path class="st2" d="M62.8,563.4c-6.4-3.2-16.9-0.3-23,4.9c-6.1,5.2-6.1,11.2-4,18L62.8,563.4z"/>
			<path class="st59" d="M62.8,563.4c2.1,6.8-2.4,16.7-8.6,21.9s-12.1,4.2-18.4,1L62.8,563.4z"/>
		</g>
		<g>
			<path class="st2" d="M22.9,553.4c-5.1,5-5.8,15.9-2.9,23.4c2.9,7.5,8.6,9.4,15.7,9.6L22.9,553.4z"/>
			<path class="st59" d="M22.9,553.4c7.1,0.2,15,7.8,17.9,15.3c2.9,7.5,0,12.8-5.1,17.7L22.9,553.4z"/>
		</g>
	</g>
	<g>
		<path class="st2" d="M1806.2,646.5c-19.3-7.7-28.9-2.5-42.7-9.1c-14.9-7.1-14.7-37.7-14.7-37.7s-9.7,21.8-7,46.7H1806.2z"/>
		<path class="st59" d="M1806.2,646.5c-19.3-7.7-28.9-2.5-42.7-9.1c-14.9-7.1-14.7-37.7-14.7-37.7c-2.7,19.6,0.3,34.9,6.3,46.7
			H1806.2z"/>
		<g>
			<path class="st2" d="M1775.3,581.7c-6.4-3.2-16.9-0.3-23,4.9c-6.1,5.2-6.1,11.2-4,18L1775.3,581.7z"/>
			<path class="st59" d="M1775.3,581.7c2.1,6.8-2.4,16.7-8.6,21.9c-6.1,5.2-12.1,4.2-18.4,1L1775.3,581.7z"/>
		</g>
		<g>
			<path class="st2" d="M1735.4,571.7c-5.1,5-5.8,15.9-2.9,23.4c2.9,7.5,8.6,9.4,15.7,9.6L1735.4,571.7z"/>
			<path class="st59" d="M1735.4,571.7c7.1,0.2,15,7.8,17.9,15.3c2.9,7.5,0,12.8-5.1,17.7L1735.4,571.7z"/>
		</g>
	</g>
	<g>
		<path class="st51" d="M1609,549.9c-0.8,6.5,3.8,12.4,10.3,13.2l82.3,10.1c6.5,0.8,12.4-3.8,13.2-10.3l0,0
			c0.8-6.5-3.8-12.4-10.3-13.2l-82.3-10.1C1615.8,538.8,1609.8,543.4,1609,549.9L1609,549.9z"/>
		<path class="st52" d="M1701.7,573.2l-82.3-10.1c-6.5-0.8-11.1-6.7-10.3-13.2l105.9,13C1714.1,569.4,1708.2,574,1701.7,573.2z"/>
		<g>
			<path class="st60" d="M1572.5,464.1l6.4-51.8c0.6-4.8,5-8.2,9.8-7.7l-7.4,60.5L1572.5,464.1z"/>
			<path class="st61" d="M1581.2,465.2l7.4-60.5c4.8,0.6,8.2,5,7.7,9.8l-6.4,51.8L1581.2,465.2z"/>
		</g>
		<path class="st51" d="M1533.8,540.7c-0.8,6.5-6.7,11.1-13.2,10.3l-82.3-10.1c-6.5-0.8-11.1-6.7-10.3-13.2l0,0
			c0.8-6.5,6.7-11.1,13.2-10.3l82.3,10.1C1529.9,528.2,1534.6,534.2,1533.8,540.7L1533.8,540.7z"/>
		<path class="st52" d="M1438.2,540.9l82.3,10.1c6.5,0.8,12.4-3.8,13.2-10.3l-105.9-13C1427.1,534.2,1431.7,540.1,1438.2,540.9z"/>
		<path class="st52" d="M1589.6,585.8c-0.5,4.2-4.3,7.1-8.5,6.6l-30.6-3.7c-4.2-0.5-7.1-4.3-6.6-8.5l3.7-30.1
			c0.5-4.2,4.3-7.1,8.5-6.6l30.6,3.7c4.2,0.5,7.1,4.3,6.6,8.5L1589.6,585.8z"/>
		<path class="st7" d="M1582.1,458c-10.3-10.3-24-17.4-39.6-19.3c-37.2-4.6-71,21.9-75.5,59l108.6,13.3L1582.1,458z"/>
		<path class="st8" d="M1684.2,524.4c4.6-37.2-21.9-71-59-75.5c-15.6-1.9-30.6,1.6-43.1,9.1l-6.5,53.1L1684.2,524.4z"/>
		<path class="st8" d="M1467,497.8c-4.6,37.2,21.9,71,59,75.5c15.6,1.9,30.6-1.6,43.1-9.1l6.5-53.1L1467,497.8z"/>
		<path class="st7" d="M1575.6,511.1l-6.5,53.1c10.3,10.3,24,17.4,39.6,19.3c37.2,4.6,71-21.9,75.5-59L1575.6,511.1z"/>
		<path class="st0" d="M1537.6,462.7c-0.7,5.7-5.9,9.8-11.7,9.1c-5.7-0.7-9.8-5.9-9.1-11.7c0.7-5.7,5.9-9.8,11.7-9.1
			C1534.2,451.7,1538.3,456.9,1537.6,462.7z"/>
		<path class="st62" d="M1621.5,516.8c-3.1,25.4-26.2,43.4-51.6,40.3c-25.4-3.1-43.4-26.2-40.3-51.6c3.1-25.4,26.2-43.4,51.6-40.3
			C1606.6,468.3,1624.6,491.4,1621.5,516.8z"/>
		<path class="st0" d="M1514.1,475.9c-0.4,3-3.1,5.2-6.1,4.8c-3-0.4-5.2-3.1-4.8-6.1c0.4-3,3.1-5.2,6.1-4.8
			C1512.3,470.1,1514.5,472.9,1514.1,475.9z"/>
		<path class="st28" d="M1613.2,515.7c2.6-20.8-12.2-39.7-33-42.3l-4.6,37.6L1613.2,515.7z"/>
		<path class="st29" d="M1580.2,473.5c-20.8-2.6-39.7,12.2-42.3,33l37.6,4.6L1580.2,473.5z"/>
		<path class="st28" d="M1537.9,506.5c-2.6,20.8,12.2,39.7,33,42.3l4.6-37.6L1537.9,506.5z"/>
		<path class="st29" d="M1575.6,511.1l-4.6,37.6c20.8,2.6,39.7-12.2,42.3-33L1575.6,511.1z"/>
		<path class="st14" d="M1571.3,489.4c-0.4,3.3-3.4,5.7-6.7,5.2c-3.3-0.4-5.7-3.4-5.2-6.7c0.4-3.3,3.4-5.7,6.7-5.2
			C1569.4,483.1,1571.7,486.1,1571.3,489.4z"/>
		<path class="st14" d="M1556.3,498.4c-0.3,2.1-2.1,3.6-4.2,3.3c-2.1-0.3-3.6-2.1-3.3-4.2c0.3-2.1,2.1-3.6,4.2-3.3
			C1555,494.4,1556.5,496.3,1556.3,498.4z"/>
		<path class="st62" d="M1625.3,448.9c27.1,12.8,44.2,41.9,40.3,73.2c-3.8,31.3-27.5,55.4-56.8,61.3c37.1,4.5,70.8-21.9,75.4-59
			C1688.7,487.3,1662.4,453.6,1625.3,448.9z"/>
		<path class="st62" d="M1542.4,438.8c-29.4,5.9-53,30-56.8,61.3c-3.8,31.3,13.3,60.4,40.3,73.2c-37.1-4.6-63.4-38.4-58.9-75.5
			C1471.6,460.7,1505.3,434.3,1542.4,438.8z"/>
		<g>
			
				<rect x="1445.3" y="561.7" transform="matrix(0.1218 -0.9926 0.9926 0.1218 745.2118 1970.9495)" class="st63" width="82.3" height="5.2"/>
			
				<rect x="1483.8" y="523.2" transform="matrix(0.1218 -0.9926 0.9926 0.1218 745.239 1970.9645)" class="st63" width="5.2" height="82.3"/>
			
				<rect x="1483.8" y="523.2" transform="matrix(0.788 -0.6157 0.6157 0.788 -32.305 1034.8859)" class="st63" width="5.2" height="82.3"/>
			
				<rect x="1445.3" y="561.7" transform="matrix(0.788 -0.6157 0.6157 0.788 -32.3298 1034.8057)" class="st63" width="82.3" height="5.2"/>
			<path class="st64" d="M1492.1,518.3c-25.4-3.1-48.5,15-51.7,40.4c-3.1,25.4,15,48.5,40.4,51.6c25.4,3.1,48.5-15,51.7-40.4
				C1535.5,544.6,1517.4,521.5,1492.1,518.3z M1481.4,605.2c-22.6-2.8-38.6-23.3-35.8-45.8c2.8-22.6,23.3-38.6,45.8-35.8
				c22.6,2.8,38.6,23.3,35.8,45.8C1524.5,591.9,1504,608,1481.4,605.2z"/>
			<path class="st63" d="M1491.4,523.5c-22.6-2.8-43.1,13.3-45.8,35.8c-2.8,22.6,13.3,43.1,35.8,45.8c22.6,2.8,43.1-13.3,45.8-35.8
				C1530,546.8,1514,526.3,1491.4,523.5z M1482,600c-19.7-2.4-33.7-20.4-31.3-40c2.4-19.7,20.4-33.7,40-31.3
				c19.7,2.4,33.7,20.4,31.3,40C1519.7,588.4,1501.7,602.4,1482,600z"/>
			<path class="st64" d="M1494.9,565.4c-0.6,4.7-4.9,8-9.5,7.5c-4.7-0.6-8-4.9-7.5-9.5c0.6-4.7,4.9-8,9.5-7.5
				C1492.2,556.4,1495.5,560.7,1494.9,565.4z"/>
		</g>
		<g>
			
				<rect x="1608.1" y="581.7" transform="matrix(0.1218 -0.9926 0.9926 0.1218 868.4592 2150.1675)" class="st63" width="82.3" height="5.2"/>
			
				<rect x="1646.7" y="543.2" transform="matrix(0.1218 -0.9926 0.9926 0.1218 868.4193 2150.1492)" class="st63" width="5.2" height="82.3"/>
			
				<rect x="1608.1" y="581.7" transform="matrix(0.788 -0.6157 0.6157 0.788 -10.0773 1139.3949)" class="st63" width="82.3" height="5.2"/>
			
				<rect x="1646.7" y="543.2" transform="matrix(0.7879 -0.6158 0.6158 0.7879 -10.047 1139.4856)" class="st63" width="5.2" height="82.3"/>
			<path class="st64" d="M1603.3,578.7c-3.1,25.4,15,48.5,40.4,51.6c25.4,3.1,48.5-15,51.7-40.4c3.1-25.4-15-48.5-40.4-51.7
				C1629.5,535.2,1606.4,553.3,1603.3,578.7z M1608.4,579.3c2.8-22.6,23.3-38.6,45.8-35.8c22.6,2.8,38.6,23.3,35.8,45.8
				c-2.8,22.6-23.3,38.6-45.8,35.8C1621.7,622.4,1605.7,601.9,1608.4,579.3z"/>
			<path class="st63" d="M1608.4,579.3c-2.8,22.6,13.3,43.1,35.8,45.8c22.6,2.8,43.1-13.3,45.8-35.8c2.8-22.6-13.3-43.1-35.8-45.8
				C1631.7,540.7,1611.2,556.8,1608.4,579.3z M1613.6,580c2.4-19.7,20.4-33.7,40-31.3c19.7,2.4,33.7,20.4,31.3,40
				c-2.4,19.7-20.4,33.7-40,31.3C1625.2,617.6,1611.2,599.6,1613.6,580z"/>
			<path class="st64" d="M1640.8,583.3c-0.6,4.7,2.8,9,7.5,9.5c4.7,0.6,9-2.8,9.5-7.5c0.6-4.7-2.8-9-7.5-9.5
				C1645.6,575.2,1641.3,578.6,1640.8,583.3z"/>
		</g>
		<path class="st51" d="M1544.2,577.7l-0.3,2.4c-0.5,4.2,2.5,8,6.6,8.5l30.6,3.7c4.2,0.5,8-2.5,8.5-6.6l0.3-2.4L1544.2,577.7z"/>
	</g>
	<g>
		<g>
			<g>
				<path class="st0" d="M355.2,567.2c0.6-0.1,1.1,0.3,1.2,0.8l0,0c0.1,0.6-0.3,1.1-0.8,1.2l-7.2,1.1c-0.6,0.1-1.1-0.3-1.2-0.8l0,0
					c-0.1-0.6,0.3-1.1,0.8-1.2L355.2,567.2z"/>
				<path class="st0" d="M325,524c0.2-0.5,0.8-0.8,1.3-0.6l0,0c0.5,0.2,0.8,0.8,0.6,1.3l-2.5,6.8c-0.2,0.5-0.8,0.8-1.3,0.6l0,0
					c-0.5-0.2-0.8-0.8-0.6-1.3L325,524z"/>
				<path class="st0" d="M354.8,594.5c0.5,0.2,0.8,0.8,0.6,1.3l0,0c-0.2,0.5-0.8,0.8-1.3,0.6l-6.8-2.5c-0.5-0.2-0.8-0.8-0.6-1.3l0,0
					c0.2-0.5,0.8-0.8,1.3-0.6L354.8,594.5z"/>
				<path class="st0" d="M338.4,548.6c-0.4,0.4-0.5,1-0.1,1.4l0,0c0.4,0.4,1,0.5,1.4,0.1l5.5-4.8c0.4-0.4,0.5-1,0.1-1.4l0,0
					c-0.4-0.4-1-0.5-1.4-0.1L338.4,548.6z"/>
			</g>
			<g>
				<path class="st0" d="M200.7,591.9c-0.6,0.1-0.9,0.6-0.8,1.2l0,0c0.1,0.6,0.6,0.9,1.2,0.8l7.2-1.1c0.6-0.1,0.9-0.6,0.8-1.2l0,0
					c-0.1-0.6-0.6-0.9-1.2-0.8L200.7,591.9z"/>
				<path class="st0" d="M215.9,541.4c-0.3-0.4-1-0.5-1.4-0.2l0,0c-0.4,0.3-0.5,1-0.2,1.4l4.5,5.7c0.3,0.4,1,0.5,1.4,0.2l0,0
					c0.4-0.3,0.5-1,0.2-1.4L215.9,541.4z"/>
				<path class="st0" d="M209.6,617.6c-0.4,0.3-0.5,1-0.2,1.4l0,0c0.3,0.4,1,0.5,1.4,0.2l5.7-4.5c0.4-0.3,0.5-1,0.2-1.4l0,0
					c-0.3-0.4-1-0.5-1.4-0.2L209.6,617.6z"/>
				<path class="st0" d="M210.8,568.9c0.5,0.2,0.8,0.8,0.5,1.3l0,0c-0.2,0.5-0.8,0.8-1.3,0.5l-6.7-2.9c-0.5-0.2-0.8-0.8-0.5-1.3l0,0
					c0.2-0.5,0.8-0.8,1.3-0.5L210.8,568.9z"/>
			</g>
		</g>
		<polygon class="st10" points="277.3,538.6 310.4,547.6 335.2,594.2 328.7,623.3 291.8,629.2 266.1,573.6 		"/>
		<g>
			<g>
				<path class="st7" d="M262.1,417.3c5.4-7.5,3.7-17.9-3.7-23.3l-9.8,13.5L262.1,417.3z"/>
				<path class="st65" d="M258.4,394c-7.5-5.4-17.9-3.7-23.3,3.7l13.5,9.8L258.4,394z"/>
				<path class="st7" d="M235,397.7c-5.4,7.5-3.7,17.9,3.7,23.3l9.8-13.5L235,397.7z"/>
				<path class="st65" d="M248.6,407.5l-9.8,13.5c7.5,5.4,17.9,3.7,23.3-3.7L248.6,407.5z"/>
			</g>
			
				<rect x="251.5" y="472.7" transform="matrix(0.9875 -0.1574 0.1574 0.9875 -78.2519 48.3704)" class="st0" width="29.4" height="90.8"/>
			
				<rect x="266.1" y="471.6" transform="matrix(0.9875 -0.1574 0.1574 0.9875 -77.9761 49.4963)" class="st3" width="14.7" height="90.8"/>
			
				<rect x="223.6" y="462.2" transform="matrix(0.9875 -0.1574 0.1574 0.9875 -70.4257 46.4771)" class="st7" width="69.1" height="11.1"/>
			
				<rect x="243.9" y="420.4" transform="matrix(0.9875 -0.1574 0.1574 0.9875 -66.3312 45.4856)" class="st56" width="20.2" height="42.2"/>
			
				<rect x="224.1" y="467.8" transform="matrix(0.9875 -0.1574 0.1574 0.9875 -70.8565 46.5564)" class="st65" width="68.8" height="5.6"/>
			<polygon class="st7" points="216.3,492 230.6,472.2 213.6,474.9 			"/>
			<polygon class="st8" points="196.5,477.6 216.3,492 213.6,474.9 			"/>
			<polygon class="st8" points="230.6,472.2 210.8,457.8 213.6,474.9 			"/>
			<polygon class="st7" points="213.6,474.9 210.8,457.8 196.5,477.6 			"/>
			
				<rect x="205.8" y="467.2" transform="matrix(0.587 -0.8096 0.8096 0.587 -296.2628 369.0413)" class="st65" width="15.5" height="15.5"/>
			
				<rect x="208.1" y="469.4" transform="matrix(0.587 -0.8096 0.8096 0.587 -296.2594 369.0248)" class="st52" width="10.9" height="10.9"/>
			<polygon class="st56" points="205.9,476.1 221.2,473.7 212.3,467.3 			"/>
			<g>
				<polygon class="st7" points="285.7,463.4 305.5,477.7 302.8,460.7 				"/>
				<polygon class="st8" points="300,443.6 285.7,463.4 302.8,460.7 				"/>
				<polygon class="st8" points="305.5,477.7 319.8,457.9 302.8,460.7 				"/>
				<polygon class="st7" points="302.8,460.7 319.8,457.9 300,443.6 				"/>
				
					<rect x="295" y="452.9" transform="matrix(0.587 -0.8096 0.8096 0.587 -247.9061 435.3801)" class="st65" width="15.5" height="15.5"/>
				
					<rect x="297.3" y="455.2" transform="matrix(0.587 -0.8096 0.8096 0.587 -247.9061 435.3784)" class="st52" width="10.9" height="10.9"/>
				<polygon class="st56" points="295.1,461.9 310.4,459.4 301.5,453 				"/>
			</g>
			
				<rect x="253.9" y="419.6" transform="matrix(0.9875 -0.1574 0.1574 0.9875 -66.1454 46.2602)" class="st52" width="10.1" height="42.2"/>
			<g>
				
					<rect x="246.4" y="456.1" transform="matrix(0.9875 -0.1574 0.1574 0.9875 -68.7816 46.08)" class="st1" width="20.2" height="2.3"/>
				
					<rect x="245.4" y="449.8" transform="matrix(0.9875 -0.1574 0.1574 0.9875 -67.799 45.8404)" class="st1" width="20.2" height="2.3"/>
				
					<rect x="244.4" y="443.5" transform="matrix(0.9875 -0.1574 0.1574 0.9875 -66.8244 45.607)" class="st1" width="20.2" height="2.3"/>
				
					<rect x="243.4" y="437.2" transform="matrix(0.9875 -0.1574 0.1574 0.9875 -65.8419 45.3674)" class="st1" width="20.2" height="2.3"/>
				
					<rect x="242.4" y="430.9" transform="matrix(0.9875 -0.1574 0.1574 0.9875 -64.8677 45.1345)" class="st1" width="20.2" height="2.3"/>
				
					<rect x="241.4" y="424.6" transform="matrix(0.9875 -0.1574 0.1574 0.9875 -63.8885 44.8974)" class="st1" width="20.2" height="2.3"/>
			</g>
			<path class="st0" d="M249.4,397.5c0.3,1.8-0.9,3.5-2.8,3.8c-1.8,0.3-3.5-0.9-3.8-2.8c-0.3-1.8,0.9-3.5,2.8-3.8
				C247.4,394.5,249.1,395.7,249.4,397.5z"/>
			<path class="st0" d="M245.2,406.1c0.4,2.7-1.4,5.2-4.1,5.6c-2.7,0.4-5.2-1.4-5.6-4.1c-0.4-2.7,1.4-5.2,4.1-5.6
				C242.3,401.6,244.8,403.4,245.2,406.1z"/>
		</g>
		<polygon class="st9" points="255.7,542 287.8,560.6 305.6,594.6 301.5,627.6 246.7,636.4 233.9,598.4 243.9,552.8 		"/>
		<path class="st0" d="M261.7,562.5c0.4,2.7-1.4,5.2-4.1,5.6c-2.7,0.4-5.2-1.4-5.6-4.1c-0.4-2.7,1.4-5.2,4.1-5.6
			C258.7,558,261.3,559.9,261.7,562.5z"/>
		<path class="st0" d="M264.9,582.8c0.9,5.6-2.9,10.8-8.5,11.7c-5.6,0.9-10.8-2.9-11.7-8.5c-0.9-5.6,2.9-10.8,8.5-11.7
			C258.8,573.5,264.1,577.3,264.9,582.8z"/>
	</g>
	<path class="st66" d="M118.2,655.4c548.1-96.1,1135.7-96.1,1683.8,0H118.2z"/>
	<g>
		<path class="st0" d="M1160.6,55.5c-1.9,0-3.7,0.3-5.3,0.8c-6-9.6-16.7-16-28.8-16c-11.5,0-21.6,5.7-27.8,14.4
			c-3.5-2.2-7.7-3.5-12.2-3.5c-12.7,0-23.1,10.3-23.1,23.1c0,12.7,10.3,23.1,23.1,23.1c4.5,0,8.6-1.3,12.2-3.5
			c6.1,8.7,16.3,14.4,27.8,14.4c12.1,0,22.8-6.4,28.8-16c1.7,0.5,3.5,0.8,5.3,0.8c10.4,0,18.8-8.4,18.8-18.8
			C1179.4,63.9,1171,55.5,1160.6,55.5z"/>
		<path class="st67" d="M1095.2,71.7c0,5.4-4.4,9.8-9.8,9.8c-5.4,0-9.8-4.4-9.8-9.8s4.4-9.8,9.8-9.8
			C1090.8,61.9,1095.2,66.3,1095.2,71.7z"/>
		<path class="st67" d="M1112.5,61.9c0,3.5-2.8,6.3-6.3,6.3c-3.5,0-6.3-2.8-6.3-6.3c0-3.5,2.8-6.3,6.3-6.3
			C1109.7,55.7,1112.5,58.5,1112.5,61.9z"/>
	</g>
	<g>
		<path class="st0" d="M629.8,83.7c-1.5,0-2.9,0.2-4.2,0.6c-4.7-7.6-13.1-12.6-22.7-12.6c-9,0-17,4.5-21.9,11.4
			c-2.8-1.7-6.1-2.8-9.6-2.8c-10,0-18.2,8.1-18.2,18.2s8.1,18.2,18.2,18.2c3.5,0,6.8-1,9.6-2.8c4.8,6.9,12.8,11.4,21.9,11.4
			c9.6,0,18-5,22.7-12.6c1.3,0.4,2.7,0.6,4.2,0.6c8.2,0,14.8-6.6,14.8-14.8C644.6,90.3,637.9,83.7,629.8,83.7z"/>
		<path class="st67" d="M578.2,96.5c0,4.3-3.4,7.7-7.7,7.7s-7.7-3.4-7.7-7.7c0-4.3,3.4-7.7,7.7-7.7S578.2,92.2,578.2,96.5z"/>
		<path class="st67" d="M591.8,88.8c0,2.7-2.2,4.9-4.9,4.9c-2.7,0-4.9-2.2-4.9-4.9c0-2.7,2.2-4.9,4.9-4.9
			C589.6,83.8,591.8,86,591.8,88.8z"/>
	</g>
	<g>
		<path class="st0" d="M159.2,266.2c-1,0-2,0.2-2.9,0.4c-3.3-5.2-9.1-8.7-15.7-8.7c-6.3,0-11.8,3.1-15.2,7.9
			c-1.9-1.2-4.2-1.9-6.6-1.9c-7,0-12.6,5.6-12.6,12.6c0,7,5.6,12.6,12.6,12.6c2.4,0,4.7-0.7,6.6-1.9c3.4,4.8,8.9,7.9,15.2,7.9
			c6.6,0,12.4-3.5,15.7-8.7c0.9,0.3,1.9,0.4,2.9,0.4c5.7,0,10.3-4.6,10.3-10.3C169.5,270.8,164.9,266.2,159.2,266.2z"/>
		<path class="st67" d="M123.5,275c0,2.9-2.4,5.3-5.3,5.3c-2.9,0-5.3-2.4-5.3-5.3c0-2.9,2.4-5.3,5.3-5.3
			C121.1,269.7,123.5,272.1,123.5,275z"/>
		<path class="st67" d="M132.9,269.7c0,1.9-1.5,3.4-3.4,3.4c-1.9,0-3.4-1.5-3.4-3.4c0-1.9,1.5-3.4,3.4-3.4
			C131.4,266.3,132.9,267.8,132.9,269.7z"/>
	</g>
	<g>
		<path class="st0" d="M1787.3,369.5c-1.4,0-2.7,0.2-3.9,0.6c-4.4-7-12.2-11.7-21.1-11.7c-8.4,0-15.8,4.2-20.3,10.6
			c-2.6-1.6-5.6-2.6-8.9-2.6c-9.3,0-16.9,7.6-16.9,16.9c0,9.3,7.6,16.9,16.9,16.9c3.3,0,6.3-0.9,8.9-2.6
			c4.5,6.4,11.9,10.6,20.3,10.6c8.9,0,16.7-4.7,21.1-11.7c1.2,0.4,2.6,0.6,3.9,0.6c7.6,0,13.8-6.2,13.8-13.8
			C1801.1,375.7,1794.9,369.5,1787.3,369.5z"/>
		<path class="st67" d="M1739.4,381.4c0,4-3.2,7.2-7.2,7.2s-7.2-3.2-7.2-7.2c0-4,3.2-7.2,7.2-7.2S1739.4,377.4,1739.4,381.4z"/>
		<circle class="st67" cx="1747.5" cy="374.2" r="4.6"/>
	</g>
	<g>
		<path class="st0" d="M1680.1,282.4c-6.9-5.8-13.8-6.7-19.6-5c-6-9.6-16.7-16-28.8-16c-11.5,0-21.6,5.7-27.8,14.4
			c-7.7-4.8-18.3-5.3-28.6,2.4c-0.4,0.3-0.7,0.6-1,1c-13.6,18.8-0.4,39.2,17.5,39.2c4.5,0,8.6-1.3,12.2-3.5
			c6.1,8.7,16.3,14.4,27.8,14.4c12.1,0,22.8-6.4,28.8-16c1.7,0.5,3.5,0.8,5.3,0.8C1680.3,314.3,1691,297.7,1680.1,282.4z"/>
		<path class="st67" d="M1597.8,285.7c8,10.5-3.9,22.3-14.3,14.3C1575.5,289.6,1587.3,277.8,1597.8,285.7z"/>
		<path class="st67" d="M1616,278.5c5.1,6.7-2.5,14.3-9.2,9.2C1601.7,281,1609.3,273.4,1616,278.5z"/>
	</g>
	<path class="st68" d="M1884.4,621.4c0,9.8-8,17.8-17.8,17.8s-17.8-8-17.8-17.8c0,9.8-8,17.8-17.8,17.8c-9.8,0-17.8-8-17.8-17.8
		c0,9.8-8,17.8-17.8,17.8c-9.8,0-17.8-8-17.8-17.8c0,9.8-8,17.8-17.8,17.8c-9.8,0-17.8-8-17.8-17.8c0,9.8-8,17.8-17.8,17.8
		c-9.8,0-17.8-8-17.8-17.8c0,9.8-8,17.8-17.8,17.8s-17.8-8-17.8-17.8c0,9.8-8,17.8-17.8,17.8s-17.8-8-17.8-17.8
		c0,9.8-8,17.8-17.8,17.8s-17.8-8-17.8-17.8c0,9.8-8,17.8-17.8,17.8c-9.8,0-17.8-8-17.8-17.8c0,9.8-8,17.8-17.8,17.8
		c-9.8,0-17.8-8-17.8-17.8c0,9.8-8,17.8-17.8,17.8c-9.8,0-17.8-8-17.8-17.8c0,9.8-8,17.8-17.8,17.8c-9.8,0-17.8-8-17.8-17.8
		c0,9.8-8,17.8-17.8,17.8c-9.8,0-17.8-8-17.8-17.8c0,9.8-8,17.8-17.8,17.8s-17.8-8-17.8-17.8c0,9.8-8,17.8-17.8,17.8
		c-9.8,0-17.8-8-17.8-17.8c0,9.8-8,17.8-17.8,17.8c-9.8,0-17.8-8-17.8-17.8c0,9.8-8,17.8-17.8,17.8c-9.8,0-17.8-8-17.8-17.8
		c0,9.8-8,17.8-17.8,17.8c-9.8,0-17.8-8-17.8-17.8c0,9.8-8,17.8-17.8,17.8c-9.8,0-17.8-8-17.8-17.8c0,9.8-8,17.8-17.8,17.8
		c-9.8,0-17.8-8-17.8-17.8c0,9.8-8,17.8-17.8,17.8c-9.8,0-17.8-8-17.8-17.8c0,9.8-8,17.8-17.8,17.8c-9.8,0-17.8-8-17.8-17.8
		c0,9.8-8,17.8-17.8,17.8s-17.8-8-17.8-17.8c0,9.8-8,17.8-17.8,17.8c-9.8,0-17.8-8-17.8-17.8c0,9.8-8,17.8-17.8,17.8
		s-17.8-8-17.8-17.8c0,9.8-8,17.8-17.8,17.8c-9.8,0-17.8-8-17.8-17.8c0,9.8-8,17.8-17.8,17.8s-17.8-8-17.8-17.8
		c0,9.8-8,17.8-17.8,17.8c-9.8,0-17.8-8-17.8-17.8c0,9.8-8,17.8-17.8,17.8c-9.8,0-17.8-8-17.8-17.8c0,9.8-8,17.8-17.8,17.8
		c-9.8,0-17.8-8-17.8-17.8c0,9.8-8,17.8-17.8,17.8c-9.8,0-17.8-8-17.8-17.8c0,9.8-8,17.8-17.8,17.8c-9.8,0-17.8-8-17.8-17.8
		c0,9.8-8,17.8-17.8,17.8s-17.8-8-17.8-17.8c0,9.8-8,17.8-17.8,17.8c-9.8,0-17.8-8-17.8-17.8c0,9.8-8,17.8-17.8,17.8
		c-9.8,0-17.8-8-17.8-17.8c0,9.8-8,17.8-17.8,17.8c-9.8,0-17.8-8-17.8-17.8c0,9.8-8,17.8-17.8,17.8c-9.8,0-17.8-8-17.8-17.8
		c0,9.8-8,17.8-17.8,17.8c-9.8,0-17.8-8-17.8-17.8c0,9.8-8,17.8-17.8,17.8c-9.8,0-17.8-8-17.8-17.8c0,9.8-8,17.8-17.8,17.8
		c-9.8,0-17.8-8-17.8-17.8c0,9.8-8,17.8-17.8,17.8c-9.8,0-17.8-8-17.8-17.8c0,9.8-8,17.8-17.8,17.8c-9.8,0-17.8-8-17.8-17.8
		c0,9.8-8,17.8-17.8,17.8c-9.8,0-17.8-8-17.8-17.8c0,9.8-8,17.8-17.8,17.8c-9.8,0-17.8-8-17.8-17.8c0,9.8-8,17.8-17.8,17.8
		c-9.8,0-17.8-8-17.8-17.8c0,9.8-8,17.8-17.8,17.8c-9.8,0-17.8-8-17.8-17.8c0,9.8-8,17.8-17.8,17.8c-9.8,0-17.8-8-17.8-17.8
		c0,9.8-8,17.8-17.8,17.8c-9.8,0-17.8-8-17.8-17.8c0,9.8-8,17.8-17.8,17.8c-9.8,0-17.8-8-17.8-17.8c0,9.8-8,17.8-17.8,17.8
		c-9.8,0-17.8-8-17.8-17.8c0,9.8-8,17.8-17.8,17.8s-17.8-8-17.8-17.8c0,9.8-8,17.8-17.8,17.8c-9.8,0-17.8-8-17.8-17.8
		c0,25.1-25.7,34-35.6,34H1920C1910.2,655.4,1884.4,646.6,1884.4,621.4z"/>
	<g>
		<polygon class="st24" points="442.8,160.4 435,169 429.7,164.1 438.6,156.3 		"/>
		<path class="st23" d="M436.1,158.5l2.3,4c0,0,0.6,0.9,1.1,1.6l3.3-3.6l-4.3-4.1L436.1,158.5z"/>
		<path class="st24" d="M464.8,140.6c0,0-4.1,17.6-4.8,19.7c-0.6,2.1-3.6,5.4-8.2,5.4c-4.6,0-10.3-4.4-10.3-4.4l-9.2-10.7
			C432.3,150.7,452.7,126.1,464.8,140.6z"/>
		<path class="st23" d="M462.3,138.3c-3.3-0.7-9-1.1-17.2,1.9c-1.2,0.5-2.3,1-3.3,1.5c-3.8,2.9-7,6-8.5,7.7c-0.3,0.5-0.6,1-0.9,1.4
			l5,5.8c1.1-2.7,3.8-7.4,10.2-9.8c9.3-3.5,14.2-1.3,14.3-1.2c0.5,0.3,1,0.4,1.5,0.4c0.7-3,1.3-5.4,1.3-5.4
			C464,139.7,463.2,138.9,462.3,138.3z"/>
		<path class="st7" d="M463.6,138.6l-10.8-26.4l-19.1,1.9L422,102.5L405.4,116l-16.6,0.5l-6.2,4.8l-32.3-10.9l32.3,20.3l12.3-5.4
			l4.4,5.6l19.3-4.2l3.9,7.2h8.6l1.2,19.4c0,0,12.2-12.5,19.5-13.9C459.1,138.1,463.6,138.6,463.6,138.6z"/>
		<path class="st65" d="M440.3,129.7l-12.7-1.9l-4.4-6.9l-20.9,5.7l-7.4-4.9l-12.4,4.9l-12-3.5l12,7.6l12.3-5.4l4.4,5.6l19.3-4.2
			l3.9,7.2h8.6l1.2,19.4c0,0,5.3-5.4,11-9.5L440.3,129.7z"/>
		<path class="st0" d="M435,159c-0.2,0-0.4,0-0.6-0.1c-1.9-0.3-3.2-2.2-2.9-4.1c0.1-0.5,2.3-12.4,15.3-17.3
			c12.4-4.6,19.4-1.3,20.1-0.9c1.7,0.9,2.4,3.1,1.5,4.8c-0.9,1.7-3.1,2.4-4.8,1.5c-0.1-0.1-5-2.3-14.3,1.2
			c-9.2,3.5-10.8,11.7-10.8,11.8C438.2,157.8,436.7,159,435,159z"/>
		<path class="st21" d="M305.8,264.4c0,0-13.7-6.2-26.7,8.3c-12.9,14.5-27.6,22.4-27.6,22.4s27.5,31.7,52.3,7.6
			c16.8-16.3,13.3-26.3,10.5-29.5C311.6,269.9,305.8,264.4,305.8,264.4z"/>
		<path class="st22" d="M310.2,268.8c-2.3-2.3-4.4-4.3-4.4-4.3s-13.7-6.2-26.7,8.3c-12.9,14.5-27.6,22.4-27.6,22.4
			S277.2,315.7,310.2,268.8z"/>
		<path class="st54" d="M379.9,231.6c-0.8,0-1.7-0.4-2.1-1.2c-0.8-1.2-0.4-2.8,0.8-3.5L488.7,157c1.2-0.8,2.8-0.4,3.5,0.8
			c0.8,1.2,0.4,2.8-0.8,3.5l-110.2,69.9C380.8,231.5,380.3,231.6,379.9,231.6z"/>
		<path class="st7" d="M429.7,164.1l5.3,4.9l-3.9,20.5l-35.2,15.6l-4,26.6l-16.8,11.7l-1.3,10.2l-56.6,32.3L298.4,268
			c0,0-57.7-30-56.9-30.2c0.8-0.3,48.5-7.9,48.5-7.9l13.7-15l40.6,3.6l13-18.5l23.9-5.1l33-27.2L429.7,164.1z"/>
		<polygon class="st65" points="390.6,195 375.2,221.4 355.5,227.7 343.3,246.7 313.3,246.7 298.4,268 317.2,285.8 373.9,253.6 
			375.1,243.4 391.9,231.7 395.9,205.1 431.1,189.5 435,169 405.7,184.6 		"/>
		<path class="st7" d="M395.9,205.5c-1.6,0-3.2-0.9-4-2.4c-1-1.8-0.7-4,0.8-5.4l23-23.2c1.8-1.8,4.7-1.8,6.5,0
			c1.8,1.8,1.3,3-0.4,4.7l-11.7,14l21.3-4.6c2.5-0.5,4.9,1,5.4,3.5c0.5,2.5-1,4.9-3.5,5.4l-36.4,7.9
			C396.6,205.5,396.2,205.5,395.9,205.5z"/>
		<path class="st23" d="M446.9,191.1c0,3.6-2.9,6.6-6.6,6.6c-3.6,0-6.6-2.9-6.6-6.6c0-3.6,2.9-6.6,6.6-6.6
			C444,184.6,446.9,187.5,446.9,191.1z"/>
		<path class="st24" d="M440.3,184.6c-1.1,0-2.2,0.3-3.1,0.8c-0.5,0.9-0.8,2-0.8,3.1c0,3.6,2.9,6.6,6.6,6.6c1.1,0,2.2-0.3,3.1-0.8
			c0.5-0.9,0.8-2,0.8-3.1C446.9,187.5,444,184.6,440.3,184.6z"/>
	</g>
	<polygon class="st7" points="976.8,38.6 972.8,40.7 973.6,36.3 970.4,33.1 974.8,32.5 976.8,28.5 978.8,32.5 983.2,33.1 980,36.3 
		980.8,40.7 	"/>
	<polygon class="st7" points="192.4,173 188.5,175.1 189.2,170.7 186,167.6 190.5,166.9 192.4,162.9 194.4,166.9 198.9,167.6 
		195.6,170.7 196.4,175.1 	"/>
	<polygon class="st8" points="1143,167.5 1139.1,169.6 1139.8,165.2 1136.6,162 1141.1,161.4 1143,157.4 1145,161.4 1149.5,162 
		1146.3,165.2 1147,169.6 	"/>
	<polygon class="st8" points="319.8,164.2 315.9,166.3 316.6,161.8 313.4,158.7 317.9,158.1 319.8,154.1 321.8,158.1 326.3,158.7 
		323.1,161.8 323.8,166.3 	"/>
	<polygon class="st8" points="729.3,69.7 725.3,71.8 726.1,67.4 722.9,64.2 727.3,63.6 729.3,59.6 731.3,63.6 735.7,64.2 
		732.5,67.4 733.3,71.8 	"/>
	<polygon class="st8" points="607.4,222.1 603.4,224.2 604.2,219.8 601,216.7 605.4,216 607.4,212 609.4,216 613.8,216.7 
		610.6,219.8 611.4,224.2 	"/>
	<polygon class="st7" points="1732.2,244.7 1727.6,247.1 1728.5,242 1724.7,238.3 1729.9,237.5 1732.2,232.8 1734.6,237.5 
		1739.8,238.3 1736,242 1736.9,247.1 	"/>
	<polygon class="st7" points="1638.5,390.1 1633.9,392.6 1634.8,387.4 1631,383.7 1636.2,383 1638.5,378.2 1640.9,383 1646.1,383.7 
		1642.3,387.4 1643.2,392.6 	"/>
	<polygon class="st7" points="855.8,92.5 851.2,95 852.1,89.8 848.3,86.1 853.5,85.4 855.8,80.7 858.2,85.4 863.4,86.1 859.6,89.8 
		860.5,95 	"/>
	<polygon class="st7" points="300,370.6 295.4,373.1 296.3,367.9 292.5,364.2 297.7,363.5 300,358.7 302.4,363.5 307.6,364.2 
		303.8,367.9 304.7,373.1 	"/>
	<polygon class="st8" points="1521.1,270.6 1518.1,272.1 1518.6,268.8 1516.2,266.5 1519.6,266 1521.1,262.9 1522.5,266 
		1525.9,266.5 1523.5,268.8 1524,272.1 	"/>
	<polygon class="st8" points="401.6,348.2 398.6,349.8 399.2,346.5 396.7,344.1 400.1,343.6 401.6,340.6 403.1,343.6 406.4,344.1 
		404,346.5 404.6,349.8 	"/>
	<g>
		<path class="st7" d="M1485.3,63.4v0.3l-0.8,0.8V88c0,0.4,0.3,0.7,0.7,0.7c0.4,0,0.7-0.3,0.7-0.7V64.5v-0.3v-0.8H1485.3z"/>
		<path class="st7" d="M1478.4,89.3c0,3.7,3,6.7,6.7,6.7V82.6C1481.4,82.6,1478.4,85.6,1478.4,89.3z"/>
		<path class="st8" d="M1485.1,95.9c3.7,0,6.7-3,6.7-6.7c0-3.7-3-6.7-6.7-6.7V95.9z"/>
		<path class="st8" d="M1543.7,34.6c-24.1,0-45.5,11.8-59.4,30.1c8-6.5,17.8-10.4,28.5-10.4c0.6,0,1.2,0,1.8,0
			c16.8,0.9,30.9,14.7,30.9,32.1c0,18-17.3,33.2-17.3,33.2s1.7,4.8,4.9,6.3c3.2,1.5,7.3,2,7.3,2s0.8,4.7-0.3,6.9
			c-1.1,2.1-4.3,5.3-4.3,5.3s0.8,1.1,1.7,2c0.9,0.9,4.4,2.3,4.4,2.3s-0.9,9.9-12.5,15.9c-5.2,2.1-10.7,3.2-16.5,3.2
			c-17.5,0-32.8-10.4-41.3-25.9c9.7,32.1,38.3,55.3,72.2,55.3c41.8,0,75.7-35.4,75.7-79.2C1619.4,70,1585.5,34.6,1543.7,34.6z"/>
		<path class="st7" d="M1528.2,38.2c-3.1,0-6.1,0.2-9.1,0.7c-10.6,3.8-20.1,10-28,17.9c3.4-1,7-1.6,10.7-1.6c0.5,0,1,0,1.5,0
			c0.1,0,0.2,0,0.3,0c3-0.6,6-1,9.2-1c0.6,0,1.2,0,1.8,0c16.8,0.9,30.9,14.7,30.9,32.1c0,18-17.3,33.2-17.3,33.2s1.7,4.8,4.9,6.3
			c3.2,1.5,7.3,2,7.3,2s0.8,4.7-0.3,6.9c-1.1,2.1-4.3,5.3-4.3,5.3s0.8,1.1,1.7,2c0.9,0.9,4.4,2.3,4.4,2.3s-0.9,9.9-12.5,15.9
			c-5.2,2.1-10.7,3.2-16.5,3.2c-17.5,0-32.8-10.4-41.3-25.9c0.5,1.5,1,3,1.5,4.5c11.3,19.7,31.8,32.9,55.2,32.9
			c35.7,0,64.6-30.6,64.6-68.4C1592.8,68.8,1563.9,38.2,1528.2,38.2z"/>
		<path class="st51" d="M1543.7,34.6c-24.1,0-45.5,11.8-59.4,30.1c8-6.5,17.8-10.4,28.5-10.4c0.6,0,1.2,0,1.8,0
			c16.8,0.9,30.9,14.7,30.9,32.1c0,0.5,0,0.9,0,1.4c7.9,0.1,16-0.4,24.3-1.4c14.6-1.8,28.4-5.1,40.9-9.7
			C1597.9,51.7,1572.7,34.6,1543.7,34.6z"/>
		<path class="st25" d="M1558.8,109.5c-5.8,0-9-2.8-9.2-2.9c-0.8-0.7-0.9-2-0.2-2.8c0.7-0.8,2-0.9,2.8-0.2c0.1,0.1,3.1,2.5,8.3,1.8
			c5.5-0.7,9-5,9-5.1c0.7-0.9,1.9-1,2.8-0.3c0.9,0.7,1,1.9,0.3,2.8c-0.2,0.2-4.6,5.7-11.6,6.6
			C1560.3,109.5,1559.6,109.5,1558.8,109.5z"/>
		<g>
			<path class="st52" d="M1579.6,85c1.5-0.3,3-0.5,4.5-0.8C1582.6,84.4,1581.1,84.7,1579.6,85z"/>
			<path class="st52" d="M1574.8,85.8c1.2-0.2,2.4-0.4,3.6-0.6C1577.1,85.4,1576,85.6,1574.8,85.8z"/>
			<path class="st52" d="M1519.1,38.8c3-0.4,6-0.7,9.1-0.7c27.9,0,51.7,18.7,60.7,44.9c-1.5,0.3-3.1,0.7-4.7,1
				c9.3-1.9,18.1-4.3,26.3-7.4c-12.7-25.1-37.9-42.1-66.9-42.1C1535.1,34.6,1526.8,36.1,1519.1,38.8
				C1519.1,38.8,1519.1,38.8,1519.1,38.8z"/>
			<path class="st52" d="M1514,40.9L1514,40.9c1.7-0.7,3.4-1.4,5.2-2.1C1517.4,39.5,1515.7,40.2,1514,40.9z"/>
			<path class="st52" d="M1565.3,86.9c-1.3,0.1-2.5,0.2-3.8,0.3C1562.7,87.2,1564,87,1565.3,86.9z"/>
			<path class="st52" d="M1569.7,86.4c-1.3,0.2-2.6,0.3-3.9,0.4C1567.1,86.7,1568.4,86.6,1569.7,86.4z"/>
		</g>
		<path class="st25" d="M1558.6,143.3c-7.6,2.5-13.9,1.7-17,1c0.2,0.1,0.3,0.1,0.3,0.1s-0.1,1.6-1,3.8c1.8,0.4,4.3,0.8,7.3,0.8
			c3.3,0,7.3-0.5,11.7-1.9c1-0.3,1.6-1.5,1.3-2.5C1560.7,143.5,1559.6,142.9,1558.6,143.3z"/>
		
			<ellipse transform="matrix(0.9239 -0.3827 0.3827 0.9239 67.1898 609.9198)" class="st51" cx="1566.7" cy="136.1" rx="21.1" ry="21.1"/>
		<path class="st0" d="M1573.7,55.3c0,2.4-2,4.4-4.4,4.4c-2.4,0-4.4-2-4.4-4.4c0-2.4,2-4.4,4.4-4.4
			C1571.7,50.8,1573.7,52.8,1573.7,55.3z"/>
		<path class="st0" d="M1588.3,67.6c0,4.1-3.3,7.4-7.4,7.4c-4.1,0-7.4-3.3-7.4-7.4c0-4.1,3.3-7.4,7.4-7.4
			C1585,60.2,1588.3,63.6,1588.3,67.6z"/>
	</g>
	<g>
		
			<ellipse transform="matrix(0.9871 -0.1602 0.1602 0.9871 -27.6149 147.5506)" class="st49" cx="901.4" cy="245.1" rx="23.5" ry="23.5"/>
		<path class="st55" d="M974.6,245.1c0,13,10.5,23.5,23.5,23.5c13,0,23.5-10.5,23.5-23.5c0-13-10.5-23.5-23.5-23.5
			C985.1,221.6,974.6,232.1,974.6,245.1z"/>
		<path class="st24" d="M865.4,470.5c0,14.9-12.1,27-27,27c-14.9,0-27-12.1-27-27c0-14.9,12.1-27,27-27
			C853.3,443.5,865.4,455.6,865.4,470.5z"/>
		<path class="st23" d="M1035,470.5c0,14.9,12.1,27,27,27c14.9,0,27-12.1,27-27c0-14.9-12.1-27-27-27
			C1047,443.5,1035,455.6,1035,470.5z"/>
		<path class="st52" d="M816.3,431.9c0,0,32.7-32.4,39.6-65.5c6.8-33.1,21.7,5.8,21.7,5.8l5,39.1l-8.5,50.7L816.3,431.9z"/>
		<path class="st0" d="M901.7,489.4c-5.7,11.5-19.7,16.1-31.1,10.4l-63.2-31.6c-11.5-5.7-16.1-19.7-10.4-31.1l1.2-2.3
			c5.7-11.5,19.7-16.1,31.1-10.4l63.2,31.6c11.5,5.7,16.1,19.7,10.4,31.1L901.7,489.4z"/>
		<path class="st51" d="M860.1,368.3c0,0-9,130-32.2,166.7c38,0,90.7,0,90.7,0l31.4-72.9l-0.3-100.5L860.1,368.3z"/>
		<path class="st69" d="M1083.6,431.9c0,0-32.7-32.4-39.6-65.5c-6.8-33.1-21.7,5.8-21.7,5.8l-5,39.1l8.5,50.7L1083.6,431.9z"/>
		<path class="st3" d="M998.3,489.4c5.7,11.5,19.7,16.1,31.1,10.4l63.2-31.6c11.5-5.7,16.1-19.7,10.4-31.1l-1.2-2.3
			c-5.7-11.5-19.7-16.1-31.1-10.4l-63.2,31.6c-11.5,5.7-16.1,19.7-10.4,31.1L998.3,489.4z"/>
		<path class="st52" d="M1039.8,368.3c0,0,9,130,32.2,166.7c-38,0-90.7,0-90.7,0L950,462.1l0.3-100.5L1039.8,368.3z"/>
		<path class="st0" d="M1036.7,314.4H862.7c-16.8,0-30.4,13.6-30.4,30.4h234.8C1067.1,328,1053.5,314.4,1036.7,314.4z"/>
		<path class="st3" d="M832.3,344.7c0,16.8,13.6,30.4,30.4,30.4h174.1c16.8,0,30.4-13.6,30.4-30.4H832.3z"/>
		<path class="st0" d="M1063,525.4H836.4c-16.8,0-30.4,13.6-30.4,30.4h287.4C1093.4,539,1079.8,525.4,1063,525.4z"/>
		<path class="st3" d="M806,555.8c0,16.8,13.6,30.4,30.4,30.4H1063c16.8,0,30.4-13.6,30.4-30.4H806z"/>
		<g class="st70">
			<path class="st71" d="M1003.8,541.7v-16.3H895.6v16.3c0,4.9,0.7,9.6,1.9,14.1H1002C1003.2,551.3,1003.8,546.6,1003.8,541.7z"/>
		</g>
		<g class="st70">
			<path class="st71" d="M897.5,555.8c3.4,12.5,11.1,23.2,21.4,30.4h61.6c10.3-7.2,18.1-17.9,21.4-30.4H897.5z"/>
		</g>
		<path class="st0" d="M905.3,287v254.7c0,24.5,19.9,44.5,44.5,44.5V242.6C925.2,242.6,905.3,262.5,905.3,287z"/>
		<path class="st3" d="M949.7,586.2c24.6,0,44.5-19.9,44.5-44.5V287c0-24.6-19.9-44.5-44.5-44.5V586.2z"/>
		<path class="st23" d="M949.7,187.7v180.5c0,0,69.6,2.2,69.6-22.5c0-24.7-11.4-154-11.4-154L949.7,187.7z"/>
		<path class="st72" d="M971.5,312.1h-21.8v99.3c0,0,75.6-4.3,75.6-91.6C1009.3,309.3,971.5,312.1,971.5,312.1z"/>
		<path class="st24" d="M949.7,187.7v180.5c0,0-69.6,2.2-69.6-22.5c0-24.7,11.4-154,11.4-154L949.7,187.7z"/>
		
			<ellipse transform="matrix(0.9966 -8.248121e-02 8.248121e-02 0.9966 -12.3826 83.283)" class="st69" cx="1001.8" cy="191.5" rx="28" ry="28"/>
		
			<ellipse transform="matrix(0.1602 -0.9871 0.9871 0.1602 564.7825 1046.8475)" class="st52" cx="897.6" cy="191.5" rx="28" ry="28"/>
		<path class="st7" d="M938,128.5c0,6.5,5.2,11.7,11.7,11.7v-23.4C943.2,116.8,938,122.1,938,128.5z"/>
		<path class="st8" d="M949.7,140.2c6.5,0,11.7-5.2,11.7-11.7c0-6.5-5.2-11.7-11.7-11.7V140.2z"/>
		<path class="st52" d="M984.5,221.1c8.1-8.6,13.1-20.2,13.1-32.9c0-26.5-21.5-47.9-47.9-47.9v80.9H984.5z"/>
		<path class="st51" d="M949.7,221.1v-80.9c-26.5,0-47.9,21.5-47.9,47.9c0,12.8,5,24.3,13.1,32.9H949.7z"/>
		<path class="st55" d="M927.9,312.1h21.8v99.3c0,0-75.6-4.3-75.6-91.6C890.2,309.3,927.9,312.1,927.9,312.1z"/>
		<path class="st7" d="M1009.4,213.1H890.6c-4.4,0-8,3.6-8,8h134.8C1017.4,216.7,1013.8,213.1,1009.4,213.1z"/>
		<path class="st8" d="M882.5,221.1c0,4.4,3.6,8,8,8h118.8c4.4,0,8-3.6,8-8H882.5z"/>
		<path class="st25" d="M925.5,262.7c0,3.8-3.1,6.9-6.9,6.9c-3.8,0-6.9-3.1-6.9-6.9c0-3.8,3.1-6.9,6.9-6.9
			C922.4,255.8,925.5,258.9,925.5,262.7z"/>
		<path class="st25" d="M987.8,262.7c0,3.8-3.1,6.9-6.9,6.9c-3.8,0-6.9-3.1-6.9-6.9c0-3.8,3.1-6.9,6.9-6.9
			C984.7,255.8,987.8,258.9,987.8,262.7z"/>
		<path class="st55" d="M903.3,242.5c-0.8-0.4-1.4-1.2-1.5-2.2c-0.2-1.6,0.9-3.1,2.5-3.3c0.7-0.1,17.8-2.2,29.8,6
			c1.3,0.9,1.7,2.8,0.8,4.1c-0.9,1.3-2.7,1.7-4.1,0.8c-10-6.9-25.5-5-25.7-5C904.4,243,903.8,242.8,903.3,242.5z"/>
		<path class="st55" d="M996.1,242.5c0.8-0.4,1.4-1.2,1.5-2.2c0.2-1.6-0.9-3.1-2.5-3.3c-0.7-0.1-17.9-2.2-29.8,6
			c-1.3,0.9-1.7,2.8-0.8,4.1c0.9,1.3,2.7,1.7,4.1,0.8c10-6.9,25.5-5,25.7-5C995,243,995.6,242.8,996.1,242.5z"/>
		<path class="st49" d="M1024,268.9c-12.1,0-13.3,9.1-12.4,10.2c0,0,3.4-2.9,7.1-2.9c3.7,0,8.2,3.1,8.2,10.2c0,8.3-9.4,13-17.2,13
			c-13.3,0-18.3-18.1-37-18.1c-10.6,0-18.3,3.7-22.9,9.1c-4.7-5.4-12.3-9.1-22.9-9.1c-18.7,0-23.6,18.1-37,18.1
			c-7.8,0-17.2-4.7-17.2-13c0-7.1,4.4-10.2,8.2-10.2c3.7,0,7.1,2.9,7.1,2.9c0.9-1.1-0.4-10.2-12.4-10.2c-12.1,0-19.6,12.4-19.6,26.1
			c0,18.8,16,43.6,51.4,43.6c22.6,0,35.9-9,42.5-18.5c6.6,9.6,19.8,18.5,42.5,18.5c35.4,0,51.4-24.7,51.4-43.6
			C1043.6,281.3,1036.1,268.9,1024,268.9z"/>
		<path class="st55" d="M992.2,338.6c35.4,0,51.4-24.7,51.4-43.6c0-13.7-7.5-26.1-19.6-26.1c-12.1,0-13.3,9.1-12.4,10.2
			c0,0,3.4-2.9,7.1-2.9c3.7,0,8.2,3.1,8.2,10.2c0,8.3-9.4,13-17.2,13c-13.3,0-18.3-18.1-37-18.1c-10.6,0-18.3,3.7-22.9,9.1V320
			C956.3,329.6,969.5,338.6,992.2,338.6z"/>
		<path class="st11" d="M855.8,332.8c0,1.8-1.4,3.2-3.2,3.2c-1.8,0-3.2-1.4-3.2-3.2c0-1.8,1.4-3.2,3.2-3.2
			C854.4,329.5,855.8,331,855.8,332.8z"/>
		<path class="st11" d="M848,356.3c0,1.8-1.4,3.2-3.2,3.2c-1.8,0-3.2-1.4-3.2-3.2c0-1.8,1.4-3.2,3.2-3.2
			C846.6,353.1,848,354.5,848,356.3z"/>
		<path class="st11" d="M872.8,355c0,1.8-1.4,3.2-3.2,3.2c-1.8,0-3.2-1.4-3.2-3.2c0-1.8,1.4-3.2,3.2-3.2
			C871.3,351.8,872.8,353.2,872.8,355z"/>
		<path class="st11" d="M928.9,421.9c0,1.8-1.4,3.2-3.2,3.2c-1.8,0-3.2-1.4-3.2-3.2c0-1.8,1.4-3.2,3.2-3.2
			C927.4,418.7,928.9,420.2,928.9,421.9z"/>
		<path class="st11" d="M918.1,456.4c0,1.8-1.4,3.2-3.2,3.2c-1.8,0-3.2-1.4-3.2-3.2c0-1.8,1.4-3.2,3.2-3.2
			C916.7,453.2,918.1,454.6,918.1,456.4z"/>
		<path class="st11" d="M970.5,431.8c0,1.8-1.4,3.2-3.2,3.2c-1.8,0-3.2-1.4-3.2-3.2c0-1.8,1.4-3.2,3.2-3.2
			C969.1,428.6,970.5,430,970.5,431.8z"/>
		<path class="st11" d="M981,523.2c0,1.8-1.4,3.2-3.2,3.2c-1.8,0-3.2-1.4-3.2-3.2c0-1.8,1.4-3.2,3.2-3.2
			C979.6,520,981,521.5,981,523.2z"/>
		<path class="st11" d="M987.7,462.1c0,1.8-1.4,3.2-3.2,3.2c-1.8,0-3.2-1.4-3.2-3.2c0-1.8,1.4-3.2,3.2-3.2
			C986.3,458.9,987.7,460.3,987.7,462.1z"/>
		<path class="st11" d="M967.3,498.5c0,1.8-1.4,3.2-3.2,3.2c-1.8,0-3.2-1.4-3.2-3.2c0-1.8,1.4-3.2,3.2-3.2
			C965.8,495.3,967.3,496.7,967.3,498.5z"/>
		<path class="st11" d="M938.6,543.8c0,1.8-1.4,3.2-3.2,3.2c-1.8,0-3.2-1.4-3.2-3.2c0-1.8,1.4-3.2,3.2-3.2
			C937.1,540.6,938.6,542.1,938.6,543.8z"/>
		<path class="st11" d="M970.5,567.8c0,1.8-1.4,3.2-3.2,3.2c-1.8,0-3.2-1.4-3.2-3.2c0-1.8,1.4-3.2,3.2-3.2
			C969.1,564.6,970.5,566,970.5,567.8z"/>
		<path class="st11" d="M941.8,481c0,1.8-1.4,3.2-3.2,3.2c-1.8,0-3.2-1.4-3.2-3.2c0-1.8,1.4-3.2,3.2-3.2
			C940.3,477.8,941.8,479.2,941.8,481z"/>
		<path class="st11" d="M921.3,510.8c0,1.8-1.4,3.2-3.2,3.2c-1.8,0-3.2-1.4-3.2-3.2c0-1.8,1.4-3.2,3.2-3.2
			C919.9,507.6,921.3,509,921.3,510.8z"/>
		<path class="st11" d="M831.1,543.8c0,1.8-1.4,3.2-3.2,3.2c-1.8,0-3.2-1.4-3.2-3.2c0-1.8,1.4-3.2,3.2-3.2
			C829.7,540.6,831.1,542.1,831.1,543.8z"/>
		<path class="st11" d="M862.3,535c0,1.8-1.4,3.2-3.2,3.2c-1.8,0-3.2-1.4-3.2-3.2c0-1.8,1.4-3.2,3.2-3.2
			C860.8,531.8,862.3,533.3,862.3,535z"/>
		<path class="st11" d="M892.1,564.6c0,1.8-1.4,3.2-3.2,3.2c-1.8,0-3.2-1.4-3.2-3.2c0-1.8,1.4-3.2,3.2-3.2
			C890.7,561.4,892.1,562.8,892.1,564.6z"/>
		<path class="st11" d="M855.8,567.8c0,1.8-1.4,3.2-3.2,3.2c-1.8,0-3.2-1.4-3.2-3.2c0-1.8,1.4-3.2,3.2-3.2
			C854.4,564.6,855.8,566,855.8,567.8z"/>
		<path class="st11" d="M885.8,550.3c0,1.8-1.4,3.2-3.2,3.2c-1.8,0-3.2-1.4-3.2-3.2c0-1.8,1.4-3.2,3.2-3.2
			C884.3,547.1,885.8,548.5,885.8,550.3z"/>
		<path class="st11" d="M1019.6,535c0,1.8-1.4,3.2-3.2,3.2c-1.8,0-3.2-1.4-3.2-3.2c0-1.8,1.4-3.2,3.2-3.2
			C1018.1,531.8,1019.6,533.3,1019.6,535z"/>
		<path class="st11" d="M1038.2,571c0,1.8-1.4,3.2-3.2,3.2s-3.2-1.4-3.2-3.2c0-1.8,1.4-3.2,3.2-3.2S1038.2,569.2,1038.2,571z"/>
		<path class="st11" d="M1061.9,538.2c0,1.8-1.4,3.2-3.2,3.2c-1.8,0-3.2-1.4-3.2-3.2s1.4-3.2,3.2-3.2
			C1060.5,535,1061.9,536.5,1061.9,538.2z"/>
		<path class="st11" d="M1075.3,459.6c0,1.8-1.4,3.2-3.2,3.2c-1.8,0-3.2-1.4-3.2-3.2c0-1.8,1.4-3.2,3.2-3.2
			C1073.8,456.4,1075.3,457.8,1075.3,459.6z"/>
		<path class="st11" d="M1096.6,440.8c0,1.8-1.4,3.2-3.2,3.2c-1.8,0-3.2-1.4-3.2-3.2c0-1.8,1.4-3.2,3.2-3.2
			C1095.2,437.6,1096.6,439,1096.6,440.8z"/>
		<path class="st11" d="M1061.9,442.5c0,1.8-1.4,3.2-3.2,3.2c-1.8,0-3.2-1.4-3.2-3.2c0-1.8,1.4-3.2,3.2-3.2
			C1060.5,439.3,1061.9,440.7,1061.9,442.5z"/>
		<path class="st11" d="M834.3,462.8c0,1.8-1.4,3.2-3.2,3.2c-1.8,0-3.2-1.4-3.2-3.2c0-1.8,1.4-3.2,3.2-3.2
			C832.9,459.6,834.3,461,834.3,462.8z"/>
		<path class="st11" d="M822.5,431.8c0,1.8-1.4,3.2-3.2,3.2c-1.8,0-3.2-1.4-3.2-3.2c0-1.8,1.4-3.2,3.2-3.2
			C821.1,428.6,822.5,430,822.5,431.8z"/>
		<path class="st11" d="M1041.4,332.4c0,1.8-1.4,3.2-3.2,3.2c-1.8,0-3.2-1.4-3.2-3.2c0-1.8,1.4-3.2,3.2-3.2
			C1040,329.2,1041.4,330.7,1041.4,332.4z"/>
		<path class="st11" d="M1033.1,361.6c0,1.8-1.4,3.2-3.2,3.2c-1.8,0-3.2-1.4-3.2-3.2c0-1.8,1.4-3.2,3.2-3.2
			C1031.6,358.3,1033.1,359.8,1033.1,361.6z"/>
		<path class="st11" d="M1058.7,351.3c0,1.8-1.4,3.2-3.2,3.2c-1.8,0-3.2-1.4-3.2-3.2c0-1.8,1.4-3.2,3.2-3.2
			C1057.3,348.1,1058.7,349.5,1058.7,351.3z"/>
		<path class="st11" d="M1073.6,567.8c0,1.8-1.4,3.2-3.2,3.2c-1.8,0-3.2-1.4-3.2-3.2c0-1.8,1.4-3.2,3.2-3.2
			C1072.1,564.6,1073.6,566,1073.6,567.8z"/>
	</g>
</g>
</svg>
